<svg height="480pt" viewBox="-27 0 480 480" width="480pt" xmlns="http://www.w3.org/2000/svg"><path d="m268.042969 379.695312c-12.800781 49.105469-32.058594 84.304688-55.203125 84.304688-25.535156 0-46.398438-42.769531-58.972656-99.910156-1.136719-5.152344-2.21875-10.402344-3.203126-15.777344-1.597656-8.710938-2.992187-17.71875-4.230468-26.847656-3.503906-2.160156-7.128906-4.417969-11.046875-6.90625-2.25-1.429688-4.394531-2.894532-6.609375-4.335938 1.648437 14.839844 3.777344 29.34375 6.398437 43.203125 1.035157 5.335938 2.121094 10.597657 3.289063 15.742188 14.570312 63.839843 40.199218 110.832031 74.375 110.832031 31.335937 0 55.457031-39.542969 70.464844-95.304688l-.847657-.238281c-4.734375-1.464843-9.558593-3.089843-14.414062-4.761719zm0 0"/><path d="m281.722656 301.046875c-1.074218 10.601563-2.496094 20.976563-4.074218 31.199219l2.730468.992187c4.351563 1.546875 8.628906 2.921875 12.886719 4.265625 2.464844-15.398437 4.351563-31.40625 5.601563-47.695312.53125-6.757813.953124-13.554688 1.261718-20.394532.464844-9.789062.710938-19.613281.710938-29.414062 0-3.070312-.167969-6.136719-.214844-9.207031-3.3125-2.488281-6.589844-4.921875-9.75-7.199219-2.089844-1.480469-4.289062-2.929688-6.402344-4.402344.246094 6.976563.367188 13.914063.367188 20.808594 0 13.527344-.484375 27.246094-1.414063 40.894531-.464843 6.753907-1.03125 13.472657-1.703125 20.152344zm0 0"/><path d="m134.792969 223.640625c-3.3125 2.363281-6.554688 4.714844-9.726563 7.0625-.046875 3.105469-.226562 6.199219-.226562 9.296875s.179687 6.199219.226562 9.296875c3.199219 2.363281 6.445313 4.722656 9.742188 7.078125 2.089844 1.480469 4.289062 2.929688 6.402344 4.402344-.246094-6.949219-.371094-13.875-.371094-20.777344s.128906-13.835938.378906-20.800781c-2.128906 1.503906-4.328125 2.953125-6.425781 4.441406zm0 0"/><path d="m146.441406 158.535156c1.238282-9.128906 2.609375-18.136718 4.230469-26.847656.992187-5.367188 2.074219-10.625 3.203125-15.777344 12.566406-57.140625 33.429688-99.910156 58.964844-99.910156 4.265625.082031 8.4375 1.253906 12.121094 3.40625 4.128906-3.976562 9.066406-7.023438 14.472656-8.925781-7.351563-6.519531-16.769532-10.230469-26.59375-10.480469-34.175782 0-59.804688 46.992188-74.351563 110.824219-1.167969 5.144531-2.253906 10.398437-3.285156 15.742187-2.65625 13.867188-4.800781 28.371094-6.402344 43.203125 2.207031-1.441406 4.359375-2.90625 6.59375-4.328125 3.894531-2.488281 7.527344-4.746094 11.046875-6.90625zm0 0"/><path d="m168.839844 316.207031c2.640625 1.527344 5.28125 2.96875 7.921875 4.433594 3.742187-1.601563 7.40625-3.128906 11.246093-4.878906 2.320313-1.066407 4.65625-2.234375 6.984376-3.328125-6.050782-3.246094-12.101563-6.605469-18.152344-10.082032-12-6.902343-23.46875-14.09375-34.582032-21.457031-5.710937-3.78125-11.285156-7.609375-16.71875-11.488281-8.847656-6.277344-17.195312-12.6875-25.273437-19.125-.742187.621094-1.527344 1.253906-2.257813 1.878906-3.453124 2.960938-6.742187 5.9375-10 8.902344 12.074219 9.761719 25.050782 19.386719 38.792969 28.738281 5.601563 3.808594 11.328125 7.542969 17.160157 11.246094 8.121093 5.160156 16.367187 10.25 24.878906 15.160156zm0 0"/><path d="m52.089844 228.800781c.207031-.183593.398437-.375.601562-.570312 3.652344-3.375 7.476563-6.75 11.359375-10.109375-5.519531-5.496094-10.785156-10.984375-15.519531-16.433594-27.578125-31.71875-38.394531-58.582031-29.671875-73.6875 5.78125-10.023438 20.351563-15.199219 41.558594-15.199219 12.472656.164063 24.898437 1.503907 37.121093 4 7.199219 1.390625 14.636719 3.238281 22.246094 5.304688.984375-5.042969 2-10.015625 3.105469-14.875.0625-.277344.136719-.535157.199219-.796875-7.6875-2.066406-15.25-3.914063-22.511719-5.320313-49.105469-9.511719-83.054687-2.800781-95.578125 18.886719-12.519531 21.6875-1.351562 54.441406 31.449219 92.207031 4.792969 5.519531 10.105469 11.074219 15.640625 16.59375zm0 0"/><path d="m268.042969 100.296875c4.855469-1.671875 9.671875-3.296875 14.398437-4.800781.289063-.089844.550782-.144532.800782-.230469-1.601563-5.761719-3.199219-11.378906-4.945313-16.800781-4.179687 3.503906-9.039063 6.109375-14.269531 7.65625 1.453125 4.621094 2.773437 9.335937 4.015625 14.175781zm0 0"/><path d="m165.875 342.480469c.167969.96875.34375 1.96875.511719 2.910156.800781 4.449219 1.734375 8.800781 2.664062 13.105469 14.335938-5.527344 28.992188-11.894532 43.789063-19.039063 6.042968-2.914062 12.105468-5.984375 18.179687-9.144531 8.605469-4.496094 17.222657-9.136719 25.820313-14.105469 2.5625-1.472656 4.96875-3.046875 7.488281-4.558593.488281-4.0625 1.058594-8.0625 1.472656-12.199219.257813-2.539063.425781-5.105469.648438-7.65625-5.757813 3.582031-11.625 7.101562-17.601563 10.558593-12 6.929688-24 13.328126-36 19.289063-6.085937 3.03125-12.140625 5.902344-18.175781 8.671875-9.726563 4.449219-19.308594 8.429688-28.796875 12.167969zm0 0"/><path d="m362.105469 240c9.53125-8.773438 18.589843-18.050781 27.128906-27.792969 32.800781-37.765625 44-70.511719 31.445313-92.207031-12.550782-21.695312-46.453126-28.382812-95.574219-18.863281-12.804688 2.542969-25.457031 5.777343-37.910157 9.6875-5.0625 1.566406-10.1875 3.265625-15.378906 5.085937-13.167968 4.59375-26.695312 10.019532-40.398437 16.082032 2.335937 1.183593 4.664062 2.304687 7 3.519531 4.046875 2.113281 7.769531 4.097656 11.359375 6.03125 8.527344-3.566407 16.976562-6.917969 25.25-9.855469 5.222656-1.847656 10.359375-3.519531 15.453125-5.121094 12.367187-3.9375 24.941406-7.183594 37.664062-9.726562 12.222657-2.496094 24.648438-3.835938 37.121094-4 21.207031 0 35.777344 5.160156 41.601563 15.199218 8.71875 15.105469-2.097657 41.96875-29.671876 73.722657-4.671874 5.375-9.859374 10.789062-15.289062 16.207031l.359375.289062-11.617187 10.542969-.550782.527344c-.464844.425781-.96875.847656-1.433594 1.28125l-.214843.191406c-1.792969 1.597657-3.679688 3.261719-5.511719 4.902344-1.601562 1.441406-3.199219 2.890625-4.863281 4.328125l-.128907.105469-12.191406 10.34375-.273437-.214844c-2.910157 2.320313-5.910157 4.621094-8.902344 6.933594-.113281 4.28125-.25 8.585937-.449219 12.976562-.121094 2.609375-.328125 5.191407-.480468 7.792969 12.226562-8.929688 23.792968-18.03125 34.449218-27.199219 4.128906-3.625 8.152344-7.195312 12.007813-10.769531zm0 0"/><path d="m296.890625 169.761719c-1.03125-9.242188-2.199219-18.402344-3.625-27.265625-4.246094 1.351562-8.527344 2.726562-12.886719 4.273437-.875.308594-1.832031.71875-2.722656 1.039063.546875 3.535156 1.042969 7.121094 1.546875 10.695312 3.519531 2.167969 7.199219 4.433594 11.101563 6.9375 2.242187 1.421875 4.375 2.878906 6.585937 4.320313zm0 0"/><path d="m231.019531 149.6875c-6.074219-3.160156-12.136719-6.230469-18.179687-9.144531-14.796875-7.144531-29.453125-13.511719-43.789063-19.039063-.929687 4.304688-1.839843 8.65625-2.671875 13.113282-.175781.941406-.304687 1.957031-.472656 2.910156 9.480469 3.738281 19.046875 7.710937 28.800781 12.160156 6.03125 2.769531 12.085938 5.640625 18.175781 8.671875 12 5.960937 24 12.359375 36 19.289063 12 6.925781 23.472657 14.09375 34.582032 21.457031 5.710937 3.78125 11.285156 7.609375 16.722656 11.488281 8.847656 6.277344 17.191406 12.679688 25.269531 19.125.746094-.621094 1.527344-1.253906 2.257813-1.878906 3.453125-2.960938 6.742187-5.9375 10-8.902344-12.074219-9.761719-25.050782-19.386719-38.792969-28.738281-5.601563-3.808594-11.328125-7.542969-17.160156-11.246094-8.121094-5.160156-16.367188-10.25-24.878907-15.160156-8.511718-4.914063-17.257812-9.609375-25.863281-14.105469zm0 0"/><path d="m119.785156 357.855469c-7.609375 2.066406-15.078125 3.914062-22.246094 5.304687-41.304687 8-69.96875 3.9375-78.679687-11.199218-4.035156-9.007813-3.894531-19.335938.382813-28.234376-5.007813-2.480468-9.4375-5.984374-13.007813-10.285156-7.792969 18.34375-8.351563 34.238282-1.234375 46.558594 8.800781 15.246094 28.195312 23.097656 56 23.097656 13.296875-.15625 26.542969-1.570312 39.570312-4.234375 7.261719-1.40625 14.824219-3.253906 22.511719-5.320312-.0625-.277344-.136719-.535157-.199219-.800781-1.105468-4.871094-2.113281-9.847657-3.097656-14.886719zm0 0"/><path d="m63.578125 240c-4 3.6875-7.710937 7.382812-11.402344 11.078125 5.078125 2.128906 9.660157 5.28125 13.464844 9.257813 3.265625-3.199219 6.488281-6.398438 9.976563-9.601563 3.878906-3.574219 7.863281-7.140625 12-10.703125 11.640624-9.953125 24.390624-19.792969 37.929687-29.40625 5.445313-3.871094 11.015625-7.703125 16.71875-11.488281 11.113281-7.359375 22.625-14.550781 34.582031-21.457031 6.050782-3.488282 12.097656-6.84375 18.144532-10.070313-2.320313-1.097656-4.65625-2.273437-6.972657-3.328125-3.570312-1.601562-7.304687-3.28125-11.203125-4.9375-2.664062 1.480469-5.328125 2.945312-8 4.480469-8.511718 4.910156-16.757812 10-24.878906 15.160156-5.832031 3.703125-11.566406 7.441406-17.160156 11.246094-17.796875 12.046875-34.890625 25.101562-51.199219 39.097656-4.121094 3.527344-8.144531 7.097656-12 10.671875zm0 0"/><path d="m60.839844 288c0 13.253906-10.742188 24-24 24-13.253906 0-24-10.746094-24-24s10.746094-24 24-24c13.257812 0 24 10.746094 24 24zm0 0"/><path d="m275.027344 348.3125c-8.273438-2.9375-16.730469-6.289062-25.257813-9.855469-3.582031 1.941407-7.3125 3.925781-11.367187 6.039063-2.328125 1.214844-4.65625 2.328125-6.984375 3.511718 13.703125 6.070313 27.199219 11.488282 40.398437 16.082032 5.183594 1.8125 10.308594 3.507812 15.378906 5.085937 4.726563 1.464844 9.328126 2.703125 13.933594 3.953125.378906-5.375 1.855469-10.613281 4.335938-15.394531-4.941406-1.34375-9.902344-2.710937-14.984375-4.300781-5.078125-1.59375-10.230469-3.273438-15.453125-5.121094zm0 0"/><path d="m373.59375 251.199219c-.207031.183593-.398438.375-.601562.570312-3.65625 3.375-7.480469 6.75-11.359376 10.109375 5.519532 5.496094 10.785157 10.984375 15.519532 16.433594 27.578125 31.75 38.402344 58.617188 29.671875 73.71875-4.375 7.585938-13.796875 12.382812-27.320313 14.265625.847656 3.164063 1.296875 6.425781 1.335938 9.703125-.042969 2.035156-.25 4.066406-.613282 6.070312 19.488282-2.496093 33.414063-9.871093 40.453126-22.070312 12.53125-21.695312 1.355468-54.398438-31.445313-92.207031-4.792969-5.519531-10.105469-11.074219-15.640625-16.59375zm0 0"/><path d="m364.839844 376c0 13.253906-10.742188 24-24 24-13.253906 0-24-10.746094-24-24s10.746094-24 24-24c13.257812 0 24 10.746094 24 24zm0 0"/><path d="m276.839844 48c0 13.253906-10.742188 24-24 24-13.253906 0-24-10.746094-24-24s10.746094-24 24-24c13.257812 0 24 10.746094 24 24zm0 0"/><path d="m252.839844 240c0 22.089844-17.90625 40-40 40-22.089844 0-40-17.910156-40-40s17.910156-40 40-40c22.09375 0 40 17.910156 40 40zm0 0"/></svg>