<svg xmlns="http://www.w3.org/2000/svg" viewBox="0 0 206.5 222.83" class="">
    <g data-name="promo vedees">
        <path d="M109.17 17.33S92.12 8.62 78.42 36 60.15 55.81 25.13 87s-32 68.51 0 87.54 57.85-3.8 86.78 29.69 76.88 19 86.78-22.08-19.79-70.79.76-110.37-7.61-46.43-35.78-48-43.95-.49-54.5-6.45z"
              class="cls-1"></path>
        <path d="M127.5 7.33A7.34 7.34 0 1 1 120.17 0a7.34 7.34 0 0 1 7.33 7.33z" class="cls-2"
              style="animation:bounceIn 14s linear"></path>
        <path d="M110 209.92a3.34 3.34 0 1 1-3.33-3.34 3.33 3.33 0 0 1 3.33 3.34zM127.5 7.33A7.34 7.34 0 1 1 120.17 0a7.34 7.34 0 0 1 7.33 7.33z"
              class="cls-2"></path>
        <rect x="43.17" y="61" width="126.67" height="90" rx="5.67" ry="5.67" class="cls-3"></rect>
        <rect x="44.83" y="62.18" width="123.33" height="87.63" rx="4.49" ry="4.49" class="cls-4"></rect>
        <rect x="50.17" y="66.31" width="112.67" height="75.78" rx="2.77" ry="2.77" class="cls-5"
              style="animation:c 6s linear 0s infinite"></rect>
        <path d="M40.09 146.33a4.72 4.72 0 0 0 4.16 7h124.5a4.72 4.72 0 0 0 4.16-7z" class="cls-3"></path>
        <path d="M40.09 150.83a4.73 4.73 0 0 0 4.16 2.5h124.5a4.7 4.7 0 0 0 4.16-2.5z" class="cls-6"></path>
        <path d="M64.53 75.7h-8.39a.81.81 0 0 1-.81-.81.81.81 0 0 1 .81-.81h8.39a.8.8 0 0 1 .8.81.8.8 0 0 1-.8.81z"
              class="cls-7"></path>
        <path d="M128.28 75.7h-8.39a.81.81 0 0 1-.81-.81.81.81 0 0 1 .81-.81h8.39a.8.8 0 0 1 .8.81.8.8 0 0 1-.8.81z"
              class="cls-3"></path>
        <path d="M116.44 75.7h-48a.8.8 0 0 1-.8-.81.8.8 0 0 1 .8-.81h48a.81.81 0 0 1 .81.81.81.81 0 0 1-.81.81z"
              class="cls-7"></path>
        <path d="M83.78 79H68.47a.8.8 0 0 1-.8-.8.8.8 0 0 1 .8-.81h15.31a.8.8 0 0 1 .8.81.8.8 0 0 1-.8.8z"
              class="cls-8"></path>
        <path d="M108.94 79h-22a.81.81 0 0 1-.81-.8.81.81 0 0 1 .81-.81h22a.81.81 0 0 1 .81.81.8.8 0 0 1-.81.8zM116.46 79h-5.07a.81.81 0 0 1-.81-.8.81.81 0 0 1 .81-.81h5.07a.81.81 0 0 1 .81.81.8.8 0 0 1-.81.8zM116.44 95.28h-48a.8.8 0 0 1-.8-.81.8.8 0 0 1 .8-.8h48a.8.8 0 0 1 .81.8.81.81 0 0 1-.81.81z"
              class="cls-3"></path>
        <path d="M64.53 98.62h-8.39a.81.81 0 0 1-.81-.81.81.81 0 0 1 .81-.81h8.39a.8.8 0 0 1 .8.81.8.8 0 0 1-.8.81zM128.28 98.62h-8.39a.81.81 0 0 1-.81-.81.81.81 0 0 1 .81-.81h8.39a.8.8 0 0 1 .8.81.8.8 0 0 1-.8.81z"
              class="cls-7"></path>
        <path d="M83.78 98.62H68.47a.8.8 0 0 1-.8-.81.8.8 0 0 1 .8-.81h15.31a.8.8 0 0 1 .8.81.8.8 0 0 1-.8.81z"
              class="cls-3"></path>
        <path d="M108.94 98.62h-22a.81.81 0 0 1-.81-.81.81.81 0 0 1 .81-.81h22a.81.81 0 0 1 .81.81.81.81 0 0 1-.81.81zM116.46 98.62h-5.07a.81.81 0 0 1-.81-.81.81.81 0 0 1 .81-.81h5.07a.81.81 0 0 1 .81.81.81.81 0 0 1-.81.81zM128.34 82.37H68.47a.8.8 0 0 1-.8-.81.8.8 0 0 1 .8-.8h59.87a.8.8 0 0 1 .81.8.81.81 0 0 1-.81.81z"
              class="cls-8"></path>
        <rect x="101" y="84.09" width="15.65" height="1.61" rx=".6" ry=".6" class="cls-7"></rect>
        <path d="M88.36 85.71H68.47a.8.8 0 0 1-.8-.81.81.81 0 0 1 .8-.81h19.89a.81.81 0 0 1 .81.81.81.81 0 0 1-.81.81z"
              class="cls-3"></path>
        <path d="M98.94 85.71h-7.88a.81.81 0 0 1-.81-.81.81.81 0 0 1 .81-.81h7.88a.81.81 0 0 1 .81.81.81.81 0 0 1-.81.81z"
              class="cls-7"></path>
        <path d="M64.53 88.93h-8.39a.81.81 0 0 1-.81-.8.81.81 0 0 1 .81-.81h8.39a.8.8 0 0 1 .8.81.8.8 0 0 1-.8.8zM128.34 88.93H68.47a.8.8 0 0 1-.8-.8.8.8 0 0 1 .8-.81h59.87a.81.81 0 0 1 .81.81.8.8 0 0 1-.81.8zM64.53 101.71h-8.39a.81.81 0 0 1-.81-.81.82.82 0 0 1 .81-.81h8.39a.81.81 0 0 1 .8.81.8.8 0 0 1-.8.81z"
              class="cls-3"></path>
        <rect x="101" y="100.09" width="21.65" height="1.61" rx=".71" ry=".71" class="cls-3"></rect>
        <path d="M88.36 101.71H68.47a.8.8 0 0 1-.8-.81.81.81 0 0 1 .8-.81h19.89a.81.81 0 0 1 .81.81.81.81 0 0 1-.81.81zM98.94 101.71h-7.88a.81.81 0 0 1-.81-.81.81.81 0 0 1 .81-.81h7.88a.81.81 0 0 1 .81.81.81.81 0 0 1-.81.81z"
              class="cls-3"></path>
        <path d="M64.53 104.93h-8.39a.81.81 0 0 1-.81-.8.81.81 0 0 1 .81-.81h8.39a.8.8 0 0 1 .8.81.8.8 0 0 1-.8.8z"
              class="cls-9"></path>
        <path d="M78.84 104.93H68.47a.8.8 0 0 1-.8-.8.8.8 0 0 1 .8-.81h10.37a.81.81 0 0 1 .81.81.8.8 0 0 1-.81.8zM56.14 92.27a.81.81 0 0 1-.81-.81.81.81 0 0 1 .81-.8h8.39a.8.8 0 0 1 .8.8.8.8 0 0 1-.8.81"
              class="cls-7"></path>
        <rect x="101" y="90.66" width="24.46" height="1.61" rx=".75" ry=".75" class="cls-3"></rect>
        <path d="M88.36 92.27H68.47a.8.8 0 0 1-.8-.81.8.8 0 0 1 .8-.8h19.89a.8.8 0 0 1 .81.8.81.81 0 0 1-.81.81zM98.94 92.27h-7.88a.81.81 0 0 1-.81-.81.8.8 0 0 1 .81-.8h7.88a.8.8 0 0 1 .81.8.81.81 0 0 1-.81.81z"
              class="cls-9"></path>
        <path d="M124.42 108.47h-4.8a.91.91 0 0 1-.91-.91.91.91 0 0 1 .91-.91h4.8a.9.9 0 0 1 .91.91.91.91 0 0 1-.91.91zM116.44 108.36h-48a.8.8 0 0 1-.8-.8.8.8 0 0 1 .8-.81h48a.81.81 0 0 1 .81.81.8.8 0 0 1-.81.8zM128.28 111.7h-8.39a.81.81 0 0 1-.81-.81.81.81 0 0 1 .81-.8h8.39a.8.8 0 0 1 .8.8.8.8 0 0 1-.8.81zM83.78 111.7H68.47a.8.8 0 0 1-.8-.81.8.8 0 0 1 .8-.8h15.31a.8.8 0 0 1 .8.8.8.8 0 0 1-.8.81zM108.94 111.7h-22a.81.81 0 0 1-.81-.81.81.81 0 0 1 .81-.8h22a.8.8 0 0 1 .81.8.81.81 0 0 1-.81.81zM116.46 111.7h-5.07a.81.81 0 0 1-.81-.81.81.81 0 0 1 .81-.8h5.07a.8.8 0 0 1 .81.8.81.81 0 0 1-.81.81zM128.28 128h-8.39a.81.81 0 0 1-.81-.81.81.81 0 0 1 .81-.81h8.39a.8.8 0 0 1 .8.81.8.8 0 0 1-.8.81zM116.44 128h-48a.8.8 0 0 1-.8-.81.8.8 0 0 1 .8-.81h48a.81.81 0 0 1 .81.81.81.81 0 0 1-.81.81z"
              class="cls-3"></path>
        <path d="M64.53 131.28h-8.39a.81.81 0 0 1-.81-.8.81.81 0 0 1 .81-.81h8.39a.8.8 0 0 1 .8.81.8.8 0 0 1-.8.8z"
              class="cls-8"></path>
        <rect x="119.08" y="129.67" width="4.56" height="1.61" rx=".55" ry=".55" class="cls-7"></rect>
        <path d="M83.78 131.28H68.47a.8.8 0 0 1-.8-.8.8.8 0 0 1 .8-.81h15.31a.8.8 0 0 1 .8.81.8.8 0 0 1-.8.8z"
              class="cls-7"></path>
        <path d="M108.94 131.28h-22a.81.81 0 0 1-.81-.8.81.81 0 0 1 .81-.81h22a.81.81 0 0 1 .81.81.8.8 0 0 1-.81.8z"
              class="cls-3"></path>
        <path d="M116.46 131.28h-5.07a.81.81 0 0 1-.81-.8.81.81 0 0 1 .81-.81h5.07a.81.81 0 0 1 .81.81.8.8 0 0 1-.81.8z"
              class="cls-7"></path>
        <path d="M64.53 115h-8.39a.81.81 0 0 1-.81-.81.81.81 0 0 1 .81-.81h8.39a.8.8 0 0 1 .8.81.8.8 0 0 1-.8.81z"
              class="cls-8"></path>
        <rect x="67.67" y="113.42" width="44.6" height="1.61" rx=".69" ry=".69" class="cls-8"></rect>
        <path d="M64.53 118.38h-8.39a.82.82 0 0 1-.81-.81.81.81 0 0 1 .81-.81h8.39a.8.8 0 0 1 .8.81.81.81 0 0 1-.8.81z"
              class="cls-3"></path>
        <rect x="102.65" y="116.76" width="26.44" height="1.61" rx=".78" ry=".78" class="cls-3"></rect>
        <path d="M88.36 118.38H68.47a.81.81 0 0 1-.8-.81.8.8 0 0 1 .8-.81h19.89a.81.81 0 0 1 .81.81.81.81 0 0 1-.81.81zM98.94 118.38h-7.88a.81.81 0 0 1-.81-.81.81.81 0 0 1 .81-.81h7.88a.81.81 0 0 1 .81.81.81.81 0 0 1-.81.81zM64.53 121.6h-8.39a.81.81 0 0 1-.81-.81.81.81 0 0 1 .81-.8h8.39a.8.8 0 0 1 .8.8.8.8 0 0 1-.8.81z"
              class="cls-3"></path>
        <rect x="67.67" y="119.99" width="56.17" height="1.61" rx=".77" ry=".77" class="cls-3"></rect>
        <path d="M64.53 134.38h-8.39a.82.82 0 0 1-.81-.81.81.81 0 0 1 .81-.81h8.39a.8.8 0 0 1 .8.81.81.81 0 0 1-.8.81zM128.28 134.38h-26.47a.81.81 0 0 1-.81-.81.81.81 0 0 1 .81-.81h26.47a.8.8 0 0 1 .8.81.81.81 0 0 1-.8.81zM88.36 134.38H68.47a.81.81 0 0 1-.8-.81.8.8 0 0 1 .8-.81h19.89a.81.81 0 0 1 .81.81.81.81 0 0 1-.81.81zM98.94 134.38h-7.88a.81.81 0 0 1-.81-.81.81.81 0 0 1 .81-.81h7.88a.81.81 0 0 1 .81.81.81.81 0 0 1-.81.81z"
              class="cls-3"></path>
        <rect x="67.67" y="135.99" width="37.1" height="1.61" rx=".63" ry=".63" class="cls-9"></rect>
        <rect x="101" y="123.32" width="25.9" height="1.61" rx=".78" ry=".78" class="cls-8"></rect>
        <path d="M88.36 124.94H68.47a.8.8 0 0 1-.8-.81.8.8 0 0 1 .8-.81h19.89a.81.81 0 0 1 .81.81.81.81 0 0 1-.81.81zM98.94 124.94h-7.88a.81.81 0 0 1-.81-.81.81.81 0 0 1 .81-.81h7.88a.81.81 0 0 1 .81.81.81.81 0 0 1-.81.81z"
              class="cls-9"></path>
        <rect x="136.33" y="51.5" width="39" height="54" rx="1.75" ry="1.75" class="cls-3"></rect>
        <path d="M173.58 51.5h-35.5a1.75 1.75 0 0 0-1.75 1.75v6.25h39v-6.25a1.75 1.75 0 0 0-1.75-1.75z"
              class="cls-4"></path>
        <path d="M165.19 56.85h-25.5a1.08 1.08 0 0 1-1.08-1.08 1.08 1.08 0 0 1 1.08-1.08h25.5a1.08 1.08 0 0 1 1.08 1.08 1.08 1.08 0 0 1-1.08 1.08z"
              class="cls-3"></path>
        <path d="M143.58 72.96h4.13v7.75h-4.13z" class="cls-4" style="animation:dр 1s linear 0s infinite"></path>
        <path d="M150.33 67.46h4.13v13.25h-4.13z" class="cls-4" style="animation:dр 1.2s linear 0s infinite"></path>
        <path d="M157.08 65.83h4.13v14.88h-4.13z" class="cls-4" style="animation:dр 1s linear 0s infinite"></path>
        <path d="M163.83 64.96h4.13v15.75h-4.13z" class="cls-4" style="animation:dр 1.2s linear 0s infinite"></path>
        <path d="M158.21 88.08h-4.63a1.5 1.5 0 0 1-1.5-1.5 1.5 1.5 0 0 1 1.5-1.5h4.63a1.5 1.5 0 0 1 1.5 1.5 1.5 1.5 0 0 1-1.5 1.5z"
              class="cls-4"></path>
        <path d="M148 96.71h-4.63a1.5 1.5 0 0 1-1.5-1.5 1.5 1.5 0 0 1 1.5-1.5H148a1.5 1.5 0 0 1 1.5 1.5 1.5 1.5 0 0 1-1.5 1.5z"
              class="cls-8"></path>
        <path d="M158.21 96.71h-4.63a1.5 1.5 0 0 1-1.5-1.5 1.5 1.5 0 0 1 1.5-1.5h4.63a1.5 1.5 0 0 1 1.5 1.5 1.5 1.5 0 0 1-1.5 1.5z"
              class="cls-9" style="animation:dddр 1s linear 0s infinite"></path>
        <path d="M168.46 96.71h-4.63a1.5 1.5 0 0 1-1.5-1.5 1.5 1.5 0 0 1 1.5-1.5h4.63a1.5 1.5 0 0 1 1.5 1.5 1.5 1.5 0 0 1-1.5 1.5z"
              class="cls-8"></path>
        <path d="M155.83 93a.31.31 0 0 1-.31-.31v-3.42a.31.31 0 0 1 .31-.31.31.31 0 0 1 .32.31v3.38a.31.31 0 0 1-.32.35zM151.7 95.21a.31.31 0 0 1-.31.31h-1.18a.31.31 0 0 1-.31-.31.31.31 0 0 1 .31-.31h1.18a.31.31 0 0 1 .31.31zM161.89 95.21a.31.31 0 0 1-.31.31h-1.18a.31.31 0 0 1-.32-.31.31.31 0 0 1 .32-.31h1.18a.31.31 0 0 1 .31.31z"
              class="cls-4"></path>
        <rect x="136.5" y="110.67" width="17.52" height="26.83" rx="2.01" ry="2.01" class="cls-4"></rect>
        <rect x="137.55" y="111.83" width="15.43" height="22.19" rx="1.01" ry="1.01" class="cls-5"></rect>
        <path d="M146.36 136.12h-2a.39.39 0 0 1-.4-.39.4.4 0 0 1 .4-.4h2a.4.4 0 0 1 .39.4.39.39 0 0 1-.39.39z"
              class="cls-5"></path>
        <path d="M173.46 202.33H167a43.24 43.24 0 0 0-5.15-11.82l4.42-4.74a6 6 0 0 0-.3-8.48l-7.68-7.16a6 6 0 0 0-8.48.3l-4.42 4.74a43.13 43.13 0 0 0-9.16-3.61v-6.48a6 6 0 0 0-6-6h-10.5a6 6 0 0 0-6 6v6.48a43.24 43.24 0 0 0-11.82 5.15l-4.75-4.42a6 6 0 0 0-8.48.3l-7.15 7.68a5.94 5.94 0 0 0-1.53 4.85c9.09 1.62 18.14 5.28 27.46 14.36a22.5 22.5 0 0 1 38.15 23.11 47.64 47.64 0 0 0 33.88-9.92v-4.34a6 6 0 0 0-6.03-6z"
              class="cls-10"></path>
        <path d="M96 24.58a22.45 22.45 0 0 1-8.46-1.65A48.61 48.61 0 0 0 78.42 36q-1.28 2.56-2.42 4.71a43.09 43.09 0 0 0 8.73 3.4v6.47a6 6 0 0 0 6 6h10.5a6 6 0 0 0 6-6v-6.47A43.54 43.54 0 0 0 119 39l4.74 4.42a6 6 0 0 0 8.48-.3l7.16-7.68a6 6 0 0 0-.3-8.48l-4.67-4.36c-9.86-.56-17.22-1.5-23-4.11A22.42 22.42 0 0 1 96 24.58z"
              class="cls-4"></path>
        <path d="M174.12 206.58a15.8 15.8 0 0 1 21.38-14.82 59.59 59.59 0 0 0 3.19-9.59c.37-1.56.69-3.11.95-4.65-.58-.19-1.16-.37-1.76-.53v-4.56a4.22 4.22 0 0 0-4.22-4.22h-7.4a4.22 4.22 0 0 0-4.22 4.22V177a30.57 30.57 0 0 0-8.33 3.63l-3.34-3.11a4.22 4.22 0 0 0-6 .21l-5 5.41a4.23 4.23 0 0 0 .21 6l3.34 3.11a30.06 30.06 0 0 0-2.54 6.45h-4.56a4.23 4.23 0 0 0-4.23 4.23v7.39a4.23 4.23 0 0 0 4.23 4.22h4.56A30.14 30.14 0 0 0 163 221a48.21 48.21 0 0 0 13.49-6.2 15.77 15.77 0 0 1-2.37-8.22z"
              class="cls-8"></path>
        <circle cx="33.83" cy="160.33" r="26" class="cls-11"></circle>
        <path d="M32 157.89l-10.33 3.79L32 165.43v3.88l-14.76-5.62v-4L32 154.05zM35.32 154.05l14.76 5.61v4l-14.76 5.62v-3.88l10.33-3.75-10.33-3.79z"
              class="cls-12"></path>
        <circle cx="50.83" cy="189.33" r="3" class="cls-11"></circle>
    </g>
</svg>