<svg height="366pt" viewBox="-8 0 366 366" width="366pt" xmlns="http://www.w3.org/2000/svg"><path d="m277.273438 183c-9.222657-6.914062-19.050782-13.765625-29.382813-20.488281.246094 6.761719.375 13.589843.378906 20.488281.003907 6.898438-.125 13.726562-.378906 20.488281 10.332031-6.722656 20.160156-13.574219 29.382813-20.488281zm0 0"/><path d="m205.761719 137.382812c-10.425781-5.707031-20.671875-10.976562-30.742188-15.816406-10.054687 4.847656-20.304687 10.121094-30.75 15.816406-9.511719 5.203126-18.746093 10.546876-27.699219 16.023438-.535156 9.703125-.804687 19.566406-.808593 29.59375 0 10.011719.277343 19.898438.808593 29.59375 8.933594 5.464844 18.167969 10.808594 27.699219 16.023438 10.425781 5.707031 20.675781 10.980468 30.746094 15.816406 10.054687-4.84375 20.300781-10.117188 30.746094-15.816406 9.515625-5.203126 18.746093-10.546876 27.699219-16.023438.53125-9.695312.808593-19.582031.808593-29.59375s-.277343-19.898438-.808593-29.59375c-8.933594-5.464844-18.167969-10.804688-27.699219-16.023438zm0 0"/><path d="m317.5625 79.257812c-19.113281 0-45.644531 5.054688-76.753906 15.378907 2.980468 16.777343 5.042968 33.703125 6.179687 50.703125 15.027344 9.4375 29.019531 19.117187 41.730469 28.796875 5.710938-4.570313 11.140625-9.148438 16.28125-13.738281 24.769531-22.125 40.46875-42.582032 44.203125-57.597657 1.433594-5.777343 1.015625-10.277343-1.285156-13.765625-4.265625-6.472656-14.882813-9.777344-30.355469-9.777344zm0 0"/><path d="m305 205.601562c-5.125-4.582031-10.554688-9.164062-16.28125-13.738281-12.710938 9.683594-26.699219 19.363281-41.730469 28.796875-1.136719 17.003906-3.199219 33.933594-6.179687 50.710938 56.300781 18.683594 97.566406 20.074218 107.113281 5.589844 2.300781-3.488282 2.714844-7.992188 1.28125-13.765626-3.734375-15.015624-19.433594-35.472656-44.203125-57.59375zm0 0"/><path d="m125.300781 280.613281c2.445313 11.664063 5.609375 23.164063 9.476563 34.433594 11.125 31.90625 26.167968 50.953125 40.238281 50.953125s29.113281-19.046875 40.238281-50.953125c3.867188-11.269531 7.03125-22.769531 9.476563-34.433594-16.121094-5.8125-32.820313-12.757812-49.714844-20.683593-16.894531 7.925781-33.59375 14.871093-49.714844 20.683593zm0 0"/><path d="m191.316406 252.007812c12.488282 5.585938 24.570313 10.476563 36.117188 14.695313 2.058594-11.800781 3.667968-24.207031 4.808594-37.050781-6.429688 3.808594-13.015626 7.554687-19.757813 11.246094-7.050781 3.859374-14.105469 7.5625-21.167969 11.109374zm0 0"/><path d="m2.117188 89.042969c-2.300782 3.484375-2.71875 7.988281-1.285157 13.765625 3.734375 15.011718 19.433594 35.46875 44.203125 57.597656 5.128906 4.582031 10.554688 9.160156 16.28125 13.738281 12.710938-9.683593 26.703125-19.363281 41.730469-28.800781 1.136719-17 3.199219-33.929688 6.179687-50.707031-56.304687-18.6875-97.574218-20.078125-107.109374-5.59375zm0 0"/><path d="m212.480469 125.101562c6.734375 3.683594 13.320312 7.433594 19.757812 11.246094-1.140625-12.84375-2.75-25.25-4.808593-37.050781-11.542969 4.21875-23.625 9.113281-36.113282 14.699219 7.054688 3.546875 14.109375 7.246094 21.164063 11.105468zm0 0"/><path d="m72.757812 183c9.226563 6.914062 19.050782 13.765625 29.382813 20.488281-.25-6.761719-.375-13.589843-.375-20.488281-.003906-6.898438.121094-13.726562.375-20.488281-10.332031 6.722656-20.15625 13.574219-29.382813 20.488281zm0 0"/><path d="m224.730469 85.386719c-2.445313-11.664063-5.609375-23.164063-9.476563-34.433594-11.125-31.90625-26.167968-50.953125-40.238281-50.953125s-29.113281 19.046875-40.238281 50.953125c-3.867188 11.269531-7.03125 22.769531-9.476563 34.433594 16.121094 5.8125 32.820313 12.757812 49.714844 20.683593 16.894531-7.925781 33.59375-14.871093 49.714844-20.683593zm0 0"/><path d="m158.714844 113.992188c-12.488282-5.585938-24.570313-10.476563-36.117188-14.695313-2.058594 11.800781-3.667968 24.207031-4.808594 37.050781 6.433594-3.808594 13.019532-7.558594 19.757813-11.246094 7.050781-3.859374 14.109375-7.5625 21.167969-11.109374zm0 0"/><path d="m137.550781 240.898438c-6.734375-3.683594-13.320312-7.433594-19.757812-11.246094 1.140625 12.84375 2.75 25.25 4.808593 37.050781 11.546876-4.21875 23.628907-9.109375 36.117188-14.695313-7.054688-3.546874-14.109375-7.25-21.167969-11.109374zm0 0"/><path d="m61.316406 191.855469c-5.714844 4.570312-11.140625 9.152343-16.285156 13.738281-24.769531 22.128906-40.464844 42.585938-44.199219 57.601562-1.4375 5.773438-1.015625 10.277344 1.285157 13.765626 9.542968 14.484374 50.808593 13.097656 107.113281-5.589844-2.980469-16.777344-5.046875-33.707032-6.183594-50.707032-15.03125-9.445312-29.023437-19.121093-41.730469-28.808593zm0 0"/></svg>