<svg version="1.1" xmlns="http://www.w3.org/2000/svg" xmlns:xlink="http://www.w3.org/1999/xlink">
    <symbol id="sun-01" viewBox="0 0 64 64">
        <path d="m475.96875 384h-32c8.839844 0 16-7.160156 16-16 0-8.832031-7.160156-16-16-16h-32c8.839844 0 16-7.160156 16-16 0-8.832031-7.160156-16-16-16h-48c8.839844 0 16-7.160156 16-16 0-8.832031-7.160156-16-16-16h88c8.839844 0 16-7.160156 16-16 0-8.832031-7.160156-16-16-16h-40c8.839844 0 16-7.160156 16-16 0-8.832031-7.160156-16-16-16h-16c8.839844 0 16-7.160156 16-16 0-8.832031-7.160156-16-16-16h80c8.839844 0 16-7.160156 16-16 0-8.832031-7.160156-16-16-16h-32c8.839844 0 16-7.160156 16-16 0-8.832031-7.160156-16-16-16h-32c8.839844 0 16-7.160156 16-16 0-8.832031-7.160156-16-16-16h-24c8.839844 0 16-7.160156 16-16 0-8.832031-7.160156-16-16-16h-240c-8.832031 0-16 7.167969-16 16 0 8.839844 7.167969 16 16 16h-56c-8.832031 0-16 7.167969-16 16 0 8.839844 7.167969 16 16 16h-16c-8.832031 0-16 7.167969-16 16 0 8.839844 7.167969 16 16 16h48c-8.832031 0-16 7.167969-16 16 0 8.839844 7.167969 16 16 16h-88c-8.832031 0-16 7.167969-16 16 0 8.839844 7.167969 16 16 16h40c-8.832031 0-16 7.167969-16 16 0 8.839844 7.167969 16 16 16h-40c-8.832031 0-16 7.167969-16 16 0 8.839844 7.167969 16 16 16h-16c-8.832031 0-16 7.167969-16 16 0 8.839844 7.167969 16 16 16h40c-8.832031 0-16 7.167969-16 16 0 8.839844 7.167969 16 16 16h-16c-8.832031 0-16 7.167969-16 16 0 8.839844 7.167969 16 16 16h80c-8.832031 0-16 7.167969-16 16 0 8.839844 7.167969 16 16 16h-32c-8.832031 0-16 7.167969-16 16 0 8.839844 7.167969 16 16 16h272c8.839844 0 16-7.160156 16-16 0-8.832031-7.160156-16-16-16h112c8.839844 0 16-7.160156 16-16 0-8.832031-7.152344-16-16-16zm0 0"
              fill="#656d78"/>
        <path d="m398.816406 265.871094 13.183594-9.902344-13.183594-9.855469 11.769532-11.539062-14.347657-8.070313 10.167969-12.992187-15.292969-6.105469 8.390625-14.191406-15.9375-4.070313 6.464844-15.175781-16.34375-1.96875 4.425781-15.839844-16.496093.152344 2.34375-16.3125-16.304688 2.34375.144531-16.472656-15.832031 4.441406-1.984375-16.359375-15.152344 6.472656-4.097656-15.96875-14.167969 8.398438-6.109375-15.296875-12.984375 10.175781-8.097656-14.359375-11.527344 11.792969-9.878906-13.167969-9.871094 13.183594-11.511718-11.777344-8.097657 14.378906-12.953125-10.191406-6.144531 15.292969-14.167969-8.398438-4.078125 15.953125-15.160156-6.457031-1.984375 16.359375-15.855469-4.457031.183594 16.488281-16.3125-2.34375 2.359375 16.3125-16.496094-.183594 4.449219 15.871094-16.359375 1.96875 6.457031 15.144531-15.953125 4.101563 8.421875 14.160156-15.308593 6.152344 10.183593 12.953125-14.378906 8.097656 11.800781 11.519531-13.191406 9.871094 13.191406 9.871094-11.800781 11.535156 14.378906 8.082031-10.167969 12.96875 15.277344 6.101563-8.390625 14.195312 15.953125 4.078125-6.457031 15.152344 16.359375 1.984375-4.449219 15.847656 16.480469-.160156-2.34375 16.296875 16.3125-2.34375-.183594 16.488281 15.871094-4.425781 1.96875 16.34375 15.144531-6.472656 4.113281 15.945312 14.148438-8.375 6.144531 15.292969 12.96875-10.191406 8.082031 14.34375 11.496094-11.742188 9.871094 13.183594 9.894531-13.183594 11.511719 11.757813 8.097656-14.34375 12.984375 10.175781 6.09375-15.292969 14.203125 8.398438 4.0625-15.953125 15.167969 6.488281 1.976563-16.359375 15.855468 4.441406-.175781-16.503906 16.328125 2.34375-2.351562-16.3125 16.496093.160156-4.441406-15.847656 16.375-1.984375-6.496094-15.152344 15.96875-4.097656-8.40625-14.175781 15.292969-6.117188-10.183594-12.953125 14.363282-8.113281zm0 0"
              fill="#f6bb42"/>
        <path d="m388 256c0 77.320312-62.679688 140-140 140s-140-62.679688-140-140 62.679688-140 140-140 140 62.679688 140 140zm0 0"
              fill="#ffce54"/>
        <path d="m428.257812 40c-2.21875 0-4.050781-1.792969-4.050781-4s1.753907-4 3.953125-4h.097656c2.199219 0 4 1.792969 4 4s-1.800781 4-4 4zm0 0"
              fill="#e6e9ed"/>
        <path d="m52.257812 64c-2.226562 0-4.050781-1.792969-4.050781-4s1.753907-4 3.953125-4h.097656c2.199219 0 4 1.792969 4 4s-1.800781 4-4 4zm0 0"
              fill="#e6e9ed"/>
        <path d="m68.257812 496c-2.21875 0-4.050781-1.792969-4.050781-4s1.753907-4 3.953125-4h.097656c2.199219 0 4 1.792969 4 4s-1.800781 4-4 4zm0 0"
              fill="#e6e9ed"/>
        <path d="m484.257812 160c-2.21875 0-4.050781-1.785156-4.050781-4 0-2.199219 1.753907-4 3.953125-4h.097656c2.199219 0 4 1.800781 4 4 0 2.214844-1.800781 4-4 4zm0 0"
              fill="#e6e9ed"/>
        <path d="m492.257812 80c-2.21875 0-4.050781-1.792969-4.050781-4s1.753907-4 3.953125-4h.097656c2.199219 0 4 1.792969 4 4s-1.800781 4-4 4zm0 0"
              fill="#e6e9ed"/>
        <path d="m340.257812 512c-2.21875 0-4.050781-1.792969-4.050781-4s1.753907-4 3.953125-4h.097656c2.199219 0 4 1.792969 4 4s-1.800781 4-4 4zm0 0"
              fill="#e6e9ed"/>
        <path d="m20.257812 432c-2.21875 0-4.050781-1.792969-4.050781-4s1.753907-4 3.953125-4h.097656c2.199219 0 4 1.792969 4 4s-1.800781 4-4 4zm0 0"
              fill="#e6e9ed"/>
        <g fill="#f6bb42">
            <path d="m120.222656 308c-2.214844 0-4.046875-1.792969-4.046875-4s1.753907-4 3.953125-4h.09375c2.203125 0 4 1.792969 4 4s-1.796875 4-4 4zm0 0"/>
            <path d="m136.222656 324c-2.214844 0-4.046875-1.792969-4.046875-4s1.753907-4 3.953125-4h.09375c2.203125 0 4 1.792969 4 4s-1.796875 4-4 4zm0 0"/>
            <path d="m152.222656 340c-2.214844 0-4.046875-1.792969-4.046875-4s1.753907-4 3.953125-4h.09375c2.203125 0 4 1.792969 4 4s-1.796875 4-4 4zm0 0"/>
            <path d="m168.222656 356c-2.214844 0-4.046875-1.792969-4.046875-4s1.753907-4 3.953125-4h.09375c2.203125 0 4 1.792969 4 4s-1.796875 4-4 4zm0 0"/>
            <path d="m184.222656 372c-2.214844 0-4.046875-1.792969-4.046875-4s1.753907-4 3.953125-4h.09375c2.203125 0 4 1.792969 4 4s-1.796875 4-4 4zm0 0"/>
            <path d="m200.222656 388c-2.214844 0-4.046875-1.792969-4.046875-4s1.753907-4 3.953125-4h.09375c2.203125 0 4 1.792969 4 4s-1.796875 4-4 4zm0 0"/>
            <path d="m120.222656 276c-2.214844 0-4.046875-1.792969-4.046875-4s1.753907-4 3.953125-4h.09375c2.203125 0 4 1.792969 4 4s-1.796875 4-4 4zm0 0"/>
            <path d="m136.222656 292c-2.214844 0-4.046875-1.792969-4.046875-4s1.753907-4 3.953125-4h.09375c2.203125 0 4 1.792969 4 4s-1.796875 4-4 4zm0 0"/>
            <path d="m152.222656 308c-2.214844 0-4.046875-1.792969-4.046875-4s1.753907-4 3.953125-4h.09375c2.203125 0 4 1.792969 4 4s-1.796875 4-4 4zm0 0"/>
            <path d="m168.222656 324c-2.214844 0-4.046875-1.792969-4.046875-4s1.753907-4 3.953125-4h.09375c2.203125 0 4 1.792969 4 4s-1.796875 4-4 4zm0 0"/>
            <path d="m184.222656 340c-2.214844 0-4.046875-1.792969-4.046875-4s1.753907-4 3.953125-4h.09375c2.203125 0 4 1.792969 4 4s-1.796875 4-4 4zm0 0"/>
            <path d="m200.222656 356c-2.214844 0-4.046875-1.792969-4.046875-4s1.753907-4 3.953125-4h.09375c2.203125 0 4 1.792969 4 4s-1.796875 4-4 4zm0 0"/>
            <path d="m216.222656 372c-2.214844 0-4.046875-1.792969-4.046875-4s1.753907-4 3.953125-4h.09375c2.203125 0 4 1.792969 4 4s-1.796875 4-4 4zm0 0"/>
            <path d="m232.222656 388c-2.214844 0-4.046875-1.792969-4.046875-4s1.753907-4 3.953125-4h.09375c2.203125 0 4 1.792969 4 4s-1.796875 4-4 4zm0 0"/>
            <path d="m120.222656 244c-2.214844 0-4.046875-1.785156-4.046875-4 0-2.199219 1.753907-4 3.953125-4h.09375c2.203125 0 4 1.800781 4 4 0 2.214844-1.796875 4-4 4zm0 0"/>
            <path d="m136.222656 260c-2.214844 0-4.046875-1.785156-4.046875-4 0-2.199219 1.753907-4 3.953125-4h.09375c2.203125 0 4 1.800781 4 4 0 2.214844-1.796875 4-4 4zm0 0"/>
            <path d="m152.222656 276c-2.214844 0-4.046875-1.792969-4.046875-4s1.753907-4 3.953125-4h.09375c2.203125 0 4 1.792969 4 4s-1.796875 4-4 4zm0 0"/>
            <path d="m168.222656 292c-2.214844 0-4.046875-1.792969-4.046875-4s1.753907-4 3.953125-4h.09375c2.203125 0 4 1.792969 4 4s-1.796875 4-4 4zm0 0"/>
            <path d="m184.222656 308c-2.214844 0-4.046875-1.792969-4.046875-4s1.753907-4 3.953125-4h.09375c2.203125 0 4 1.792969 4 4s-1.796875 4-4 4zm0 0"/>
            <path d="m200.222656 324c-2.214844 0-4.046875-1.792969-4.046875-4s1.753907-4 3.953125-4h.09375c2.203125 0 4 1.792969 4 4s-1.796875 4-4 4zm0 0"/>
            <path d="m216.222656 340c-2.214844 0-4.046875-1.792969-4.046875-4s1.753907-4 3.953125-4h.09375c2.203125 0 4 1.792969 4 4s-1.796875 4-4 4zm0 0"/>
            <path d="m232.222656 356c-2.214844 0-4.046875-1.792969-4.046875-4s1.753907-4 3.953125-4h.09375c2.203125 0 4 1.792969 4 4s-1.796875 4-4 4zm0 0"/>
            <path d="m248.222656 372c-2.214844 0-4.046875-1.792969-4.046875-4s1.753907-4 3.953125-4h.09375c2.203125 0 4 1.792969 4 4s-1.796875 4-4 4zm0 0"/>
            <path d="m264.222656 388c-2.214844 0-4.046875-1.792969-4.046875-4s1.753907-4 3.953125-4h.09375c2.203125 0 4 1.792969 4 4s-1.796875 4-4 4zm0 0"/>
            <path d="m296.222656 388c-2.214844 0-4.046875-1.792969-4.046875-4s1.753907-4 3.953125-4h.09375c2.203125 0 4 1.792969 4 4s-1.796875 4-4 4zm0 0"/>
            <path d="m120.222656 212c-2.214844 0-4.046875-1.785156-4.046875-4 0-2.199219 1.753907-4 3.953125-4h.09375c2.203125 0 4 1.800781 4 4 0 2.214844-1.796875 4-4 4zm0 0"/>
            <path d="m136.222656 228c-2.214844 0-4.046875-1.785156-4.046875-4 0-2.199219 1.753907-4 3.953125-4h.09375c2.203125 0 4 1.800781 4 4 0 2.214844-1.796875 4-4 4zm0 0"/>
            <path d="m152.222656 244c-2.214844 0-4.046875-1.785156-4.046875-4 0-2.199219 1.753907-4 3.953125-4h.09375c2.203125 0 4 1.800781 4 4 0 2.214844-1.796875 4-4 4zm0 0"/>
            <path d="m168.222656 260c-2.214844 0-4.046875-1.785156-4.046875-4 0-2.199219 1.753907-4 3.953125-4h.09375c2.203125 0 4 1.800781 4 4 0 2.214844-1.796875 4-4 4zm0 0"/>
            <path d="m184.222656 276c-2.214844 0-4.046875-1.792969-4.046875-4s1.753907-4 3.953125-4h.09375c2.203125 0 4 1.792969 4 4s-1.796875 4-4 4zm0 0"/>
            <path d="m200.222656 292c-2.214844 0-4.046875-1.792969-4.046875-4s1.753907-4 3.953125-4h.09375c2.203125 0 4 1.792969 4 4s-1.796875 4-4 4zm0 0"/>
            <path d="m216.222656 308c-2.214844 0-4.046875-1.792969-4.046875-4s1.753907-4 3.953125-4h.09375c2.203125 0 4 1.792969 4 4s-1.796875 4-4 4zm0 0"/>
            <path d="m232.222656 324c-2.214844 0-4.046875-1.792969-4.046875-4s1.753907-4 3.953125-4h.09375c2.203125 0 4 1.792969 4 4s-1.796875 4-4 4zm0 0"/>
            <path d="m248.222656 340c-2.214844 0-4.046875-1.792969-4.046875-4s1.753907-4 3.953125-4h.09375c2.203125 0 4 1.792969 4 4s-1.796875 4-4 4zm0 0"/>
            <path d="m264.222656 356c-2.214844 0-4.046875-1.792969-4.046875-4s1.753907-4 3.953125-4h.09375c2.203125 0 4 1.792969 4 4s-1.796875 4-4 4zm0 0"/>
            <path d="m280.222656 372c-2.214844 0-4.046875-1.792969-4.046875-4s1.753907-4 3.953125-4h.09375c2.203125 0 4 1.792969 4 4s-1.796875 4-4 4zm0 0"/>
            <path d="m136.222656 196c-2.214844 0-4.046875-1.785156-4.046875-4 0-2.199219 1.753907-4 3.953125-4h.09375c2.203125 0 4 1.800781 4 4 0 2.214844-1.796875 4-4 4zm0 0"/>
            <path d="m152.222656 212c-2.214844 0-4.046875-1.785156-4.046875-4 0-2.199219 1.753907-4 3.953125-4h.09375c2.203125 0 4 1.800781 4 4 0 2.214844-1.796875 4-4 4zm0 0"/>
            <path d="m168.222656 228c-2.214844 0-4.046875-1.785156-4.046875-4 0-2.199219 1.753907-4 3.953125-4h.09375c2.203125 0 4 1.800781 4 4 0 2.214844-1.796875 4-4 4zm0 0"/>
            <path d="m184.222656 244c-2.214844 0-4.046875-1.785156-4.046875-4 0-2.199219 1.753907-4 3.953125-4h.09375c2.203125 0 4 1.800781 4 4 0 2.214844-1.796875 4-4 4zm0 0"/>
            <path d="m200.222656 260c-2.214844 0-4.046875-1.785156-4.046875-4 0-2.199219 1.753907-4 3.953125-4h.09375c2.203125 0 4 1.800781 4 4 0 2.214844-1.796875 4-4 4zm0 0"/>
            <path d="m216.222656 276c-2.214844 0-4.046875-1.792969-4.046875-4s1.753907-4 3.953125-4h.09375c2.203125 0 4 1.792969 4 4s-1.796875 4-4 4zm0 0"/>
            <path d="m232.222656 292c-2.214844 0-4.046875-1.792969-4.046875-4s1.753907-4 3.953125-4h.09375c2.203125 0 4 1.792969 4 4s-1.796875 4-4 4zm0 0"/>
            <path d="m248.222656 308c-2.214844 0-4.046875-1.792969-4.046875-4s1.753907-4 3.953125-4h.09375c2.203125 0 4 1.792969 4 4s-1.796875 4-4 4zm0 0"/>
            <path d="m264.222656 324c-2.214844 0-4.046875-1.792969-4.046875-4s1.753907-4 3.953125-4h.09375c2.203125 0 4 1.792969 4 4s-1.796875 4-4 4zm0 0"/>
            <path d="m280.222656 340c-2.214844 0-4.046875-1.792969-4.046875-4s1.753907-4 3.953125-4h.09375c2.203125 0 4 1.792969 4 4s-1.796875 4-4 4zm0 0"/>
            <path d="m296.222656 356c-2.214844 0-4.046875-1.792969-4.046875-4s1.753907-4 3.953125-4h.09375c2.203125 0 4 1.792969 4 4s-1.796875 4-4 4zm0 0"/>
            <path d="m312.222656 372c-2.214844 0-4.046875-1.792969-4.046875-4s1.753907-4 3.953125-4h.09375c2.203125 0 4 1.792969 4 4s-1.796875 4-4 4zm0 0"/>
            <path d="m152.222656 180c-2.214844 0-4.046875-1.785156-4.046875-4 0-2.199219 1.753907-4 3.953125-4h.09375c2.203125 0 4 1.800781 4 4 0 2.214844-1.796875 4-4 4zm0 0"/>
            <path d="m168.222656 196c-2.214844 0-4.046875-1.785156-4.046875-4 0-2.199219 1.753907-4 3.953125-4h.09375c2.203125 0 4 1.800781 4 4 0 2.214844-1.796875 4-4 4zm0 0"/>
            <path d="m184.222656 212c-2.214844 0-4.046875-1.785156-4.046875-4 0-2.199219 1.753907-4 3.953125-4h.09375c2.203125 0 4 1.800781 4 4 0 2.214844-1.796875 4-4 4zm0 0"/>
            <path d="m200.222656 228c-2.214844 0-4.046875-1.785156-4.046875-4 0-2.199219 1.753907-4 3.953125-4h.09375c2.203125 0 4 1.800781 4 4 0 2.214844-1.796875 4-4 4zm0 0"/>
            <path d="m216.222656 244c-2.214844 0-4.046875-1.785156-4.046875-4 0-2.199219 1.753907-4 3.953125-4h.09375c2.203125 0 4 1.800781 4 4 0 2.214844-1.796875 4-4 4zm0 0"/>
            <path d="m232.222656 260c-2.214844 0-4.046875-1.785156-4.046875-4 0-2.199219 1.753907-4 3.953125-4h.09375c2.203125 0 4 1.800781 4 4 0 2.214844-1.796875 4-4 4zm0 0"/>
            <path d="m248.222656 276c-2.214844 0-4.046875-1.792969-4.046875-4s1.753907-4 3.953125-4h.09375c2.203125 0 4 1.792969 4 4s-1.796875 4-4 4zm0 0"/>
            <path d="m264.222656 292c-2.214844 0-4.046875-1.792969-4.046875-4s1.753907-4 3.953125-4h.09375c2.203125 0 4 1.792969 4 4s-1.796875 4-4 4zm0 0"/>
            <path d="m280.222656 308c-2.214844 0-4.046875-1.792969-4.046875-4s1.753907-4 3.953125-4h.09375c2.203125 0 4 1.792969 4 4s-1.796875 4-4 4zm0 0"/>
            <path d="m296.222656 324c-2.214844 0-4.046875-1.792969-4.046875-4s1.753907-4 3.953125-4h.09375c2.203125 0 4 1.792969 4 4s-1.796875 4-4 4zm0 0"/>
            <path d="m312.222656 340c-2.214844 0-4.046875-1.792969-4.046875-4s1.753907-4 3.953125-4h.09375c2.203125 0 4 1.792969 4 4s-1.796875 4-4 4zm0 0"/>
            <path d="m328.222656 356c-2.214844 0-4.046875-1.792969-4.046875-4s1.753907-4 3.953125-4h.09375c2.203125 0 4 1.792969 4 4s-1.796875 4-4 4zm0 0"/>
            <path d="m168.222656 164c-2.214844 0-4.046875-1.785156-4.046875-4 0-2.199219 1.753907-4 3.953125-4h.09375c2.203125 0 4 1.800781 4 4 0 2.214844-1.796875 4-4 4zm0 0"/>
            <path d="m184.222656 180c-2.214844 0-4.046875-1.785156-4.046875-4 0-2.199219 1.753907-4 3.953125-4h.09375c2.203125 0 4 1.800781 4 4 0 2.214844-1.796875 4-4 4zm0 0"/>
            <path d="m200.222656 196c-2.214844 0-4.046875-1.785156-4.046875-4 0-2.199219 1.753907-4 3.953125-4h.09375c2.203125 0 4 1.800781 4 4 0 2.214844-1.796875 4-4 4zm0 0"/>
            <path d="m216.222656 212c-2.214844 0-4.046875-1.785156-4.046875-4 0-2.199219 1.753907-4 3.953125-4h.09375c2.203125 0 4 1.800781 4 4 0 2.214844-1.796875 4-4 4zm0 0"/>
            <path d="m232.222656 228c-2.214844 0-4.046875-1.785156-4.046875-4 0-2.199219 1.753907-4 3.953125-4h.09375c2.203125 0 4 1.800781 4 4 0 2.214844-1.796875 4-4 4zm0 0"/>
            <path d="m248.222656 244c-2.214844 0-4.046875-1.785156-4.046875-4 0-2.199219 1.753907-4 3.953125-4h.09375c2.203125 0 4 1.800781 4 4 0 2.214844-1.796875 4-4 4zm0 0"/>
            <path d="m264.222656 260c-2.214844 0-4.046875-1.785156-4.046875-4 0-2.199219 1.753907-4 3.953125-4h.09375c2.203125 0 4 1.800781 4 4 0 2.214844-1.796875 4-4 4zm0 0"/>
            <path d="m280.222656 276c-2.214844 0-4.046875-1.792969-4.046875-4s1.753907-4 3.953125-4h.09375c2.203125 0 4 1.792969 4 4s-1.796875 4-4 4zm0 0"/>
            <path d="m296.222656 292c-2.214844 0-4.046875-1.792969-4.046875-4s1.753907-4 3.953125-4h.09375c2.203125 0 4 1.792969 4 4s-1.796875 4-4 4zm0 0"/>
            <path d="m312.222656 308c-2.214844 0-4.046875-1.792969-4.046875-4s1.753907-4 3.953125-4h.09375c2.203125 0 4 1.792969 4 4s-1.796875 4-4 4zm0 0"/>
            <path d="m328.222656 324c-2.214844 0-4.046875-1.792969-4.046875-4s1.753907-4 3.953125-4h.09375c2.203125 0 4 1.792969 4 4s-1.796875 4-4 4zm0 0"/>
            <path d="m344.222656 340c-2.214844 0-4.046875-1.792969-4.046875-4s1.753907-4 3.953125-4h.09375c2.203125 0 4 1.792969 4 4s-1.796875 4-4 4zm0 0"/>
            <path d="m184.222656 148c-2.214844 0-4.046875-1.785156-4.046875-4 0-2.199219 1.753907-4 3.953125-4h.09375c2.203125 0 4 1.800781 4 4 0 2.214844-1.796875 4-4 4zm0 0"/>
            <path d="m200.222656 164c-2.214844 0-4.046875-1.785156-4.046875-4 0-2.199219 1.753907-4 3.953125-4h.09375c2.203125 0 4 1.800781 4 4 0 2.214844-1.796875 4-4 4zm0 0"/>
            <path d="m216.222656 180c-2.214844 0-4.046875-1.785156-4.046875-4 0-2.199219 1.753907-4 3.953125-4h.09375c2.203125 0 4 1.800781 4 4 0 2.214844-1.796875 4-4 4zm0 0"/>
            <path d="m232.222656 196c-2.214844 0-4.046875-1.785156-4.046875-4 0-2.199219 1.753907-4 3.953125-4h.09375c2.203125 0 4 1.800781 4 4 0 2.214844-1.796875 4-4 4zm0 0"/>
            <path d="m248.222656 212c-2.214844 0-4.046875-1.785156-4.046875-4 0-2.199219 1.753907-4 3.953125-4h.09375c2.203125 0 4 1.800781 4 4 0 2.214844-1.796875 4-4 4zm0 0"/>
            <path d="m264.222656 228c-2.214844 0-4.046875-1.785156-4.046875-4 0-2.199219 1.753907-4 3.953125-4h.09375c2.203125 0 4 1.800781 4 4 0 2.214844-1.796875 4-4 4zm0 0"/>
            <path d="m280.222656 244c-2.214844 0-4.046875-1.785156-4.046875-4 0-2.199219 1.753907-4 3.953125-4h.09375c2.203125 0 4 1.800781 4 4 0 2.214844-1.796875 4-4 4zm0 0"/>
            <path d="m296.222656 260c-2.214844 0-4.046875-1.785156-4.046875-4 0-2.199219 1.753907-4 3.953125-4h.09375c2.203125 0 4 1.800781 4 4 0 2.214844-1.796875 4-4 4zm0 0"/>
            <path d="m312.222656 276c-2.214844 0-4.046875-1.792969-4.046875-4s1.753907-4 3.953125-4h.09375c2.203125 0 4 1.792969 4 4s-1.796875 4-4 4zm0 0"/>
            <path d="m328.222656 292c-2.214844 0-4.046875-1.792969-4.046875-4s1.753907-4 3.953125-4h.09375c2.203125 0 4 1.792969 4 4s-1.796875 4-4 4zm0 0"/>
            <path d="m344.222656 308c-2.214844 0-4.046875-1.792969-4.046875-4s1.753907-4 3.953125-4h.09375c2.203125 0 4 1.792969 4 4s-1.796875 4-4 4zm0 0"/>
            <path d="m376.222656 308c-2.214844 0-4.046875-1.792969-4.046875-4s1.753907-4 3.953125-4h.09375c2.203125 0 4 1.792969 4 4s-1.796875 4-4 4zm0 0"/>
            <path d="m360.222656 324c-2.214844 0-4.046875-1.792969-4.046875-4s1.753907-4 3.953125-4h.09375c2.203125 0 4 1.792969 4 4s-1.796875 4-4 4zm0 0"/>
            <path d="m200.222656 132c-2.214844 0-4.046875-1.785156-4.046875-4 0-2.199219 1.753907-4 3.953125-4h.09375c2.203125 0 4 1.800781 4 4 0 2.214844-1.796875 4-4 4zm0 0"/>
            <path d="m216.222656 148c-2.214844 0-4.046875-1.785156-4.046875-4 0-2.199219 1.753907-4 3.953125-4h.09375c2.203125 0 4 1.800781 4 4 0 2.214844-1.796875 4-4 4zm0 0"/>
            <path d="m232.222656 164c-2.214844 0-4.046875-1.785156-4.046875-4 0-2.199219 1.753907-4 3.953125-4h.09375c2.203125 0 4 1.800781 4 4 0 2.214844-1.796875 4-4 4zm0 0"/>
            <path d="m248.222656 180c-2.214844 0-4.046875-1.785156-4.046875-4 0-2.199219 1.753907-4 3.953125-4h.09375c2.203125 0 4 1.800781 4 4 0 2.214844-1.796875 4-4 4zm0 0"/>
            <path d="m264.222656 196c-2.214844 0-4.046875-1.785156-4.046875-4 0-2.199219 1.753907-4 3.953125-4h.09375c2.203125 0 4 1.800781 4 4 0 2.214844-1.796875 4-4 4zm0 0"/>
            <path d="m280.222656 212c-2.214844 0-4.046875-1.785156-4.046875-4 0-2.199219 1.753907-4 3.953125-4h.09375c2.203125 0 4 1.800781 4 4 0 2.214844-1.796875 4-4 4zm0 0"/>
            <path d="m296.222656 228c-2.214844 0-4.046875-1.785156-4.046875-4 0-2.199219 1.753907-4 3.953125-4h.09375c2.203125 0 4 1.800781 4 4 0 2.214844-1.796875 4-4 4zm0 0"/>
            <path d="m312.222656 244c-2.214844 0-4.046875-1.785156-4.046875-4 0-2.199219 1.753907-4 3.953125-4h.09375c2.203125 0 4 1.800781 4 4 0 2.214844-1.796875 4-4 4zm0 0"/>
            <path d="m328.222656 260c-2.214844 0-4.046875-1.785156-4.046875-4 0-2.199219 1.753907-4 3.953125-4h.09375c2.203125 0 4 1.800781 4 4 0 2.214844-1.796875 4-4 4zm0 0"/>
            <path d="m344.222656 276c-2.214844 0-4.046875-1.792969-4.046875-4s1.753907-4 3.953125-4h.09375c2.203125 0 4 1.792969 4 4s-1.796875 4-4 4zm0 0"/>
            <path d="m360.222656 292c-2.214844 0-4.046875-1.792969-4.046875-4s1.753907-4 3.953125-4h.09375c2.203125 0 4 1.792969 4 4s-1.796875 4-4 4zm0 0"/>
            <path d="m232.222656 132c-2.214844 0-4.046875-1.785156-4.046875-4 0-2.199219 1.753907-4 3.953125-4h.09375c2.203125 0 4 1.800781 4 4 0 2.214844-1.796875 4-4 4zm0 0"/>
            <path d="m248.222656 148c-2.214844 0-4.046875-1.785156-4.046875-4 0-2.199219 1.753907-4 3.953125-4h.09375c2.203125 0 4 1.800781 4 4 0 2.214844-1.796875 4-4 4zm0 0"/>
            <path d="m264.222656 164c-2.214844 0-4.046875-1.785156-4.046875-4 0-2.199219 1.753907-4 3.953125-4h.09375c2.203125 0 4 1.800781 4 4 0 2.214844-1.796875 4-4 4zm0 0"/>
            <path d="m280.222656 180c-2.214844 0-4.046875-1.785156-4.046875-4 0-2.199219 1.753907-4 3.953125-4h.09375c2.203125 0 4 1.800781 4 4 0 2.214844-1.796875 4-4 4zm0 0"/>
            <path d="m296.222656 196c-2.214844 0-4.046875-1.785156-4.046875-4 0-2.199219 1.753907-4 3.953125-4h.09375c2.203125 0 4 1.800781 4 4 0 2.214844-1.796875 4-4 4zm0 0"/>
            <path d="m312.222656 212c-2.214844 0-4.046875-1.785156-4.046875-4 0-2.199219 1.753907-4 3.953125-4h.09375c2.203125 0 4 1.800781 4 4 0 2.214844-1.796875 4-4 4zm0 0"/>
            <path d="m328.222656 228c-2.214844 0-4.046875-1.785156-4.046875-4 0-2.199219 1.753907-4 3.953125-4h.09375c2.203125 0 4 1.800781 4 4 0 2.214844-1.796875 4-4 4zm0 0"/>
            <path d="m344.222656 244c-2.214844 0-4.046875-1.785156-4.046875-4 0-2.199219 1.753907-4 3.953125-4h.09375c2.203125 0 4 1.800781 4 4 0 2.214844-1.796875 4-4 4zm0 0"/>
            <path d="m360.222656 260c-2.214844 0-4.046875-1.785156-4.046875-4 0-2.199219 1.753907-4 3.953125-4h.09375c2.203125 0 4 1.800781 4 4 0 2.214844-1.796875 4-4 4zm0 0"/>
            <path d="m376.222656 276c-2.214844 0-4.046875-1.792969-4.046875-4s1.753907-4 3.953125-4h.09375c2.203125 0 4 1.792969 4 4s-1.796875 4-4 4zm0 0"/>
            <path d="m264.222656 132c-2.214844 0-4.046875-1.785156-4.046875-4 0-2.199219 1.753907-4 3.953125-4h.09375c2.203125 0 4 1.800781 4 4 0 2.214844-1.796875 4-4 4zm0 0"/>
            <path d="m280.222656 148c-2.214844 0-4.046875-1.785156-4.046875-4 0-2.199219 1.753907-4 3.953125-4h.09375c2.203125 0 4 1.800781 4 4 0 2.214844-1.796875 4-4 4zm0 0"/>
            <path d="m296.222656 164c-2.214844 0-4.046875-1.785156-4.046875-4 0-2.199219 1.753907-4 3.953125-4h.09375c2.203125 0 4 1.800781 4 4 0 2.214844-1.796875 4-4 4zm0 0"/>
            <path d="m312.222656 180c-2.214844 0-4.046875-1.785156-4.046875-4 0-2.199219 1.753907-4 3.953125-4h.09375c2.203125 0 4 1.800781 4 4 0 2.214844-1.796875 4-4 4zm0 0"/>
            <path d="m328.222656 196c-2.214844 0-4.046875-1.785156-4.046875-4 0-2.199219 1.753907-4 3.953125-4h.09375c2.203125 0 4 1.800781 4 4 0 2.214844-1.796875 4-4 4zm0 0"/>
            <path d="m344.222656 212c-2.214844 0-4.046875-1.785156-4.046875-4 0-2.199219 1.753907-4 3.953125-4h.09375c2.203125 0 4 1.800781 4 4 0 2.214844-1.796875 4-4 4zm0 0"/>
            <path d="m376.222656 212c-2.214844 0-4.046875-1.785156-4.046875-4 0-2.199219 1.753907-4 3.953125-4h.09375c2.203125 0 4 1.800781 4 4 0 2.214844-1.796875 4-4 4zm0 0"/>
            <path d="m360.222656 228c-2.214844 0-4.046875-1.785156-4.046875-4 0-2.199219 1.753907-4 3.953125-4h.09375c2.203125 0 4 1.800781 4 4 0 2.214844-1.796875 4-4 4zm0 0"/>
            <path d="m376.222656 244c-2.214844 0-4.046875-1.785156-4.046875-4 0-2.199219 1.753907-4 3.953125-4h.09375c2.203125 0 4 1.800781 4 4 0 2.214844-1.796875 4-4 4zm0 0"/>
            <path d="m296.222656 132c-2.214844 0-4.046875-1.785156-4.046875-4 0-2.199219 1.753907-4 3.953125-4h.09375c2.203125 0 4 1.800781 4 4 0 2.214844-1.796875 4-4 4zm0 0"/>
            <path d="m312.222656 148c-2.214844 0-4.046875-1.785156-4.046875-4 0-2.199219 1.753907-4 3.953125-4h.09375c2.203125 0 4 1.800781 4 4 0 2.214844-1.796875 4-4 4zm0 0"/>
            <path d="m328.222656 164c-2.214844 0-4.046875-1.785156-4.046875-4 0-2.199219 1.753907-4 3.953125-4h.09375c2.203125 0 4 1.800781 4 4 0 2.214844-1.796875 4-4 4zm0 0"/>
            <path d="m344.222656 180c-2.214844 0-4.046875-1.785156-4.046875-4 0-2.199219 1.753907-4 3.953125-4h.09375c2.203125 0 4 1.800781 4 4 0 2.214844-1.796875 4-4 4zm0 0"/>
            <path d="m360.222656 196c-2.214844 0-4.046875-1.785156-4.046875-4 0-2.199219 1.753907-4 3.953125-4h.09375c2.203125 0 4 1.800781 4 4 0 2.214844-1.796875 4-4 4zm0 0"/>
        </g>
        <path d="m232.03125 483.449219c-.109375 0-.199219 0-.296875-.007813-5.421875-.386718-10.871094-.960937-16.183594-1.722656-2.167969-.3125-3.703125-2.34375-3.390625-4.527344.3125-2.191406 2.375-3.648437 4.527344-3.390625 5.128906.734375 10.375 1.289063 15.609375 1.65625 2.199219.160157 3.871094 2.070313 3.71875 4.269531-.152344 2.105469-1.902344 3.722657-3.984375 3.722657zm-31.65625-4.511719c-.261719 0-.558594-.035156-.839844-.097656-50.574218-10.9375-96.421875-39.253906-129.078125-79.734375-1.394531-1.730469-1.128906-4.242188.589844-5.625 1.722656-1.390625 4.234375-1.128907 5.625.589843 31.511719 39.074219 75.753906 66.402344 124.542969 76.953126 2.167968.464843 3.527344 2.59375 3.066406 4.753906-.386719 1.878906-2.058594 3.160156-3.90625 3.160156zm175.378906-34.921875c-1.265625 0-2.507812-.601563-3.28125-1.71875-1.265625-1.824219-.816406-4.3125 1-5.570313 4.214844-2.917968 8.457032-6.085937 12.574219-9.414062 1.707031-1.375 4.21875-1.128906 5.625.609375 1.375 1.71875 1.113281 4.230469-.609375 5.621094-4.277344 3.441406-8.65625 6.730469-13.03125 9.761719-.6875.480468-1.480469.710937-2.277344.710937zm24.886719-20.0625c-1.082031 0-2.144531-.433594-2.9375-1.273437-1.503906-1.617188-1.40625-4.152344.199219-5.65625 36.738281-34.199219 60.832031-80.261719 67.859375-129.703126.308593-2.191406 2.375-3.664062 4.527343-3.398437 2.183594.308594 3.703126 2.335937 3.390626 4.519531-7.296876 51.238282-32.265626 98.984375-70.328126 134.4375-.75.722656-1.734374 1.074219-2.710937 1.074219zm-336.671875-36.152344c-1.265625 0-2.511719-.601562-3.28125-1.722656-3.113281-4.460937-6.078125-9.0625-8.816406-13.6875-1.144532-1.894531-.503906-4.351563 1.394531-5.480469 1.894531-1.125 4.359375-.511718 5.488281 1.402344 2.636719 4.457031 5.503906 8.894531 8.503906 13.199219 1.261719 1.816406.8125 4.304687-1 5.558593-.707031.488282-1.503906.730469-2.289062.730469zm407.457031-111.816406c-.113281 0-.203125 0-.296875-.007813-2.199218-.160156-3.855468-2.074218-3.703125-4.273437.359375-5.167969.542969-10.445313.542969-15.703125 0-2.199219 1.800781-4 4-4 2.214844 0 4 1.800781 4 4 0 5.449219-.183594 10.910156-.5625 16.265625-.148438 2.109375-1.902344 3.71875-3.980469 3.71875zm-445.203125-47.816406c-.183594 0-.375-.015625-.558594-.039063-2.183593-.3125-3.71875-2.335937-3.40625-4.519531.78125-5.394531 1.734376-10.785156 2.871094-16.015625.457032-2.160156 2.574219-3.539062 4.75-3.074219 2.160156.464844 3.527344 2.59375 3.066406 4.761719-1.097656 5.046875-2.015624 10.246094-2.769531 15.453125-.28125 2-2 3.433594-3.953125 3.433594zm6.746094-31.230469c-.375 0-.753906-.058594-1.128906-.167969-2.128906-.617187-3.34375-2.839843-2.71875-4.960937 14.542968-49.671875 46.0625-93.382813 88.75-123.097656 1.816406-1.246094 4.3125-.824219 5.5625 1 1.261718 1.816406.832031 4.3125-1 5.570312-41.1875 28.664062-71.609375 70.839844-85.640625 118.773438-.496094 1.746093-2.089844 2.882812-3.824219 2.882812zm421.976562-22.792969c-1.578124 0-3.066406-.921875-3.707031-2.472656-1.980469-4.800781-4.183593-9.601563-6.527343-14.257813-.984376-1.972656-.183594-4.375 1.785156-5.367187s4.375-.199219 5.375 1.785156c2.425781 4.832031 4.703125 9.800781 6.769531 14.785157.839844 2.046874-.128906 4.382812-2.160156 5.230468-.511719.199219-1.023438.296875-1.535157.296875zm-14.328124-28.535156c-1.359376 0-2.6875-.707031-3.441407-1.953125-25.625-43.097656-65.542969-76.433594-112.375-93.871094-2.082031-.777344-3.128906-3.082031-2.359375-5.152344.78125-2.074218 3.0625-3.105468 5.160156-2.351562 48.527344 18.078125 89.886719 52.621094 116.445313 97.277344 1.144531 1.890625.511719 4.351562-1.390625 5.488281-.640625.378906-1.34375.5625-2.039062.5625zm-307.015626-78.257813c-1.363281 0-2.691406-.695312-3.441406-1.953124-1.128906-1.894532-.503906-4.351563 1.390625-5.488282 4.640625-2.75 9.441407-5.382812 14.265625-7.8125 1.96875-.984375 4.375-.203125 5.375 1.78125.984375 1.976563.199219 4.378906-1.785156 5.367188-4.652344 2.347656-9.292969 4.882812-13.765625 7.539062-.640625.382813-1.34375.566406-2.039063.566406zm177.414063-22.359374c-.375 0-.75-.054688-1.128906-.167969-4.957031-1.449219-10.085938-2.753907-15.214844-3.863281-2.167969-.472657-3.527344-2.59375-3.0625-4.761719.453125-2.152344 2.558594-3.550781 4.75-3.0625 5.328125 1.160156 10.625 2.503906 15.785156 4.007812 2.113281.625 3.328125 2.839844 2.703125 4.96875-.503906 1.742188-2.09375 2.878907-3.832031 2.878907zm0 0"
              fill="#ffce54"/>
        <path d="m183.015625 440.734375c-.457031 0-.902344-.078125-1.359375-.230469-5.160156-1.855468-10.25-3.9375-15.128906-6.175781-2.015625-.921875-2.886719-3.296875-1.96875-5.304687.921875-2.007813 3.328125-2.871094 5.3125-1.960938 4.671875 2.152344 9.542968 4.144531 14.488281 5.914062 2.082031.75 3.160156 3.039063 2.425781 5.121094-.59375 1.621094-2.128906 2.636719-3.769531 2.636719zm147.863281-7.496094c-1.488281 0-2.917968-.832031-3.605468-2.269531-.953126-1.984375-.113282-4.375 1.871093-5.335938 4.671875-2.242187 9.328125-4.722656 13.832031-7.351562 1.886719-1.105469 4.34375-.480469 5.472657 1.429688 1.125 1.914062.488281 4.359374-1.425781 5.480468-4.6875 2.746094-9.527344 5.320313-14.421876 7.664063-.554687.265625-1.144531.382812-1.722656.382812zm-176.933594-5.796875c-.671874 0-1.34375-.167968-1.96875-.511718-45.441406-25.570313-79.359374-68.976563-93.066406-119.082032-.574218-2.136718.675782-4.328125 2.800782-4.910156 2.160156-.570312 4.34375.679688 4.921874 2.804688 13.144532 48.058593 45.671876 89.683593 89.261719 114.21875 1.9375 1.078124 2.609375 3.519531 1.53125 5.445312-.738281 1.296875-2.097656 2.035156-3.480469 2.035156zm204.480469-10.363281c-1.25 0-2.488281-.589844-3.265625-1.695313-1.265625-1.808593-.839844-4.304687.96875-5.574218 40.917969-28.816406 69.078125-73.503906 77.277344-122.617188.363281-2.183594 2.472656-3.695312 4.59375-3.289062 2.183594.371094 3.65625 2.425781 3.296875 4.601562-8.542969 51.207032-37.90625 97.808594-80.5625 127.847656-.703125.488282-1.511719.726563-2.308594.726563zm-299.25-121.871094c-1.886719 0-3.558593-1.34375-3.917969-3.269531-.984374-5.378906-1.769531-10.816406-2.296874-16.160156-.21875-2.203125 1.390624-4.167969 3.574218-4.378906 2.296875-.246094 4.160156 1.386718 4.375 3.578124.515625 5.136719 1.265625 10.34375 2.203125 15.503907.40625 2.167969-1.035156 4.253906-3.203125 4.65625-.238281.046875-.484375.070312-.734375.070312zm380.152344-19.230469c-.128906 0-.230469-.007812-.34375-.015624-2.199219-.175782-3.839844-2.121094-3.65625-4.3125.425781-5.136719.640625-10.402344.640625-15.648438 0-23.390625-4.234375-46.207031-12.59375-67.824219-.800781-2.054687.234375-4.375 2.28125-5.167969 2.0625-.792968 4.375.222657 5.183594 2.289063 8.703125 22.527344 13.128906 46.320313 13.128906 70.703125 0 5.472656-.214844 10.953125-.671875 16.304688-.167969 2.09375-1.921875 3.671874-3.96875 3.671874zm-18.609375-99.898437c-1.488281 0-2.902344-.832031-3.589844-2.246094-2.28125-4.671875-4.785156-9.296875-7.441406-13.769531-1.128906-1.902344-.503906-4.359375 1.390625-5.488281 1.90625-1.125 4.363281-.503907 5.488281 1.394531 2.785156 4.65625 5.378906 9.496094 7.753906 14.359375.96875 1.992187.144532 4.390625-1.839843 5.351563-.570313.273437-1.183594.398437-1.761719.398437zm-320.789062-38.324219c-.90625 0-1.816407-.296875-2.546876-.921875-1.703124-1.40625-1.949218-3.921875-.542968-5.625 3.457031-4.175781 7.144531-8.261719 10.921875-12.144531 1.542969-1.574219 4.078125-1.605469 5.652343-.0625 1.578126 1.542969 1.609376 4.078125.066407 5.65625-3.640625 3.71875-7.160157 7.632812-10.472657 11.640625-.800781.949219-1.945312 1.457031-3.078124 1.457031zm22.328124-22.875c-1.128906 0-2.234374-.472656-3.035156-1.382812-1.4375-1.664063-1.261718-4.183594.410156-5.640625 39.390626-34.152344 91.214844-51.253907 143.503907-47.28125 2.199219.167969 3.839843 2.089843 3.6875 4.289062-.167969 2.199219-2.160157 3.816407-4.296875 3.6875-50.0625-3.839843-99.871094 12.59375-137.65625 45.351563-.757813.65625-1.695313.976562-2.613282.976562zm172.101563-41.238281c-.3125 0-.640625-.039063-.953125-.121094-5.015625-1.238281-10.183594-2.296875-15.34375-3.128906-2.167969-.351563-3.65625-2.40625-3.308594-4.582031.34375-2.183594 2.421875-3.679688 4.574219-3.3125 5.390625.863281 10.769531 1.960937 16 3.257812 2.144531.535156 3.457031 2.703125 2.917969 4.847656-.445313 1.832032-2.085938 3.039063-3.886719 3.039063zm0 0"
              fill="#ffce54"/>
        <path d="m12 40c-2.199219 0-4-1.792969-4-4v-32c0-2.207031 1.800781-4 4-4 2.214844 0 4 1.792969 4 4v32c0 2.207031-1.777344 4-4 4zm0 0"
              fill="#e6e9ed"/>
        <path d="m20 24h-16c-2.199219 0-4-1.792969-4-4s1.800781-4 4-4h16c2.214844 0 4 1.792969 4 4s-1.777344 4-4 4zm0 0"
              fill="#e6e9ed"/>
        <path d="m468 456c-2.199219 0-4-1.792969-4-4v-32c0-2.207031 1.800781-4 4-4 2.214844 0 4 1.792969 4 4v32c0 2.207031-1.777344 4-4 4zm0 0"
              fill="#e6e9ed"/>
        <path d="m476 440h-16c-2.199219 0-4-1.792969-4-4s1.800781-4 4-4h16c2.214844 0 4 1.792969 4 4s-1.777344 4-4 4zm0 0"
              fill="#e6e9ed"/>
    </symbol>

    <symbol id="asteroid-01" viewBox="0 0 64 64">
        <path d="m443.121094 246.734375 1.265625 3.511719-.402344.167968-102.710937 64.242188-128.96875-51.601562 112.007812-67.199219zm-88.253906 10.886719c1.511718-4.167969-3.359376-9.839844-10.960938-12.726563-7.59375-2.871093-15.039062-1.832031-16.632812 2.242188-1.519532 4.167969 3.359374 9.839843 10.953124 12.71875 7.609376 2.878906 15.039063 1.917969 16.640626-2.234375zm0 0"
              fill="#ccd1d9"/>
        <path d="m343.90625 244.894531c7.601562 2.878907 12.480469 8.550781 10.960938 12.726563-1.601563 4.160156-9.03125 5.121094-16.640626 2.234375-7.59375-2.871094-12.480468-8.550781-10.953124-12.71875 1.59375-4.082031 9.039062-5.121094 16.632812-2.242188zm0 0"
              fill="#aab2bd"/>
        <path d="m444.386719 250.253906 38.328125 103.921875-59.601563 92.167969-.558593-.402344-81.273438-131.277344 102.710938-64.242187zm-20.5625 105.761719c3.832031-2.320313 4.089843-8.71875.640625-14.402344-3.4375-5.679687-9.277344-8.484375-13.039063-6.167969-3.769531 2.320313-4.078125 8.722657-.640625 14.394532 3.441406 5.695312 9.289063 8.421875 13.039063 6.175781zm0 0"
              fill="#e6e9ed"/>
        <path d="m424.464844 341.621094c3.449218 5.683594 3.191406 12.082031-.640625 14.402344-3.757813 2.238281-9.597657-.488282-13.039063-6.167969-3.4375-5.671875-3.128906-12.074219.640625-14.390625 3.761719-2.328125 9.609375.476562 13.039063 6.15625zm0 0"
              fill="#ccd1d9"/>
        <path d="m306.144531 347.621094c12.160157 15.683594 15.042969 33.914062 6.320313 40.632812-8.71875 6.808594-25.679688-.398437-37.917969-16.078125-12.167969-15.769531-15.039063-33.921875-6.320313-40.722656 8.71875-6.796875 25.679688.488281 37.917969 16.167969zm0 0"
              fill="#e6e9ed"/>
        <path d="m423.113281 446.335938-2.640625 4.078124-158.398437-22.632812-56.558594-79.214844 5.6875-84.863281 1.109375-.640625 128.96875 51.601562 81.273438 131.277344zm-110.648437-58.082032c8.722656-6.71875 5.832031-24.949218-6.320313-40.632812-12.238281-15.679688-29.199219-22.957032-37.917969-16.167969-8.71875 6.792969-5.839843 24.953125 6.320313 40.722656 12.246094 15.679688 29.207031 22.878907 37.917969 16.078125zm0 0"
              fill="#f5f7fa"/>
        <g fill="#ffce54">
            <path d="m347.921875 496.472656c-42 0-83.992187-15.984375-115.96875-47.953125-1.558594-1.558593-1.558594-4.097656 0-5.65625 1.5625-1.558593 4.097656-1.558593 5.65625 0 60.832031 60.816407 159.792969 60.816407 220.617187 0 29.464844-29.464843 45.695313-68.632812 45.695313-110.3125 0-41.671875-16.230469-80.839843-45.695313-110.304687-1.5625-1.558594-1.5625-4.09375 0-5.65625 1.558594-1.558594 4.09375-1.558594 5.65625 0 30.976563 30.96875 48.039063 72.160156 48.039063 115.960937 0 43.816407-17.0625 85-48.039063 115.96875-31.96875 31.96875-73.96875 47.953125-115.960937 47.953125zm0 0"/>
            <path d="m234.785156 449.6875c-1.023437 0-2.046875-.390625-2.832031-1.167969l-213.808594-213.816406c-1.558593-1.558594-1.558593-4.097656 0-5.65625 1.5625-1.558594 4.097657-1.558594 5.65625 0l213.808594 213.816406c1.5625 1.558594 1.5625 4.097657 0 5.65625-.785156.777344-1.808594 1.167969-2.824219 1.167969zm0 0"/>
            <path d="m461.058594 223.414062c-1.023438 0-2.046875-.390624-2.832032-1.167968l-169.703124-169.703125c-1.5625-1.558594-1.5625-4.097657 0-5.65625 1.558593-1.558594 4.09375-1.558594 5.65625 0l169.703124 169.703125c1.558594 1.5625 1.558594 4.097656 0 5.65625-.777343.777344-1.800781 1.167968-2.824218 1.167968zm0 0"/>
            <path d="m166.898438 325.246094c-1.023438 0-2.046876-.390625-2.832032-1.167969l-39.59375-39.597656c-1.558594-1.5625-1.558594-4.097657 0-5.65625 1.5625-1.5625 4.097656-1.5625 5.65625 0l39.59375 39.597656c1.558594 1.5625 1.558594 4.097656 0 5.65625-.777344.777344-1.800781 1.167969-2.824218 1.167969zm0 0"/>
            <path d="m155.585938 257.359375c-1.023438 0-2.046876-.390625-2.832032-1.167969l-138.511718-138.511718c-1.558594-1.5625-1.558594-4.097657 0-5.65625 1.558593-1.558594 4.097656-1.558594 5.65625 0l138.511718 138.503906c1.558594 1.558594 1.558594 4.09375 0 5.65625-.777344.785156-1.800781 1.175781-2.824218 1.175781zm0 0"/>
            <path d="m166.898438 212.101562c-1.023438 0-2.046876-.390624-2.832032-1.167968l-57.9375-57.933594c-1.558594-1.5625-1.558594-4.097656 0-5.65625 1.5625-1.5625 4.097656-1.5625 5.65625 0l57.9375 57.933594c1.558594 1.5625 1.558594 4.097656 0 5.65625-.777344.777344-1.800781 1.167968-2.824218 1.167968zm0 0"/>
            <path d="m195.1875 183.824219c-1.027344 0-2.050781-.394531-2.832031-1.167969l-28.289063-28.289062c-1.558594-1.558594-1.558594-4.097657 0-5.65625 1.558594-1.558594 4.09375-1.558594 5.65625 0l28.289063 28.289062c1.558593 1.558594 1.558593 4.09375 0 5.65625-.777344.773438-1.800781 1.167969-2.824219 1.167969zm0 0"/>
            <path d="m200.84375 132.902344c-1.027344 0-2.050781-.390625-2.832031-1.167969l-91.882813-91.878906c-1.558594-1.558594-1.558594-4.097657 0-5.65625 1.5625-1.558594 4.097656-1.558594 5.65625 0l91.878906 91.871093c1.5625 1.5625 1.5625 4.097657 0 5.65625-.773437.785157-1.796874 1.175782-2.820312 1.175782zm0 0"/>
            <path d="m280.042969 155.535156c-1.023438 0-2.050781-.390625-2.832031-1.167968l-45.257813-45.257813c-1.558594-1.558594-1.558594-4.09375 0-5.65625 1.5625-1.558594 4.097656-1.558594 5.65625 0l45.257813 45.257813c1.558593 1.558593 1.558593 4.097656 0 5.65625-.777344.777343-1.800782 1.167968-2.824219 1.167968zm0 0"/>
            <path d="m359.234375 178.160156c-1.023437 0-2.046875-.394531-2.832031-1.167968l-62.222656-62.226563c-1.5625-1.558594-1.5625-4.09375 0-5.65625 1.558593-1.558594 4.09375-1.558594 5.65625 0l62.222656 62.226563c1.558594 1.558593 1.558594 4.09375 0 5.65625-.777344.773437-1.800782 1.167968-2.824219 1.167968zm0 0"/>
            <path d="m115.984375 274.328125c-1.023437 0-2.046875-.394531-2.832031-1.167969l-22.621094-22.632812c-1.5625-1.558594-1.5625-4.097656 0-5.65625 1.558594-1.558594 4.09375-1.558594 5.65625 0l22.621094 22.632812c1.5625 1.558594 1.5625 4.09375 0 5.65625-.773438.78125-1.796875 1.167969-2.824219 1.167969zm0 0"/>
            <path d="m97.648438 142.855469c-1.023438 0-2.046876-.390625-2.832032-1.167969l-5.664062-5.65625c-1.558594-1.558594-1.558594-4.097656 0-5.65625 1.5625-1.558594 4.097656-1.558594 5.65625 0l5.664062 5.65625c1.5625 1.558594 1.5625 4.097656 0 5.65625-.773437.777344-1.796875 1.167969-2.824218 1.167969zm0 0"/>
            <path d="m212.152344 200.789062c-1.023438 0-2.046875-.390624-2.832032-1.167968l-5.65625-5.652344c-1.558593-1.5625-1.558593-4.097656 0-5.65625 1.5625-1.5625 4.097657-1.5625 5.65625 0l5.65625 5.65625c1.5625 1.558594 1.5625 4.09375 0 5.652344-.773437.777344-1.796874 1.167968-2.824218 1.167968zm0 0"/>
            <path d="m257.417969 189.480469c-1.023438 0-2.046875-.394531-2.832031-1.167969l-45.257813-45.257812c-1.558594-1.558594-1.558594-4.09375 0-5.65625 1.5625-1.558594 4.097656-1.558594 5.65625 0l45.257813 45.257812c1.558593 1.558594 1.558593 4.09375 0 5.65625-.777344.773438-1.800782 1.167969-2.824219 1.167969zm0 0"/>
            <path d="m223.464844 98.96875c-1.023438 0-2.046875-.394531-2.832032-1.167969l-47.597656-47.59375c-1.5625-1.558593-1.5625-4.097656 0-5.65625 1.558594-1.558593 4.09375-1.558593 5.65625 0l47.597656 47.59375c1.5625 1.558594 1.5625 4.09375 0 5.65625-.773437.773438-1.800781 1.167969-2.824218 1.167969zm0 0"/>
            <path d="m285.699219 104.621094c-1.023438 0-2.050781-.390625-2.832031-1.167969l-40.96875-40.964844c-1.558594-1.5625-1.558594-4.097656 0-5.65625 1.558593-1.5625 4.09375-1.5625 5.65625 0l40.96875 40.96875c1.558593 1.558594 1.558593 4.09375 0 5.652344-.777344.777344-1.800782 1.167969-2.824219 1.167969zm0 0"/>
            <path d="m280.042969 42.398438c-1.023438 0-2.050781-.390626-2.832031-1.167969l-33.9375-33.945313c-1.558594-1.558594-1.558594-4.09375 0-5.652344 1.5625-1.5624995 4.097656-1.5624995 5.65625 0l33.9375 33.941407c1.558593 1.5625 1.558593 4.097656 0 5.65625-.777344.777343-1.800782 1.167969-2.824219 1.167969zm0 0"/>
            <path d="m9.65625 224.574219c-1.023438 0-2.046875-.390625-2.832031-1.167969l-5.652344-5.664062c-1.5625-1.558594-1.5625-4.09375 0-5.65625 1.558594-1.558594 4.09375-1.558594 5.652344 0l5.65625 5.664062c1.5625 1.5625 1.5625 4.097656 0 5.65625-.773438.777344-1.796875 1.167969-2.824219 1.167969zm0 0"/>
        </g>
    </symbol>



    <!--<symbol id="" viewBox="0 0 64 64"></symbol>-->
</svg>