<svg height="512pt" viewBox="0 -20 512.032 512" width="512pt" xmlns="http://www.w3.org/2000/svg"><path d="m475.800781 36.015625c0 17.671875-14.328125 32-32 32-17.675781 0-32-14.328125-32-32s14.324219-32 32-32c17.671875 0 32 14.328125 32 32zm0 0" fill="#f7c292"/><path d="m419.800781 36.015625c0-16.296875 12.230469-29.609375 28-31.589844-1.328125-.179687-2.640625-.410156-4-.410156-17.671875 0-32 14.328125-32 32s14.328125 32 32 32c1.359375 0 2.671875-.230469 4-.40625-15.769531-1.984375-28-15.296875-28-31.59375zm0 0" fill="#ffd2a6"/><path d="m483.816406 367.984375h-32c8.832032 0 16-7.167969 16-16s-7.167968-16-16-16h-32c8.832032 0 16-7.167969 16-16s-7.167968-16-16-16h-48c8.832032 0 16-7.167969 16-16s-7.167968-16-16-16h88c8.832032 0 16-7.167969 16-16s-7.167968-16-16-16h-40c8.832032 0 16-7.167969 16-16s-7.167968-16-16-16h-16c8.832032 0 16-7.167969 16-16s-7.167968-16-16-16h80c8.832032 0 16-7.167969 16-16s-7.167968-16-16-16h-32c8.832032 0 16-7.167969 16-16s-7.167968-16-16-16h-32c8.832032 0 16-7.167969 16-16s-7.167968-16-16-16h-24c8.832032 0 16-7.167969 16-16s-7.167968-16-16-16h-240.015625c-8.832031 0-16 7.167969-16 16s7.167969 16 16 16h-56c-8.832031 0-16 7.167969-16 16s7.167969 16 16 16h-16c-8.832031 0-16 7.167969-16 16s7.167969 16 16 16h48c-8.832031 0-16 7.167969-16 16s7.167969 16 16 16h-88c-8.832031 0-16 7.167969-16 16s7.167969 16 16 16h40c-8.832031 0-16 7.167969-16 16s7.167969 16 16 16h-40c-8.832031 0-16 7.167969-16 16s7.167969 16 16 16h-16c-8.832031 0-16 7.167969-16 16s7.167969 16 16 16h40c-8.832031 0-16 7.167969-16 16s7.167969 16 16 16h-16c-8.832031 0-16 7.167969-16 16s7.167969 16 16 16h80c-8.832031 0-16 7.167969-16 16s7.167969 16 16 16h-32c-8.832031 0-16 7.167969-16 16s7.167969 16 16 16h272.015625c8.832032 0 16-7.167969 16-16s-7.167968-16-16-16h112c8.832032 0 16-7.167969 16-16s-7.175781-16-16-16zm0 0" fill="#656d78"/><path d="m443.800781 30.078125c-2.738281-2.75-7.183593-2.75-9.9375 0-2.75 2.753906-2.75 7.195313 0 9.9375l9.9375 9.9375 9.933594-9.9375c2.753906-2.734375 2.753906-7.183594 0-9.9375-2.734375-2.75-7.191406-2.742187-9.933594 0zm0 0" fill="#ffd2a6"/><path d="m403.800781 240.015625c0 81.738281-66.261719 148-148 148s-148-66.261719-148-148 66.261719-148 148-148 148 66.261719 148 148zm0 0" fill="#4a89dc"/><path d="m123.816406 240.015625c0-79.472656 62.6875-144.128906 141.28125-147.664063-3.082031-.199218-6.175781-.335937-9.296875-.335937-81.738281 0-148 66.265625-148 148 0 81.738281 66.261719 148 148 148 3.128907 0 6.214844-.136719 9.296875-.335937-78.59375-3.535157-141.28125-68.191407-141.28125-147.664063zm0 0" fill="#5d9cec"/><path d="m291.800781 240.015625c0-6.628906-16.117187-12-36-12-19.882812 0-36 5.371094-36 12s16.117188 12 36 12c19.882813 0 36-5.371094 36-12zm0 0" fill="#5d9cec"/><path d="m131.527344 212c-1.472656 0-2.933594-.113281-4.375-.351562-2.183594-.359376-3.65625-2.425782-3.296875-4.601563s2.410156-3.6875 4.609375-3.285156c3.183594.511719 6.871094.183593 9.128906-.859375l2.261719-1.046875c5.28125-2.464844 13.578125-2.457031 18.839843 0l2.25 1.023437c3.183594 1.480469 8.964844 1.488282 12.160157.023438l2.246093-1.046875c5.28125-2.457031 13.558594-2.464844 18.855469.007812l2.234375 1.015625c3.183594 1.480469 8.964844 1.496094 12.144532.015625l2.292968-1.046875c5.265625-2.441406 13.546875-2.457031 18.832032.015625l2.234374 1.015625c3.199219 1.488282 8.964844 1.488282 12.144532.015625l2.292968-1.046875c5.265626-2.441406 13.527344-2.441406 18.832032 0l2.265625 1.0625c3.167969 1.472656 8.96875 1.464844 12.128906-.023437l2.261719-1.03125c5.265625-2.457031 13.5625-2.457031 18.839844 0l2.234374 1.03125c3.183594 1.464843 8.964844 1.496093 12.160157 0l2.292969-1.039063c5.25-2.441406 13.53125-2.441406 18.816406.007813l2.234375 1.03125c3.183593 1.464843 8.964843 1.496093 12.160156 0l2.292969-1.039063c5.234375-2.441406 13.53125-2.441406 18.816406.007813l2.25 1.023437c2.277344 1.066406 5.953125 1.425782 9.160156.863282 2.078125-.351563 4.230469 1.105468 4.605469 3.28125.378906 2.167968-1.09375 4.242187-3.277344 4.609374-4.800781.800782-10.097656.238282-13.832031-1.496093l-2.234375-1.015625c-3.214844-1.488282-8.984375-1.488282-12.144531-.015625l-2.292969 1.046875c-5.25 2.441406-13.546875 2.449218-18.839844-.007813l-2.234375-1.03125c-3.199218-1.472656-8.96875-1.480469-12.125-.007812l-2.296875 1.046875c-5.25 2.441406-13.546875 2.449218-18.839843-.007813l-2.234376-1.03125c-3.199218-1.464843-8.984374-1.496093-12.160156 0l-2.261718 1.03125c-5.25 2.449219-13.546876 2.464844-18.832032.015625l-2.28125-1.0625c-3.160156-1.457031-8.9375-1.472656-12.128906.015625l-2.277344 1.039063c-5.234375 2.449218-13.53125 2.449218-18.832031-.007813l-2.234375-1.023437c-3.199219-1.480469-8.96875-1.503906-12.160156-.007813l-2.277344 1.039063c-5.25 2.449218-13.53125 2.457031-18.832031-.015625l-2.234375-1.015625c-3.183594-1.480469-8.96875-1.496094-12.160156-.015625l-2.246094 1.046875c-5.3125 2.449218-13.59375 2.433594-18.855469-.015625l-2.234375-1.015625c-3.214844-1.480469-8.984375-1.496094-12.160156-.015625l-2.246094 1.046875c-2.609375 1.207031-6 1.847656-9.441406 1.847656zm0 0" fill="#3b74c4"/><path d="m123.855469 207.046875c-.328125 1.976563.886719 3.785156 2.738281 4.394531.503906-2.609375 1.230469-5.128906 1.871094-7.679687-2.199219-.402344-4.25 1.101562-4.609375 3.285156zm0 0" fill="#4a89dc"/><path d="m131.558594 284c-.621094 0-1.230469-.023438-1.855469-.0625-2.199219-.152344-3.871094-2.058594-3.734375-4.257812.160156-2.199219 2.109375-3.871094 4.261719-3.726563 2.785156.175781 5.578125-.226563 7.363281-1.058594l2.261719-1.046875c5.28125-2.464844 13.578125-2.449218 18.839843 0l2.25 1.023438c3.183594 1.480468 8.964844 1.488281 12.160157.023437l2.246093-1.046875c5.296876-2.457031 13.558594-2.464844 18.855469.007813l2.234375 1.015625c3.183594 1.480468 8.964844 1.496094 12.144532.015625l2.292968-1.046875c5.265625-2.441406 13.546875-2.457032 18.832032.015625l2.234374 1.015625c3.199219 1.488281 8.964844 1.488281 12.144532.015625l2.292968-1.046875c5.265626-2.441406 13.527344-2.441406 18.832032 0l2.265625 1.0625c3.167969 1.472656 8.96875 1.464844 12.128906-.023438l2.261719-1.03125c5.265625-2.457031 13.5625-2.457031 18.839844 0l2.234374 1.03125c3.183594 1.464844 8.964844 1.496094 12.160157 0l2.292969-1.039062c5.25-2.441406 13.53125-2.441406 18.816406.007812l2.234375 1.03125c3.183593 1.464844 8.964843 1.496094 12.160156 0l2.292969-1.039062c5.234375-2.441406 13.53125-2.441406 18.816406.007812l2.25 1.023438c1.839844.847656 4.605469 1.304687 7.390625 1.082031 2.296875-.136719 4.113281 1.511719 4.25 3.726563.160156 2.199218-1.511719 4.113281-3.722656 4.257812-4.160157.253906-8.199219-.386719-11.261719-1.792969l-2.234375-1.023437c-3.214844-1.488282-8.984375-1.496094-12.144531-.015625l-2.292969 1.046875c-5.25 2.441406-13.546875 2.449218-18.839844-.007813l-2.234375-1.03125c-3.199218-1.472656-8.96875-1.488281-12.125-.007812l-2.296875 1.046875c-5.25 2.441406-13.546875 2.449218-18.839843-.007813l-2.234376-1.03125c-3.199218-1.472656-8.984374-1.496093-12.160156 0l-2.261718 1.03125c-5.25 2.449219-13.546876 2.457031-18.832032.015625l-2.28125-1.0625c-3.160156-1.464844-8.9375-1.464844-12.128906.015625l-2.277344 1.039063c-5.234375 2.449218-13.53125 2.449218-18.832031-.007813l-2.234375-1.023437c-3.199219-1.488282-8.96875-1.503906-12.160156-.007813l-2.277344 1.039063c-5.25 2.449218-13.53125 2.457031-18.832031-.015625l-2.234375-1.015625c-3.183594-1.488282-8.96875-1.503906-12.160156-.015625l-2.246094 1.046875c-5.3125 2.441406-13.59375 2.433594-18.855469-.015625l-2.234375-1.015625c-3.214844-1.488282-8.984375-1.496094-12.160156-.015625l-2.246094 1.046875c-2.578125 1.199218-5.9375 1.847656-9.410156 1.847656zm0 0" fill="#3b74c4"/><path d="m128.472656 276.28125c-1.359375.566406-2.394531 1.832031-2.503906 3.398438-.144531 2.199218 1.527344 4.113281 3.734375 4.257812.265625.015625.527344.015625.816406.023438-.800781-2.511719-1.390625-5.105469-2.046875-7.679688zm0 0" fill="#4a89dc"/><path d="m251.800781 152.015625h-114.800781c-1.9375 2.617187-3.832031 5.257813-5.59375 8h120.394531c2.199219 0 4-1.792969 4-4s-1.800781-4-4-4zm0 0" fill="#3b74c4"/><path d="m136.96875 152.0625c-1.9375 2.601562-3.816406 5.226562-5.5625 7.953125h15.96875c1.769531-2.757813 3.738281-5.375 5.6875-8h-16.0625c-.015625.015625-.03125.03125-.03125.046875zm0 0" fill="#4a89dc"/><path d="m342.214844 120.039062-42.414063-.023437c-2.214843 0-4 1.792969-4 4s1.785157 4 4 4l52.589844.03125c-3.261719-2.824219-6.671875-5.480469-10.175781-8.007813zm0 0" fill="#3b74c4"/><path d="m235.800781 336.015625h-92.519531c2.34375 2.746094 4.734375 5.441406 7.261719 8h85.25c2.199219 0 4-1.792969 4-4s-1.792969-4-3.992188-4zm0 0" fill="#3b74c4"/><path d="m166.769531 344.015625c-2.546875-2.558594-4.953125-5.253906-7.3125-8h-16.167969c2.34375 2.746094 4.734376 5.441406 7.261719 8zm0 0" fill="#4a89dc"/><path d="m283.800781 360.015625c-2.214843 0-4 1.792969-4 4s1.785157 4 4 4h46.0625c4.25-2.472656 8.359375-5.136719 12.328125-8zm0 0" fill="#3b74c4"/><path d="m363.800781 312.015625c-2.214843 0-4 1.792969-4 4s1.785157 4 4 4h16.390625c1.6875-2.617187 3.328125-5.273437 4.855469-8zm0 0" fill="#3b74c4"/><g fill="#e6e9ed"><path d="m476.03125 216.015625c-2.199219 0-4.03125-1.792969-4.03125-4s1.753906-4 3.953125-4h.078125c2.199219 0 4 1.792969 4 4s-1.800781 4-4 4zm0 0"/><path d="m428.03125 136.015625c-2.199219 0-4.03125-1.792969-4.03125-4s1.753906-4 3.953125-4h.078125c2.199219 0 4 1.792969 4 4s-1.800781 4-4 4zm0 0"/><path d="m260.03125 16.015625c-2.199219 0-4.03125-1.792969-4.03125-4s1.753906-4 3.953125-4h.078125c2.199219 0 4 1.792969 4 4s-1.800781 4-4 4zm0 0"/><path d="m124.03125 88.015625c-2.199219 0-4.03125-1.792969-4.03125-4s1.753906-4 3.953125-4h.078125c2.199219 0 4 1.792969 4 4s-1.800781 4-4 4zm0 0"/><path d="m4.03125 152.015625c-2.199219 0-4.03125-1.792969-4.03125-4s1.753906-4 3.953125-4h.078125c2.199219 0 4 1.792969 4 4s-1.800781 4-4 4zm0 0"/><path d="m508.03125 328.015625c-2.199219 0-4.03125-1.792969-4.03125-4s1.753906-4 3.953125-4h.078125c2.199219 0 4 1.792969 4 4s-1.800781 4-4 4zm0 0"/><path d="m436.03125 384.015625c-2.199219 0-4.03125-1.792969-4.03125-4s1.753906-4 3.953125-4h.078125c2.199219 0 4 1.792969 4 4s-1.800781 4-4 4zm0 0"/><path d="m332.03125 464.015625c-2.199219 0-4.03125-1.792969-4.03125-4s1.753906-4 3.953125-4h.078125c2.199219 0 4 1.792969 4 4s-1.800781 4-4 4zm0 0"/><path d="m220.03125 448.015625c-2.199219 0-4.03125-1.792969-4.03125-4s1.753906-4 3.953125-4h.078125c2.199219 0 4 1.792969 4 4s-1.800781 4-4 4zm0 0"/><path d="m44.03125 272.015625c-2.199219 0-4.03125-1.792969-4.03125-4s1.753906-4 3.953125-4h.078125c2.199219 0 4 1.792969 4 4s-1.800781 4-4 4zm0 0"/><path d="m12.03125 392.015625c-2.199219 0-4.03125-1.792969-4.03125-4s1.753906-4 3.953125-4h.078125c2.199219 0 4 1.792969 4 4s-1.800781 4-4 4zm0 0"/><path d="m483.800781 464.015625c-2.214843 0-4-1.792969-4-4v-32c0-2.207031 1.785157-4 4-4 2.199219 0 4 1.792969 4 4v32c0 2.207031-1.800781 4-4 4zm0 0"/><path d="m491.800781 448.015625h-16c-2.214843 0-4-1.792969-4-4s1.785157-4 4-4h16c2.199219 0 4 1.792969 4 4s-1.800781 4-4 4zm0 0"/><path d="m35.800781 40.015625c-2.214843 0-4-1.792969-4-4v-32c0-2.207031 1.785157-4 4-4 2.199219 0 4 1.792969 4 4v32c0 2.207031-1.800781 4-4 4zm0 0"/><path d="m43.800781 24.015625h-16c-2.214843 0-4-1.792969-4-4s1.785157-4 4-4h16c2.199219 0 4 1.792969 4 4s-1.800781 4-4 4zm0 0"/></g><path d="m139.800781 472.015625c-.527343 0-1.082031-.113281-1.59375-.335937-37.558593-16.34375-52.421875-42.265626-53.046875-43.367188-1.082031-1.921875-.390625-4.351562 1.527344-5.441406 1.921875-1.0625 4.359375-.398438 5.457031 1.519531.144531.242187 14.296875 24.738281 49.246094 39.953125 2.035156.871094 2.953125 3.230469 2.066406 5.257812-.640625 1.519532-2.128906 2.414063-3.65625 2.414063zm0 0" fill="#967adc"/><path d="m95.800781 420.015625c0 6.628906-5.375 12-12 12-6.628906 0-12-5.371094-12-12s5.371094-12 12-12c6.625 0 12 5.371094 12 12zm0 0" fill="#ac92ec"/></svg>