<svg height="512pt" viewBox="0 0 512.032 512" width="512pt" xmlns="http://www.w3.org/2000/svg"><path d="m483.800781 384.015625h-32c8.839844 0 16-7.167969 16-16s-7.160156-16-16-16h-32c8.839844 0 16-7.167969 16-16s-7.160156-16-16-16h-48c8.839844 0 16-7.167969 16-16s-7.160156-16-16-16h88c8.839844 0 16-7.167969 16-16s-7.160156-16-16-16h-40c8.839844 0 16-7.167969 16-16s-7.160156-16-16-16h-16c8.839844 0 16-7.167969 16-16s-7.160156-16-16-16h80c8.839844 0 16-7.167969 16-16s-7.160156-16-16-16h-32c8.839844 0 16-7.167969 16-16s-7.160156-16-16-16h-32c8.839844 0 16-7.167969 16-16s-7.160156-16-16-16h-24c8.839844 0 16-7.167969 16-16s-7.160156-16-16-16h-240c-8.832031 0-16 7.167969-16 16s7.167969 16 16 16h-56c-8.832031 0-16 7.167969-16 16s7.167969 16 16 16h-16c-8.832031 0-16 7.167969-16 16s7.167969 16 16 16h48c-8.832031 0-16 7.167969-16 16s7.167969 16 16 16h-88c-8.832031 0-16 7.167969-16 16s7.167969 16 16 16h40c-8.832031 0-16 7.167969-16 16s7.167969 16 16 16h-40c-8.832031 0-16 7.167969-16 16s7.167969 16 16 16h-16c-8.832031 0-16 7.167969-16 16s7.167969 16 16 16h40c-8.832031 0-16 7.167969-16 16s7.167969 16 16 16h-16c-8.832031 0-16 7.167969-16 16s7.167969 16 16 16h80c-8.832031 0-16 7.167969-16 16s7.167969 16 16 16h-32c-8.832031 0-16 7.167969-16 16s7.167969 16 16 16h272c8.839844 0 16-7.167969 16-16s-7.160156-16-16-16h112c8.839844 0 16-7.167969 16-16s-7.160156-16-16-16zm0 0" fill="#656d78"/><path d="m403.816406 256.015625c0 81.746094-66.269531 148.015625-148.015625 148.015625-81.746093 0-148.015625-66.269531-148.015625-148.015625s66.269532-148.015625 148.015625-148.015625c81.746094 0 148.015625 66.269531 148.015625 148.015625zm0 0" fill="#f7c292"/><path d="m123.800781 256.015625c0-79.046875 62.015625-143.429687 140-147.609375-2.65625-.148438-5.296875-.40625-8-.40625-81.753906 0-148.015625 66.265625-148.015625 148.015625 0 81.746094 66.261719 148.015625 148.015625 148.015625 2.703125 0 5.34375-.253906 8-.40625-77.984375-4.175781-140-68.570312-140-147.609375zm0 0" fill="#ffd2a6"/><path d="m387.785156 322.761719c-8.488281-16.234375-27.953125-23.785157-45.265625-16.777344l-3.734375 1.503906-1.488281-3.695312c-7.472656-18.449219-28.472656-27.304688-46.90625-19.832031-18.40625 7.472656-27.292969 28.453124-19.816406 46.878906l1.488281 3.710937 25.546875 63.402344c39.421875-11.609375 71.910156-39.152344 90.175781-75.191406zm0 0" fill="#ffd2a6"/><path d="m227.785156 192.015625c0 11.046875-8.957031 20-20 20-11.046875 0-20-8.953125-20-20s8.953125-20 20-20c11.042969 0 20 8.953125 20 20zm0 0" fill="#eaaf7f"/><path d="m323.800781 200c0 6.628906-5.375 12-12 12-6.628906 0-12-5.371094-12-12s5.371094-12 12-12c6.625 0 12 5.371094 12 12zm0 0" fill="#eaaf7f"/><path d="m179.785156 292.015625c0 4.417969-3.582031 8-8 8-4.417968 0-8-3.582031-8-8s3.582032-8 8-8c4.417969 0 8 3.582031 8 8zm0 0" fill="#eaaf7f"/><g fill="#e6e9ed"><path d="m508.03125 216.015625c-2.199219 0-4.03125-1.792969-4.03125-4s1.753906-4 3.953125-4h.078125c2.199219 0 4 1.792969 4 4s-1.800781 4-4 4zm0 0"/><path d="m452.03125 304.015625c-2.199219 0-4.03125-1.792969-4.03125-4s1.753906-4 3.953125-4h.078125c2.199219 0 4 1.792969 4 4s-1.800781 4-4 4zm0 0"/><path d="m428.03125 144.015625c-2.199219 0-4.03125-1.792969-4.03125-4s1.753906-4 3.953125-4h.078125c2.199219 0 4 1.792969 4 4s-1.800781 4-4 4zm0 0"/><path d="m76.03125 184.015625c-2.199219 0-4.03125-1.792969-4.03125-4s1.753906-4 3.953125-4h.078125c2.199219 0 4 1.792969 4 4s-1.800781 4-4 4zm0 0"/><path d="m4.03125 48.015625c-2.199219 0-4.03125-1.792969-4.03125-4s1.753906-4 3.953125-4h.078125c2.199219 0 4 1.792969 4 4s-1.800781 4-4 4zm0 0"/><path d="m180.03125 48.015625c-2.199219 0-4.03125-1.792969-4.03125-4s1.753906-4 3.953125-4h.078125c2.199219 0 4 1.792969 4 4s-1.800781 4-4 4zm0 0"/><path d="m284.03125 8.015625c-2.199219 0-4.03125-1.792969-4.03125-4s1.753906-4 3.953125-4h.078125c2.199219 0 4 1.792969 4 4s-1.800781 4-4 4zm0 0"/><path d="m324.03125 72.015625c-2.199219 0-4.03125-1.792969-4.03125-4s1.753906-4 3.953125-4h.078125c2.199219 0 4 1.792969 4 4s-1.800781 4-4 4zm0 0"/><path d="m484.03125 480.015625c-2.199219 0-4.03125-1.792969-4.03125-4s1.753906-4 3.953125-4h.078125c2.199219 0 4 1.792969 4 4s-1.800781 4-4 4zm0 0"/><path d="m236.03125 456.015625c-2.199219 0-4.03125-1.792969-4.03125-4s1.753906-4 3.953125-4h.078125c2.199219 0 4 1.792969 4 4s-1.800781 4-4 4zm0 0"/><path d="m340.03125 512.015625c-2.199219 0-4.03125-1.792969-4.03125-4s1.753906-4 3.953125-4h.078125c2.199219 0 4 1.792969 4 4s-1.800781 4-4 4zm0 0"/><path d="m148.03125 472.015625c-2.199219 0-4.03125-1.792969-4.03125-4s1.753906-4 3.953125-4h.078125c2.199219 0 4 1.792969 4 4s-1.800781 4-4 4zm0 0"/><path d="m28.03125 272.015625c-2.199219 0-4.03125-1.792969-4.03125-4s1.753906-4 3.953125-4h.078125c2.199219 0 4 1.792969 4 4s-1.800781 4-4 4zm0 0"/><path d="m84.03125 384.015625c-2.199219 0-4.03125-1.792969-4.03125-4s1.753906-4 3.953125-4h.078125c2.199219 0 4 1.792969 4 4s-1.800781 4-4 4zm0 0"/><path d="m467.800781 72.015625c-2.214843 0-4-1.792969-4-4v-32c0-2.207031 1.785157-4 4-4 2.199219 0 4 1.792969 4 4v32c0 2.207031-1.800781 4-4 4zm0 0"/><path d="m475.800781 56.015625h-16c-2.214843 0-4-1.792969-4-4s1.785157-4 4-4h16c2.199219 0 4 1.792969 4 4s-1.800781 4-4 4zm0 0"/><path d="m99.800781 104.015625c-2.214843 0-4-1.792969-4-4v-32c0-2.207031 1.785157-4 4-4 2.199219 0 4 1.792969 4 4v32c0 2.207031-1.800781 4-4 4zm0 0"/><path d="m107.800781 88.015625h-16c-2.214843 0-4-1.792969-4-4s1.785157-4 4-4h16c2.199219 0 4 1.792969 4 4s-1.800781 4-4 4zm0 0"/><path d="m43.800781 488.015625c-2.214843 0-4-1.792969-4-4v-32c0-2.207031 1.785157-4 4-4 2.199219 0 4 1.792969 4 4v32c0 2.207031-1.800781 4-4 4zm0 0"/><path d="m51.800781 472.015625h-16c-2.214843 0-4-1.792969-4-4s1.785157-4 4-4h16c2.199219 0 4 1.792969 4 4s-1.800781 4-4 4zm0 0"/></g><path d="m386.144531 443.167969c-1.800781 0-3.441406-1.207031-3.886719-3.03125-.53125-2.144531.765626-4.304688 2.902344-4.839844.375-.105469 24.097656-6.6875 38.96875-40.863281.871094-2.035156 3.261719-2.953125 5.261719-2.074219 2.035156.871094 2.953125 3.234375 2.066406 5.257813-16.59375 38.125-43.21875 45.160156-44.34375 45.4375-.328125.074218-.65625.113281-.96875.113281zm0 0" fill="#967adc"/><path d="m391.800781 444.015625c0 6.628906-5.375 12-12 12-6.628906 0-12-5.371094-12-12s5.371094-12 12-12c6.625 0 12 5.371094 12 12zm0 0" fill="#ac92ec"/></svg>