<svg height="511pt" viewBox="0 -7 511.922 511" width="511pt" xmlns="http://www.w3.org/2000/svg">
    <path d="m443.121094 246.734375 1.265625 3.511719-.402344.167968-102.710937 64.242188-128.96875-51.601562 112.007812-67.199219zm-88.253906 10.886719c1.511718-4.167969-3.359376-9.839844-10.960938-12.726563-7.59375-2.871093-15.039062-1.832031-16.632812 2.242188-1.519532 4.167969 3.359374 9.839843 10.953124 12.71875 7.609376 2.878906 15.039063 1.917969 16.640626-2.234375zm0 0"
          fill="#ccd1d9"/>
    <path d="m343.90625 244.894531c7.601562 2.878907 12.480469 8.550781 10.960938 12.726563-1.601563 4.160156-9.03125 5.121094-16.640626 2.234375-7.59375-2.871094-12.480468-8.550781-10.953124-12.71875 1.59375-4.082031 9.039062-5.121094 16.632812-2.242188zm0 0"
          fill="#aab2bd"/>
    <path d="m444.386719 250.253906 38.328125 103.921875-59.601563 92.167969-.558593-.402344-81.273438-131.277344 102.710938-64.242187zm-20.5625 105.761719c3.832031-2.320313 4.089843-8.71875.640625-14.402344-3.4375-5.679687-9.277344-8.484375-13.039063-6.167969-3.769531 2.320313-4.078125 8.722657-.640625 14.394532 3.441406 5.695312 9.289063 8.421875 13.039063 6.175781zm0 0"
          fill="#e6e9ed"/>
    <path d="m424.464844 341.621094c3.449218 5.683594 3.191406 12.082031-.640625 14.402344-3.757813 2.238281-9.597657-.488282-13.039063-6.167969-3.4375-5.671875-3.128906-12.074219.640625-14.390625 3.761719-2.328125 9.609375.476562 13.039063 6.15625zm0 0"
          fill="#ccd1d9"/>
    <path d="m306.144531 347.621094c12.160157 15.683594 15.042969 33.914062 6.320313 40.632812-8.71875 6.808594-25.679688-.398437-37.917969-16.078125-12.167969-15.769531-15.039063-33.921875-6.320313-40.722656 8.71875-6.796875 25.679688.488281 37.917969 16.167969zm0 0"
          fill="#e6e9ed"/>
    <path d="m423.113281 446.335938-2.640625 4.078124-158.398437-22.632812-56.558594-79.214844 5.6875-84.863281 1.109375-.640625 128.96875 51.601562 81.273438 131.277344zm-110.648437-58.082032c8.722656-6.71875 5.832031-24.949218-6.320313-40.632812-12.238281-15.679688-29.199219-22.957032-37.917969-16.167969-8.71875 6.792969-5.839843 24.953125 6.320313 40.722656 12.246094 15.679688 29.207031 22.878907 37.917969 16.078125zm0 0"
          fill="#f5f7fa"/>
    <g fill="#ffce54">
        <path d="m347.921875 496.472656c-42 0-83.992187-15.984375-115.96875-47.953125-1.558594-1.558593-1.558594-4.097656 0-5.65625 1.5625-1.558593 4.097656-1.558593 5.65625 0 60.832031 60.816407 159.792969 60.816407 220.617187 0 29.464844-29.464843 45.695313-68.632812 45.695313-110.3125 0-41.671875-16.230469-80.839843-45.695313-110.304687-1.5625-1.558594-1.5625-4.09375 0-5.65625 1.558594-1.558594 4.09375-1.558594 5.65625 0 30.976563 30.96875 48.039063 72.160156 48.039063 115.960937 0 43.816407-17.0625 85-48.039063 115.96875-31.96875 31.96875-73.96875 47.953125-115.960937 47.953125zm0 0"/>
        <path d="m234.785156 449.6875c-1.023437 0-2.046875-.390625-2.832031-1.167969l-213.808594-213.816406c-1.558593-1.558594-1.558593-4.097656 0-5.65625 1.5625-1.558594 4.097657-1.558594 5.65625 0l213.808594 213.816406c1.5625 1.558594 1.5625 4.097657 0 5.65625-.785156.777344-1.808594 1.167969-2.824219 1.167969zm0 0"/>
        <path d="m461.058594 223.414062c-1.023438 0-2.046875-.390624-2.832032-1.167968l-169.703124-169.703125c-1.5625-1.558594-1.5625-4.097657 0-5.65625 1.558593-1.558594 4.09375-1.558594 5.65625 0l169.703124 169.703125c1.558594 1.5625 1.558594 4.097656 0 5.65625-.777343.777344-1.800781 1.167968-2.824218 1.167968zm0 0"/>
        <path d="m166.898438 325.246094c-1.023438 0-2.046876-.390625-2.832032-1.167969l-39.59375-39.597656c-1.558594-1.5625-1.558594-4.097657 0-5.65625 1.5625-1.5625 4.097656-1.5625 5.65625 0l39.59375 39.597656c1.558594 1.5625 1.558594 4.097656 0 5.65625-.777344.777344-1.800781 1.167969-2.824218 1.167969zm0 0"/>
        <path d="m155.585938 257.359375c-1.023438 0-2.046876-.390625-2.832032-1.167969l-138.511718-138.511718c-1.558594-1.5625-1.558594-4.097657 0-5.65625 1.558593-1.558594 4.097656-1.558594 5.65625 0l138.511718 138.503906c1.558594 1.558594 1.558594 4.09375 0 5.65625-.777344.785156-1.800781 1.175781-2.824218 1.175781zm0 0"/>
        <path d="m166.898438 212.101562c-1.023438 0-2.046876-.390624-2.832032-1.167968l-57.9375-57.933594c-1.558594-1.5625-1.558594-4.097656 0-5.65625 1.5625-1.5625 4.097656-1.5625 5.65625 0l57.9375 57.933594c1.558594 1.5625 1.558594 4.097656 0 5.65625-.777344.777344-1.800781 1.167968-2.824218 1.167968zm0 0"/>
        <path d="m195.1875 183.824219c-1.027344 0-2.050781-.394531-2.832031-1.167969l-28.289063-28.289062c-1.558594-1.558594-1.558594-4.097657 0-5.65625 1.558594-1.558594 4.09375-1.558594 5.65625 0l28.289063 28.289062c1.558593 1.558594 1.558593 4.09375 0 5.65625-.777344.773438-1.800781 1.167969-2.824219 1.167969zm0 0"/>
        <path d="m200.84375 132.902344c-1.027344 0-2.050781-.390625-2.832031-1.167969l-91.882813-91.878906c-1.558594-1.558594-1.558594-4.097657 0-5.65625 1.5625-1.558594 4.097656-1.558594 5.65625 0l91.878906 91.871093c1.5625 1.5625 1.5625 4.097657 0 5.65625-.773437.785157-1.796874 1.175782-2.820312 1.175782zm0 0"/>
        <path d="m280.042969 155.535156c-1.023438 0-2.050781-.390625-2.832031-1.167968l-45.257813-45.257813c-1.558594-1.558594-1.558594-4.09375 0-5.65625 1.5625-1.558594 4.097656-1.558594 5.65625 0l45.257813 45.257813c1.558593 1.558593 1.558593 4.097656 0 5.65625-.777344.777343-1.800782 1.167968-2.824219 1.167968zm0 0"/>
        <path d="m359.234375 178.160156c-1.023437 0-2.046875-.394531-2.832031-1.167968l-62.222656-62.226563c-1.5625-1.558594-1.5625-4.09375 0-5.65625 1.558593-1.558594 4.09375-1.558594 5.65625 0l62.222656 62.226563c1.558594 1.558593 1.558594 4.09375 0 5.65625-.777344.773437-1.800782 1.167968-2.824219 1.167968zm0 0"/>
        <path d="m115.984375 274.328125c-1.023437 0-2.046875-.394531-2.832031-1.167969l-22.621094-22.632812c-1.5625-1.558594-1.5625-4.097656 0-5.65625 1.558594-1.558594 4.09375-1.558594 5.65625 0l22.621094 22.632812c1.5625 1.558594 1.5625 4.09375 0 5.65625-.773438.78125-1.796875 1.167969-2.824219 1.167969zm0 0"/>
        <path d="m97.648438 142.855469c-1.023438 0-2.046876-.390625-2.832032-1.167969l-5.664062-5.65625c-1.558594-1.558594-1.558594-4.097656 0-5.65625 1.5625-1.558594 4.097656-1.558594 5.65625 0l5.664062 5.65625c1.5625 1.558594 1.5625 4.097656 0 5.65625-.773437.777344-1.796875 1.167969-2.824218 1.167969zm0 0"/>
        <path d="m212.152344 200.789062c-1.023438 0-2.046875-.390624-2.832032-1.167968l-5.65625-5.652344c-1.558593-1.5625-1.558593-4.097656 0-5.65625 1.5625-1.5625 4.097657-1.5625 5.65625 0l5.65625 5.65625c1.5625 1.558594 1.5625 4.09375 0 5.652344-.773437.777344-1.796874 1.167968-2.824218 1.167968zm0 0"/>
        <path d="m257.417969 189.480469c-1.023438 0-2.046875-.394531-2.832031-1.167969l-45.257813-45.257812c-1.558594-1.558594-1.558594-4.09375 0-5.65625 1.5625-1.558594 4.097656-1.558594 5.65625 0l45.257813 45.257812c1.558593 1.558594 1.558593 4.09375 0 5.65625-.777344.773438-1.800782 1.167969-2.824219 1.167969zm0 0"/>
        <path d="m223.464844 98.96875c-1.023438 0-2.046875-.394531-2.832032-1.167969l-47.597656-47.59375c-1.5625-1.558593-1.5625-4.097656 0-5.65625 1.558594-1.558593 4.09375-1.558593 5.65625 0l47.597656 47.59375c1.5625 1.558594 1.5625 4.09375 0 5.65625-.773437.773438-1.800781 1.167969-2.824218 1.167969zm0 0"/>
        <path d="m285.699219 104.621094c-1.023438 0-2.050781-.390625-2.832031-1.167969l-40.96875-40.964844c-1.558594-1.5625-1.558594-4.097656 0-5.65625 1.558593-1.5625 4.09375-1.5625 5.65625 0l40.96875 40.96875c1.558593 1.558594 1.558593 4.09375 0 5.652344-.777344.777344-1.800782 1.167969-2.824219 1.167969zm0 0"/>
        <path d="m280.042969 42.398438c-1.023438 0-2.050781-.390626-2.832031-1.167969l-33.9375-33.945313c-1.558594-1.558594-1.558594-4.09375 0-5.652344 1.5625-1.5624995 4.097656-1.5624995 5.65625 0l33.9375 33.941407c1.558593 1.5625 1.558593 4.097656 0 5.65625-.777344.777343-1.800782 1.167969-2.824219 1.167969zm0 0"/>
        <path d="m9.65625 224.574219c-1.023438 0-2.046875-.390625-2.832031-1.167969l-5.652344-5.664062c-1.5625-1.558594-1.5625-4.09375 0-5.65625 1.558594-1.558594 4.09375-1.558594 5.652344 0l5.65625 5.664062c1.5625 1.5625 1.5625 4.097656 0 5.65625-.773438.777344-1.796875 1.167969-2.824219 1.167969zm0 0"/>
    </g>
</svg>