<svg height="511pt" viewBox="0 -3 511.984 511" width="511pt" xmlns="http://www.w3.org/2000/svg"><path d="m492 380.492188h-32c8.832031 0 16-7.167969 16-16 0-8.832032-7.167969-16-16-16h-32c8.832031 0 16-7.167969 16-16 0-8.832032-7.167969-16-16-16h-48c8.832031 0 16-7.167969 16-16 0-8.832032-7.167969-16-16-16h88c8.832031 0 16-7.167969 16-16 0-8.832032-7.167969-16-16-16h-40c8.832031 0 16-7.167969 16-16 0-8.832032-7.167969-16-16-16h-16c8.832031 0 16-7.167969 16-16 0-8.832032-7.167969-16-16-16h80c8.832031 0 16-7.167969 16-16 0-8.832032-7.167969-16-16-16h-32c8.832031 0 16-7.167969 16-16 0-8.832032-7.167969-16-16-16h-32c8.832031 0 16-7.167969 16-16 0-8.832032-7.167969-16-16-16h-24c8.832031 0 16-7.167969 16-16 0-8.832032-7.167969-16-16-16h-192c-8.832031 0-16 7.167968-16 16 0 8.832031 7.167969 16 16 16h-56c-8.832031 0-16 7.167968-16 16 0 8.832031 7.167969 16 16 16h-16c-8.832031 0-16 7.167968-16 16 0 8.832031 7.167969 16 16 16h48c-8.832031 0-16 7.167968-16 16 0 8.832031 7.167969 16 16 16h-88c-8.832031 0-16 7.167968-16 16 0 8.832031 7.167969 16 16 16h40c-8.832031 0-16 7.167968-16 16 0 8.832031 7.167969 16 16 16h-40c-8.832031 0-16 7.167968-16 16 0 8.832031 7.167969 16 16 16h-16c-8.832031 0-16 7.167968-16 16 0 8.832031 7.167969 16 16 16h40c-8.832031 0-16 7.167968-16 16 0 8.832031 7.167969 16 16 16h-16c-8.832031 0-16 7.167968-16 16 0 8.832031 7.167969 16 16 16h80c-8.832031 0-16 7.167968-16 16 0 8.832031 7.167969 16 16 16h-32c-8.832031 0-16 7.167968-16 16 0 8.832031 7.167969 16 16 16h224c8.832031 0 16-7.167969 16-16 0-8.832032-7.167969-16-16-16h112c8.832031 0 16-7.167969 16-16 0-8.832032-7.175781-16-16-16zm0 0" fill="#656d78"/><path d="m411.984375 340.484375v8l-57.519531 20.230469 17.679687-36.871094c12.078125 5.511719 25.597657 8.640625 39.839844 8.640625zm0 0" fill="#aab2bd"/><path d="m411.984375 156.5v8c-14.242187 0-27.679687 3.128906-39.839844 8.640625l-.234375-.488281-17.445312-36.390625zm0 0" fill="#aab2bd"/><path d="m411.984375 152.492188c-14.832031 0-28.832031 3.253906-41.503906 9-34.503907 15.761718-58.503907 50.582031-58.503907 91 0 40.414062 24 75.238281 58.503907 91 12.582031 5.742187 26.664062 9 41.503906 9 55.246094 0 100-44.753907 100-100 0-55.25-44.753906-100-100-100zm0 0" fill="#ccd1d9"/><g fill="#e6e9ed"><path d="m244.257812 208.492188c-2.210937 0-4.042968-1.792969-4.042968-4 0-2.207032 1.753906-4 3.953125-4h.089843c2.199219 0 4 1.792968 4 4 0 2.207031-1.792968 4-4 4zm0 0"/><path d="m36.257812 368.492188c-2.210937 0-4.042968-1.792969-4.042968-4 0-2.207032 1.753906-4 3.953125-4h.089843c2.199219 0 4 1.792968 4 4 0 2.207031-1.792968 4-4 4zm0 0"/><path d="m148.257812 392.492188c-2.210937 0-4.042968-1.792969-4.042968-4 0-2.207032 1.753906-4 3.953125-4h.089843c2.199219 0 4 1.792968 4 4 0 2.207031-1.792968 4-4 4zm0 0"/><path d="m252.257812 313.058594c-2.210937 0-4.042968-1.789063-4.042968-4 0-2.207032 1.753906-4 3.953125-4h.089843c2.199219 0 4 1.792968 4 4 0 2.210937-1.792968 4-4 4zm0 0"/><path d="m172.257812 136.492188c-2.210937 0-4.042968-1.792969-4.042968-4 0-2.207032 1.753906-4 3.953125-4h.089843c2.199219 0 4 1.792968 4 4 0 2.207031-1.792968 4-4 4zm0 0"/><path d="m332.257812 440.492188c-2.210937 0-4.042968-1.792969-4.042968-4 0-2.207032 1.753906-4 3.953125-4h.089843c2.199219 0 4 1.792968 4 4 0 2.207031-1.792968 4-4 4zm0 0"/><path d="m244.257812 480.492188c-2.210937 0-4.042968-1.792969-4.042968-4 0-2.207032 1.753906-4 3.953125-4h.089843c2.199219 0 4 1.792968 4 4 0 2.207031-1.792968 4-4 4zm0 0"/><path d="m476.257812 400.492188c-2.210937 0-4.042968-1.792969-4.042968-4 0-2.207032 1.753906-4 3.953125-4h.089843c2.199219 0 4 1.792968 4 4 0 2.207031-1.792968 4-4 4zm0 0"/><path d="m348.257812 8.492188c-2.210937 0-4.042968-1.792969-4.042968-4 0-2.207032 1.753906-4 3.953125-4h.089843c2.199219 0 4 1.792968 4 4 0 2.207031-1.792968 4-4 4zm0 0"/><path d="m428.257812 96.492188c-2.210937 0-4.042968-1.792969-4.042968-4 0-2.207032 1.753906-4 3.953125-4h.089843c2.199219 0 4 1.792968 4 4 0 2.207031-1.792968 4-4 4zm0 0"/><path d="m204.257812 24.492188c-2.210937 0-4.042968-1.792969-4.042968-4 0-2.207032 1.753906-4 3.953125-4h.089843c2.199219 0 4 1.792968 4 4 0 2.207031-1.792968 4-4 4zm0 0"/><path d="m60.015625 152.5c-2.207031 0-4-1.792969-4-4v-32c0-2.207031 1.792969-4 4-4s4 1.792969 4 4v32c0 2.207031-1.792969 4-4 4zm0 0"/><path d="m68.015625 136.5h-16c-2.207031 0-4-1.792969-4-4s1.792969-4 4-4h16c2.207031 0 4 1.792969 4 4s-1.792969 4-4 4zm0 0"/><path d="m420.015625 504.492188c-2.207031 0-4-1.792969-4-4v-32c0-2.207032 1.792969-4 4-4s4 1.792968 4 4v32c0 2.207031-1.792969 4-4 4zm0 0"/><path d="m428.015625 488.492188h-16c-2.207031 0-4-1.792969-4-4 0-2.207032 1.792969-4 4-4h16c2.207031 0 4 1.792968 4 4 0 2.207031-1.792969 4-4 4zm0 0"/><path d="m484.015625 64.492188c-2.207031 0-4-1.792969-4-4v-32c0-2.207032 1.792969-4 4-4s4 1.792968 4 4v32c0 2.207031-1.792969 4-4 4zm0 0"/><path d="m492.015625 48.492188h-16c-2.207031 0-4-1.792969-4-4 0-2.207032 1.792969-4 4-4h16c2.207031 0 4 1.792968 4 4 0 2.207031-1.792969 4-4 4zm0 0"/><path d="m364.015625 256.492188h-360.015625c-2.207031 0-4-1.792969-4-4 0-2.207032 1.792969-4 4-4h360.015625c2.207031 0 4 1.792968 4 4 0 2.207031-1.792969 4-4 4zm0 0"/></g><path d="m48 480.484375c-1.648438 0-3.191406-1.03125-3.777344-2.671875-.734375-2.089844.363282-4.367188 2.449219-5.105469l364.015625-128c2.097656-.734375 4.367188.367188 5.105469 2.449219.734375 2.085938-.359375 4.367188-2.449219 5.105469l-364.015625 128c-.441406.148437-.886719.222656-1.328125.222656zm0 0" fill="#ccd1d9"/><path d="m412.015625 160.5c-.441406 0-.886719-.070312-1.328125-.222656l-364.015625-128c-2.085937-.738282-3.175781-3.015625-2.449219-5.105469.730469-2.078125 3.007813-3.183594 5.105469-2.449219l364.015625 128c2.089844.738282 3.175781 3.015625 2.449219 5.105469-.585938 1.640625-2.128907 2.671875-3.777344 2.671875zm0 0" fill="#ccd1d9"/><path d="m411.984375 260.828125h-41.664063c-4.585937 0-8.335937-3.761719-8.335937-8.335937 0-4.578126 3.75-8.335938 8.335937-8.335938h41.664063zm0 0" fill="#fff"/></svg>