<svg height="504pt" viewBox="0 -34 504 504" width="504pt" xmlns="http://www.w3.org/2000/svg"><path d="m420 43.984375 8 16-104.015625.023437 16.015625-16.015624v-16.007813h88zm0 0" fill="#da4453"/><path d="m340 35.992188v8h-88v-32h88zm0 0" fill="#ed5565"/><path d="m252 192.015625c-2.207031 0-4-1.792969-4-4v-184.015625c0-2.207031 1.792969-4 4-4s4 1.792969 4 4v184.015625c0 2.207031-1.792969 4-4 4zm0 0" fill="#656d78"/><path d="m360 374c0-12.167969 9.839844-22 22-22s22 9.832031 22 22c0 12.078125-9.839844 22-22 22s-22-9.921875-22-22zm0 0" fill="#ccd1d9"/><path d="m368 374c0-10.792969 7.761719-19.710938 18-21.601562-1.296875-.230469-2.632812-.398438-4-.398438-12.160156 0-22 9.832031-22 22 0 12.078125 9.839844 22 22 22 1.367188 0 2.703125-.167969 4-.40625-10.238281-1.898438-18-10.875-18-21.59375zm0 0" fill="#aab2bd"/><path d="m208.039062 308.039062c0-22.167968 17.921876-40.078124 40-40.078124 22.082032 0 40 17.910156 40 40.078124 0 22-17.917968 40-40 40-22.078124 0-40-18-40-40zm0 0" fill="#ccd1d9"/><path d="m224.039062 308.039062c0-19.414062 13.753907-35.558593 32-39.269531-2.582031-.523437-5.253906-.808593-8-.808593-22.078124 0-40 17.910156-40 40.078124 0 22 17.921876 40 40 40 2.746094 0 5.417969-.277343 8-.816406-18.246093-3.71875-32-19.910156-32-39.183594zm0 0" fill="#aab2bd"/><path d="m96 372c0-8.878906 7.199219-16 16-16s16 7.121094 16 16c0 8.800781-7.199219 16-16 16s-16-7.199219-16-16zm0 0" fill="#ccd1d9"/><path d="m104 372c0-7.488281 5.136719-13.65625 12-15.433594-1.289062-.335937-2.609375-.566406-4-.566406-8.800781 0-16 7.121094-16 16 0 8.800781 7.199219 16 16 16 1.390625 0 2.710938-.230469 4-.566406-6.863281-1.800782-12-8.027344-12-15.433594zm0 0" fill="#aab2bd"/><g fill="#e6e9ed"><path d="m504 432-4.007812 4h-495.992188l-4-4c0-139.199219 112.878906-252 252-252 139.199219 0 252 112.800781 252 252zm-100-58c0-12.160156-9.832031-22-22-22-12.078125 0-22 9.839844-22 22s9.921875 22 22 22c12.167969 0 22-9.839844 22-22zm-115.921875-66c0-22.078125-17.910156-40-40.078125-40-22 0-40 17.921875-40 40s18 40 40 40c22.167969 0 40.078125-17.921875 40.078125-40zm-160.078125 64c0-8.800781-7.121094-16-16-16-8.800781 0-16 7.199219-16 16s7.199219 16 16 16c8.878906 0 16-7.199219 16-16zm0 0"/><path d="m8 432c0 2.210938-1.789062 4-4 4s-4-1.789062-4-4 1.789062-4 4-4 4 1.789062 4 4zm0 0"/><path d="m504 432c0 2.210938-1.789062 4-4 4s-4-1.789062-4-4 1.789062-4 4-4 4 1.789062 4 4zm0 0"/></g></svg>