<svg height="512pt" viewBox="0 0 512 512.562" width="512pt" xmlns="http://www.w3.org/2000/svg"><path d="m451.511719 36.5625c0 13.253906-10.742188 24-24 24-13.253907 0-24-10.746094-24-24s10.746093-24 24-24c13.257812 0 24 10.746094 24 24zm0 0" fill="#967adc"/><path d="m411.511719 36.5625c0-11.886719 8.671875-21.6875 20-23.59375-1.292969-.230469-2.621094-.398438-4-.40625-13.246094 0-24 10.75-24 24 0 13.246094 10.753906 24 24.007812 24 1.371094 0 2.699219-.183594 3.992188-.410156-11.328125-1.902344-20-11.695313-20-23.589844zm0 0" fill="#ac92ec"/><path d="m475.511719 384.5625h-31.992188c8.832031 0 15.992188-7.167969 15.992188-16 0-8.839844-7.167969-16-15.992188-16h-32.007812c8.832031 0 16-7.167969 16-16 0-8.839844-7.167969-16-16-16l-48 .007812c8.832031 0 16.007812-7.175781 16.007812-16.007812-.007812-8.839844-7.175781-16-16.007812-16h88c8.832031 0 16-7.167969 16-16s-7.167969-16-16-16l-40-.007812c8.832031 0 16-7.167969 16-15.992188 0-8.839844-7.167969-16-16-16h-15.992188c8.824219 0 15.992188-7.167969 15.992188-16 0-8.839844-7.167969-16-15.992188-16h79.992188c8.832031 0 16-7.167969 16-16 0-8.839844-7.167969-16-16-16h-31.992188c8.832031 0 15.992188-7.167969 15.992188-16 0-8.847656-7.167969-16-16-16h-32c8.832031 0 16-7.167969 16-16 .007812-8.839844-7.167969-16-16-16h-23.992188c8.832031 0 15.992188-7.167969 15.992188-16 0-8.839844-7.167969-16-16-16h-240c-8.832031 0-15.992188 7.160156-16 16 0 8.832031 7.167969 15.992188 16 16h-56c-8.832031 0-16 7.160156-15.992188 16 0 8.832031 7.167969 16 15.992188 16h-15.992188c-8.832031 0-16.007812 7.152344-16.007812 16 0 8.832031 7.167969 16 16 16h48.007812c-8.832031 0-16.007812 7.160156-16.007812 16 0 8.832031 7.167969 16 16 16h-88c-8.832031 0-15.992188 7.160156-16 16 0 8.832031 7.167969 16 16 16h40.007812c-8.832031 0-16.007812 7.160156-16.007812 16 0 8.832031 7.167969 16 16 16h-40c-8.824219 0-16 7.160156-15.992188 16 0 8.832031 7.167969 16 15.992188 16h-16c-8.832031 0-15.992188 7.160156-16 16 0 8.832031 7.167969 16 16 16h40.007812c-8.832031.007812-16.007812 7.160156-16.007812 16 0 8.832031 7.167969 16 16 16h-16c-8.832031 0-16 7.160156-15.992188 16 0 8.832031 7.167969 16 15.992188 16h80c-8.832031 0-16 7.152344-16 16 0 8.832031 7.167969 16 16 16h-32c-8.832031 0-16 7.160156-15.992188 16 0 8.832031 7.167969 16 15.992188 16h272c8.832031 0 16-7.167969 16.007812-16-.007812-8.839844-7.167969-16-16.007812-16.007812l112 .007812c8.832031 0 16-7.167969 16-16 0-8.839844-7.167969-16-16-16zm0 0" fill="#656d78"/><path d="m287.082031 174.035156 50.894531 50.917969 5.65625 5.65625c3.175782 3.160156 3.167969 8.144531.015626 11.3125l-16.917969 16.902344-67.9375 67.9375-39.59375 39.609375c-3.109375 3.109375-8.160157 3.160156-11.308594 0l-62.167969-62.167969c-3.167968-3.167969-3.167968-8.265625-.066406-11.378906l39.601562-39.589844 67.933594-67.9375 16.914063-16.917969c3.167969-3.160156 8.207031-3.113281 11.320312 0zm0 0" fill="#f5f7fa"/><path d="m309.703125 174.035156 28.28125 28.292969 5.65625 5.65625c3.167969 3.160156 3.167969 8.144531.015625 11.320313l-5.671875 5.648437-50.894531-50.917969 5.648437-5.648437c3.167969-3.167969 8.199219-3.121094 11.3125 0zm0 0" fill="#e6e9ed"/><path d="m309.710938 174.03125 11.324218-11.3125 28.269532 28.3125-11.324219 11.308594zm0 0" fill="#ccd1d9"/><path d="m207.90625 332.410156c-3.113281 3.113282-8.203125 3.113282-11.3125 0l-16.96875-16.96875c-3.113281-3.113281-3.113281-8.199218 0-11.3125l101.792969-101.800781c3.109375-3.109375 8.199219-3.109375 11.3125 0l16.964843 16.96875c3.113282 3.113281 3.113282 8.199219 0 11.3125zm0 0" fill="#5d9cec"/><path d="m137.09375 69.191406 116.109375 116.105469-67.878906 67.875-116.105469-116.105469zm0 0" fill="#e6e9ed"/><path d="m122.792969 4.003906 39.601562 39.589844-118.78125 118.816406-39.601562-39.589844zm0 0" fill="#5d9cec"/><path d="m173.703125 54.90625 39.601563 39.589844-118.78125 118.816406-39.601563-39.59375zm0 0" fill="#5d9cec"/><path d="m224.609375 105.824219 39.589844 39.585937-118.792969 118.792969-39.589844-39.585937zm0 0" fill="#5d9cec"/><path d="m44.074219 304.5625c-2.210938 0-4.050781-1.792969-4.050781-4s1.753906-4 3.96875-4h.082031c2.199219 0 4 1.792969 4 4s-1.792969 4-4 4zm0 0" fill="#e6e9ed"/><path d="m156.074219 424.5625c-2.210938 0-4.050781-1.792969-4.050781-4s1.753906-4 3.96875-4h.082031c2.199219 0 4 1.792969 4 4s-1.792969 4-4 4zm0 0" fill="#e6e9ed"/><path d="m452.066406 168.5625c-2.210937 0-4.042968-1.792969-4.042968-4s1.753906-4 3.960937-4h.082031c2.207032 0 4 1.792969 4 4s-1.785156 4-4 4zm0 0" fill="#e6e9ed"/><path d="m236.066406 56.5625c-2.210937 0-4.042968-1.792969-4.042968-4s1.753906-4 3.960937-4h.082031c2.207032 0 4 1.792969 4 4s-1.785156 4-4 4zm0 0" fill="#e6e9ed"/><path d="m43.832031 432.5625c-2.207031 0-4-1.792969-4-4l-.007812-32c0-2.207031 1.800781-4 4-4 2.207031 0 4 1.792969 4 4l.007812 32c0 2.214844-1.78125 4-4 4zm0 0" fill="#e6e9ed"/><path d="m51.832031 416.5625h-16c-2.207031 0-4-1.792969-4-4s1.792969-4 4-4h16c2.207031 0 4 1.792969 4 4s-1.78125 4-4 4zm0 0" fill="#e6e9ed"/><path d="m203.824219 512.5625c-2.207031 0-4-1.792969-4-4l.007812-32c0-2.207031 1.792969-4 4-4s4 1.792969 4 4l-.007812 32c0 2.214844-1.792969 4-4 4zm0 0" fill="#e6e9ed"/><path d="m211.832031 496.5625h-16.007812c-2.199219 0-4-1.792969-4-4s1.800781-4 4-4h16.007812c2.207031 0 4 1.792969 4 4s-1.78125 4-4 4zm0 0" fill="#e6e9ed"/><path d="m475.824219 304.5625c-2.199219 0-4-1.792969-4-4v-32c0-2.207031 1.785156-4 4-4 2.199219 0 4 1.792969 4 4v32c0 2.214844-1.773438 4-4 4zm0 0" fill="#e6e9ed"/><path d="m483.824219 288.5625h-16c-2.214844 0-4-1.792969-4-4s1.785156-4 4-4h16c2.214843 0 4 1.792969 4 4s-1.773438 4-4 4zm0 0" fill="#e6e9ed"/><path d="m407.167969 63.867188c-1.855469 0-3.503907-.554688-4.800781-1.839844-1.558594-1.5625-1.558594-4.097656 0-5.65625 1.386718-1.394532 3.53125-1.546875 5.097656-.472656 2.566406-.152344 11.671875-4.984376 23.183594-16.503907 11.527343-11.519531 16.359374-20.625 16.503906-23.183593-1.070313-1.554688-.910156-3.714844.472656-5.097657 1.558594-1.558593 4.105469-1.558593 5.664062 0 8.0625 8.089844-12.734374 29.6875-16.984374 33.9375-3.558594 3.566407-19.375 18.816407-29.136719 18.816407zm0 0" fill="#ac92ec"/><path d="m352.488281 163.921875c-1.023437 0-2.046875-.390625-2.832031-1.167969-1.558594-1.558594-1.558594-4.097656 0-5.65625l22.617188-22.640625c1.558593-1.558593 4.09375-1.558593 5.65625 0 1.558593 1.5625 1.558593 4.097657 0 5.65625l-22.617188 22.640625c-.785156.777344-1.808594 1.167969-2.824219 1.167969zm0 0" fill="#e6e9ed"/><g fill="#4a89dc"><path d="m273.449219 233.617188c-1.558594-1.558594-1.59375-4.121094-.03125-5.679688 1.558593-1.566406 4.070312-1.589844 5.632812-.03125l.054688.054688c1.558593 1.5625 1.558593 4.097656 0 5.65625-1.558594 1.5625-4.089844 1.5625-5.65625 0zm0 0"/><path d="m250.839844 256.226562c-1.558594-1.550781-1.589844-4.121093-.03125-5.679687 1.558594-1.5625 4.074218-1.59375 5.632812-.03125l.054688.054687c1.5625 1.558594 1.5625 4.09375 0 5.65625-1.558594 1.558594-4.09375 1.558594-5.65625 0zm0 0"/><path d="m228.234375 278.84375c-1.5625-1.5625-1.59375-4.128906-.035156-5.691406 1.5625-1.558594 4.066406-1.589844 5.632812-.03125l.058594.058594c1.558594 1.566406 1.558594 4.09375 0 5.664062-1.5625 1.566406-4.097656 1.566406-5.65625 0zm0 0"/><path d="m205.625 301.449219c-1.558594-1.558594-1.59375-4.128907-.03125-5.6875 1.558594-1.558594 4.0625-1.589844 5.625-.023438l.0625.054688c1.558594 1.5625 1.558594 4.097656 0 5.65625-1.558594 1.5625-4.097656 1.570312-5.65625 0zm0 0"/><path d="m267.792969 250.585938c-1.558594-1.550782-1.59375-4.121094-.03125-5.679688 1.558593-1.558594 4.070312-1.59375 5.632812-.03125l.054688.054688c1.558593 1.558593 1.558593 4.097656 0 5.65625-1.558594 1.566406-4.089844 1.558593-5.65625 0zm0 0"/><path d="m245.183594 273.203125c-1.558594-1.5625-1.589844-4.128906-.03125-5.6875 1.5625-1.5625 4.074218-1.59375 5.632812-.035156l.054688.066406c1.5625 1.558594 1.5625 4.085937 0 5.65625-1.558594 1.566406-4.09375 1.566406-5.65625 0zm0 0"/><path d="m222.578125 295.808594c-1.5625-1.558594-1.59375-4.125-.03125-5.6875 1.558594-1.558594 4.0625-1.589844 5.621094-.023438l.066406.054688c1.558594 1.5625 1.558594 4.097656 0 5.65625-1.5625 1.5625-4.097656 1.570312-5.65625 0zm0 0"/><path d="m41.058594 165.226562-39.609375-39.609374c-.761719-.75-1.167969-1.765626-1.167969-2.832032 0-1.0625.414062-2.078125 1.167969-2.832031l118.800781-118.78125c1.558594-1.5625 4.09375-1.5625 5.65625 0l39.597656 39.589844c.753906.753906 1.167969 1.769531 1.167969 2.832031s-.421875 2.082031-1.167969 2.832031l-118.78125 118.800781c-1.578125 1.558594-4.097656 1.558594-5.664062 0zm-31.121094-42.441406 33.953125 33.953125 113.132813-113.136719-33.941407-33.9375zm0 0"/><path d="m21.257812 145.441406c-1.554687-1.558594-1.5625-4.09375 0-5.65625l118.792969-118.816406c1.558594-1.558594 4.09375-1.558594 5.652344 0 1.5625 1.5625 1.5625 4.097656 0 5.65625l-118.789063 118.816406c-1.5625 1.5625-4.097656 1.5625-5.65625 0zm0 0"/><path d="m142.890625 63.394531-39.601563-39.601562c-1.558593-1.558594-1.558593-4.09375 0-5.65625 1.566407-1.558594 4.097657-1.558594 5.664063 0l39.59375 39.601562c1.558594 1.558594 1.558594 4.097657 0 5.65625-1.5625 1.558594-4.097656 1.558594-5.65625 0zm0 0"/><path d="m125.921875 80.363281-39.601563-39.601562c-1.558593-1.558594-1.558593-4.097657 0-5.65625 1.5625-1.558594 4.097657-1.558594 5.65625 0l39.601563 39.601562c1.558594 1.558594 1.558594 4.09375 0 5.65625-1.5625 1.558594-4.097656 1.558594-5.65625 0zm0 0"/><path d="m108.953125 97.320312-39.59375-39.589843c-1.558594-1.558594-1.558594-4.097657 0-5.65625 1.5625-1.558594 4.097656-1.558594 5.65625 0l39.59375 39.589843c1.558594 1.5625 1.558594 4.097657 0 5.65625-1.558594 1.570313-4.097656 1.570313-5.65625 0zm0 0"/><path d="m91.984375 114.304688-39.597656-39.605469c-1.5625-1.5625-1.5625-4.097657 0-5.65625 1.566406-1.5625 4.101562-1.5625 5.664062 0l39.589844 39.605469c1.558594 1.5625 1.558594 4.097656 0 5.65625-1.558594 1.5625-4.09375 1.5625-5.65625 0zm0 0"/><path d="m75.015625 131.273438-39.597656-39.609376c-1.5625-1.558593-1.5625-4.09375 0-5.652343 1.558593-1.5625 4.101562-1.554688 5.65625 0l39.597656 39.605469c1.5625 1.5625 1.5625 4.097656 0 5.65625-1.558594 1.5625-4.09375 1.5625-5.65625 0zm0 0"/><path d="m58.050781 148.25-39.609375-39.601562c-1.558594-1.558594-1.558594-4.09375 0-5.65625 1.566406-1.558594 4.09375-1.558594 5.664063 0l39.597656 39.59375c1.5625 1.566406 1.5625 4.097656 0 5.664062-1.566406 1.558594-4.09375 1.558594-5.652344 0zm0 0"/><path d="m91.96875 216.128906-39.589844-39.589844c-1.5625-1.5625-1.5625-4.097656 0-5.65625l118.789063-118.800781c1.5625-1.558593 4.097656-1.558593 5.65625 0l39.59375 39.59375c1.558593 1.558594 1.558593 4.09375 0 5.652344l-118.792969 118.800781c-1.574219 1.570313-4.097656 1.570313-5.65625 0zm-31.113281-42.414062 33.9375 33.933594 113.136719-113.140626-33.9375-33.9375zm0 0"/><path d="m72.160156 196.347656c-1.558594-1.5625-1.558594-4.097656 0-5.65625l118.808594-118.808594c1.558594-1.5625 4.097656-1.5625 5.65625 0 1.558594 1.558594 1.558594 4.09375 0 5.65625l-118.808594 118.808594c-1.558594 1.558594-4.09375 1.558594-5.65625 0zm0 0"/><path d="m193.808594 114.289062-39.589844-39.597656c-1.570312-1.5625-1.570312-4.097656 0-5.65625 1.558594-1.5625 4.09375-1.5625 5.652344 0l39.59375 39.597656c1.558594 1.5625 1.558594 4.097657 0 5.65625-1.558594 1.5625-4.085938 1.5625-5.65625 0zm0 0"/><path d="m176.824219 131.273438-39.597657-39.609376c-1.5625-1.558593-1.5625-4.09375 0-5.652343 1.558594-1.5625 4.101563-1.554688 5.65625 0l39.597657 39.605469c1.558593 1.5625 1.558593 4.097656 0 5.65625-1.558594 1.5625-4.09375 1.5625-5.65625 0zm0 0"/><path d="m120.25 108.648438c-1.554688-1.558594-1.5625-4.09375 0-5.65625 1.566406-1.558594 4.09375-1.558594 5.664062 0l39.613282 39.59375c1.5625 1.558593 1.5625 4.097656 0 5.664062-1.558594 1.558594-4.09375 1.558594-5.65625 0zm0 0"/><path d="m142.890625 165.210938-39.601563-39.601563c-1.558593-1.558594-1.558593-4.085937 0-5.65625 1.566407-1.558594 4.097657-1.558594 5.664063 0l39.59375 39.601563c1.558594 1.558593 1.558594 4.09375 0 5.65625-1.5625 1.558593-4.097656 1.566406-5.65625 0zm0 0"/><path d="m125.921875 182.179688-39.601563-39.59375c-1.558593-1.558594-1.558593-4.097657 0-5.65625 1.5625-1.558594 4.097657-1.558594 5.65625 0l39.601563 39.59375c1.558594 1.558593 1.558594 4.09375 0 5.65625-1.5625 1.558593-4.097656 1.566406-5.65625 0zm0 0"/><path d="m108.953125 199.152344-39.609375-39.597656c-1.558594-1.5625-1.558594-4.097657 0-5.65625 1.570312-1.558594 4.097656-1.558594 5.664062 0l39.601563 39.589843c1.558594 1.570313 1.558594 4.097657 0 5.664063-1.570313 1.570312-4.097656 1.570312-5.65625 0zm0 0"/><path d="m103.28125 227.449219c-.753906-.75-1.167969-1.765625-1.167969-2.832031 0-1.0625.421875-2.078126 1.167969-2.832032l118.792969-118.800781c.75-.75 1.773437-1.167969 2.832031-1.167969 1.0625 0 2.078125.425782 2.832031 1.167969l39.597657 39.609375c1.5625 1.558594 1.5625 4.097656 0 5.65625l-118.789063 118.800781c-1.5625 1.558594-4.097656 1.558594-5.65625 0zm121.617188-115.976563-113.136719 113.144532 33.953125 33.9375 113.125-113.128907zm0 0"/><path d="m123.066406 247.25c-1.5625-1.558594-1.5625-4.097656 0-5.65625l118.804688-118.800781c1.5625-1.558594 4.097656-1.558594 5.65625 0 1.5625 1.5625 1.5625 4.097656 0 5.65625l-118.804688 118.800781c-1.5625 1.558594-4.097656 1.558594-5.65625 0zm0 0"/><path d="m244.722656 165.195312-39.59375-39.601562c-1.566406-1.558594-1.566406-4.097656 0-5.65625 1.558594-1.558594 4.097656-1.558594 5.65625 0l39.59375 39.601562c1.558594 1.558594 1.558594 4.09375 0 5.65625-1.5625 1.558594-4.097656 1.566407-5.65625 0zm0 0"/><path d="m227.746094 182.1875-39.609375-39.601562c-1.558594-1.558594-1.558594-4.097657 0-5.65625 1.558593-1.558594 4.097656-1.558594 5.65625 0l39.609375 39.601562c1.558594 1.558594 1.558594 4.09375 0 5.65625-1.5625 1.558594-4.089844 1.566406-5.65625 0zm0 0"/><path d="m210.777344 199.152344-39.601563-39.605469c-1.566406-1.5625-1.566406-4.097656 0-5.65625 1.5625-1.5625 4.097657-1.5625 5.65625 0l39.601563 39.597656c1.558594 1.570313 1.558594 4.097657 0 5.664063-1.5625 1.570312-4.089844 1.570312-5.65625 0zm0 0"/><path d="m154.191406 176.515625c-1.550781-1.554687-1.558594-4.089844 0-5.65625 1.570313-1.5625 4.097656-1.5625 5.65625 0l39.617188 39.605469c1.558594 1.554687 1.558594 4.097656 0 5.65625-1.558594 1.5625-4.097656 1.5625-5.65625 0zm0 0"/><path d="m176.824219 233.089844-39.597657-39.59375c-1.5625-1.558594-1.5625-4.09375 0-5.652344 1.558594-1.5625 4.09375-1.5625 5.65625 0l39.597657 39.589844c1.558593 1.558594 1.558593 4.097656 0 5.65625-1.558594 1.558594-4.09375 1.558594-5.65625 0zm0 0"/><path d="m159.855469 250.066406-39.605469-39.601562c-1.5625-1.558594-1.5625-4.09375 0-5.65625 1.566406-1.558594 4.09375-1.558594 5.65625 0l39.605469 39.59375c1.5625 1.566406 1.5625 4.09375 0 5.664062-1.566407 1.558594-4.09375 1.558594-5.65625 0zm0 0"/></g><path d="m375.105469 442.960938-116.105469-116.105469 67.875-67.875 116.109375 116.105469zm0 0" fill="#e6e9ed"/><path d="m389.324219 508.175781-39.605469-39.617187 118.820312-118.785156 39.605469 39.613281zm0 0" fill="#5d9cec"/><path d="m338.464844 457.257812-39.59375-39.601562 118.816406-118.78125 39.589844 39.601562zm0 0" fill="#5d9cec"/><path d="m287.5625 406.355469-39.589844-39.605469 118.816406-118.78125 39.589844 39.605469zm0 0" fill="#5d9cec"/><path d="m346.945312 465.457031 118.792969-118.800781c.75-.75 1.765625-1.167969 2.832031-1.167969 1.0625 0 2.078126.425781 2.832032 1.167969l39.589844 39.601562c1.5625 1.558594 1.5625 4.097657 0 5.65625l-118.78125 118.816407c-.753907.75-1.769532 1.167969-2.832032 1.167969-1.058594 0-2.074218-.425782-2.832031-1.167969l-39.609375-39.609375c-1.558594-1.574219-1.550781-4.09375.007812-5.664063zm155.550782-76.359375-33.933594-33.945312-113.128906 113.136718 33.945312 33.953126zm0 0" fill="#4a89dc"/><path d="m366.730469 490.90625c1.558593 1.558594 4.09375 1.558594 5.65625 0l118.8125-118.792969c1.5625-1.558593 1.5625-4.085937 0-5.65625-1.558594-1.550781-4.109375-1.558593-5.671875 0l-118.796875 118.792969c-1.570313 1.558594-1.5625 4.105469 0 5.65625zm0 0" fill="#4a89dc"/><path d="m448.777344 369.28125 39.589844 39.59375c1.5625 1.566406 4.097656 1.566406 5.65625 0 1.5625-1.5625 1.5625-4.097656 0-5.65625l-39.589844-39.59375c-1.5625-1.558594-4.097656-1.558594-5.65625 0-1.558594 1.5625-1.558594 4.097656 0 5.65625zm0 0" fill="#4a89dc"/><path d="m431.808594 386.25 39.59375 39.601562c1.558594 1.558594 4.09375 1.558594 5.65625 0 1.558594-1.5625 1.558594-4.097656 0-5.65625l-39.59375-39.601562c-1.558594-1.558594-4.097656-1.558594-5.65625 0s-1.558594 4.097656 0 5.65625zm0 0" fill="#4a89dc"/><path d="m414.839844 403.21875 39.601562 39.589844c1.558594 1.5625 4.085938 1.5625 5.65625 0 1.558594-1.558594 1.558594-4.09375 0-5.65625l-39.601562-39.589844c-1.558594-1.558594-4.09375-1.570312-5.65625 0-1.558594 1.558594-1.558594 4.09375 0 5.65625zm0 0" fill="#4a89dc"/><path d="m397.855469 420.1875 39.609375 39.589844c1.558594 1.570312 4.097656 1.570312 5.65625 0 1.558594-1.558594 1.558594-4.09375 0-5.65625l-39.609375-39.589844c-1.558594-1.5625-4.09375-1.5625-5.65625 0-1.558594 1.558594-1.558594 4.09375 0 5.65625zm0 0" fill="#4a89dc"/><path d="m380.890625 437.152344 39.605469 39.601562c1.5625 1.558594 4.097656 1.558594 5.65625 0 1.5625-1.558594 1.5625-4.105468 0-5.65625l-39.605469-39.601562c-1.5625-1.558594-4.097656-1.558594-5.65625 0-1.5625 1.5625-1.5625 4.097656 0 5.65625zm0 0" fill="#4a89dc"/><path d="m363.921875 454.121094 39.589844 39.601562c1.570312 1.558594 4.097656 1.558594 5.65625 0 1.570312-1.5625 1.570312-4.097656 0-5.65625l-39.589844-39.601562c-1.5625-1.558594-4.097656-1.558594-5.65625 0-1.5625 1.5625-1.5625 4.097656 0 5.65625zm0 0" fill="#4a89dc"/><path d="m296.03125 414.546875 118.800781-118.800781c1.5625-1.558594 4.105469-1.550782 5.65625 0l39.59375 39.601562c1.558594 1.550782 1.566407 4.09375 0 5.65625l-118.792969 118.796875c-1.558593 1.5625-4.105468 1.554688-5.65625 0l-39.601562-39.597656c-1.558594-1.554687-1.566406-4.089844 0-5.65625zm155.5625-76.367187-33.9375-33.945313-113.144531 113.144531 33.945312 33.933594zm0 0" fill="#4a89dc"/><path d="m315.824219 440.011719c1.5625 1.550781 4.097656 1.558593 5.65625 0l118.808593-118.808594c1.566407-1.5625 1.550782-4.105469 0-5.65625-1.566406-1.570313-4.097656-1.5625-5.65625 0l-118.808593 118.808594c-1.558594 1.558593-1.558594 4.085937 0 5.65625zm0 0" fill="#4a89dc"/><path d="m397.871094 318.363281 39.609375 39.589844c1.558593 1.5625 4.089843 1.5625 5.65625 0 1.558593-1.558594 1.558593-4.09375 0-5.65625l-39.601563-39.589844c-1.566406-1.5625-4.09375-1.5625-5.664062 0-1.558594 1.558594-1.558594 4.085938 0 5.65625zm0 0" fill="#4a89dc"/><path d="m380.890625 335.347656 39.605469 39.597656c1.5625 1.5625 4.097656 1.5625 5.65625 0 1.5625-1.558593 1.5625-4.09375 0-5.65625l-39.605469-39.597656c-1.5625-1.5625-4.097656-1.5625-5.65625 0-1.5625 1.558594-1.554687 4.09375 0 5.65625zm0 0" fill="#4a89dc"/><path d="m403.511719 391.914062c1.5625 1.550782 4.097656 1.558594 5.65625 0 1.570312-1.558593 1.570312-4.097656 0-5.65625l-39.589844-39.617187c-1.554687-1.558594-4.097656-1.566406-5.65625 0-1.5625 1.5625-1.5625 4.089844 0 5.65625zm0 0" fill="#4a89dc"/><path d="m346.953125 369.28125 39.601563 39.59375c1.566406 1.566406 4.09375 1.566406 5.65625 0 1.566406-1.5625 1.566406-4.097656 0-5.65625l-39.601563-39.59375c-1.558594-1.558594-4.097656-1.558594-5.65625 0-1.558594 1.5625-1.566406 4.097656 0 5.65625zm0 0" fill="#4a89dc"/><path d="m329.984375 386.25 39.601563 39.601562c1.558593 1.558594 4.09375 1.558594 5.65625 0 1.558593-1.5625 1.558593-4.097656 0-5.65625l-39.601563-39.601562c-1.558594-1.558594-4.09375-1.558594-5.65625 0-1.558594 1.558594-1.566406 4.097656 0 5.65625zm0 0" fill="#4a89dc"/><path d="m313.015625 403.21875 39.59375 39.597656c1.566406 1.5625 4.09375 1.5625 5.65625 0 1.566406-1.558594 1.566406-4.09375 0-5.65625l-39.59375-39.597656c-1.558594-1.558594-4.09375-1.558594-5.65625 0-1.558594 1.558594-1.566406 4.09375 0 5.65625zm0 0" fill="#4a89dc"/><path d="m245.121094 369.289062c-1.558594-1.566406-1.558594-4.09375 0-5.65625l118.785156-118.789062c1.566406-1.5625 4.09375-1.5625 5.664062 0l39.597657 39.589844c.753906.753906 1.167969 1.769531 1.167969 2.832031s-.421876 2.082031-1.167969 2.832031l-118.800781 118.800782c-.75.75-1.765626 1.167968-2.832032 1.167968-1.0625 0-2.078125-.425781-2.832031-1.167968zm121.609375-115.960937-113.121094 113.128906 33.9375 33.945313 113.140625-113.144532zm0 0" fill="#4a89dc"/><path d="m264.921875 389.097656c1.558594 1.566406 4.09375 1.558594 5.65625 0l118.800781-118.800781c1.558594-1.558594 1.550782-4.101563 0-5.65625-1.570312-1.566406-4.097656-1.558594-5.65625 0l-118.800781 118.800781c-1.570313 1.5625-1.5625 4.097656 0 5.65625zm0 0" fill="#4a89dc"/><path d="m346.96875 267.449219 39.609375 39.59375c1.558594 1.558593 4.085937 1.558593 5.65625 0 1.558594-1.5625 1.558594-4.097657 0-5.65625l-39.601563-39.59375c-1.566406-1.558594-4.097656-1.558594-5.664062 0-1.566406 1.570312-1.566406 4.097656 0 5.65625zm0 0" fill="#4a89dc"/><path d="m329.984375 284.425781 39.601563 39.601563c1.558593 1.558594 4.09375 1.558594 5.65625 0 1.558593-1.5625 1.558593-4.097656 0-5.65625l-39.601563-39.601563c-1.558594-1.558593-4.09375-1.558593-5.65625 0-1.558594 1.558594-1.566406 4.089844 0 5.65625zm0 0" fill="#4a89dc"/><path d="m313.015625 301.394531 39.609375 39.597657c1.558594 1.5625 4.097656 1.5625 5.65625 0 1.558594-1.558594 1.558594-4.09375 0-5.652344l-39.609375-39.601563c-1.558594-1.566406-4.09375-1.566406-5.65625 0-1.566406 1.558594-1.566406 4.078125 0 5.65625zm0 0" fill="#4a89dc"/><path d="m335.648438 357.96875c1.570312 1.570312 4.097656 1.570312 5.65625 0 1.566406-1.558594 1.566406-4.09375 0-5.65625l-39.601563-39.605469c-1.558594-1.5625-4.09375-1.5625-5.652344 0-1.5625 1.558594-1.5625 4.09375 0 5.65625zm0 0" fill="#4a89dc"/><path d="m279.074219 335.347656 39.597656 39.597656c1.5625 1.5625 4.097656 1.5625 5.65625 0 1.5625-1.558593 1.5625-4.09375 0-5.65625l-39.597656-39.597656c-1.5625-1.5625-4.097657-1.5625-5.65625 0-1.5625 1.558594-1.5625 4.09375 0 5.65625zm0 0" fill="#4a89dc"/><path d="m262.105469 352.3125 39.589843 39.601562c1.570313 1.558594 4.097657 1.558594 5.65625 0 1.570313-1.558593 1.570313-4.097656 0-5.65625l-39.589843-39.601562c-1.5625-1.558594-4.097657-1.558594-5.65625 0-1.558594 1.5625-1.558594 4.097656 0 5.65625zm0 0" fill="#4a89dc"/><path d="m292.632812 100.394531 59.503907 59.503907 59.390625 59.40625c-9.34375 9.328124-24.542969 9.394531-33.933594 0l-28.28125-28.277344-28.296875-28.304688-28.390625-28.394531c-9.390625-9.390625-9.34375-24.605469.007812-33.933594zm0 0" fill="#f5f7fa"/></svg>