<svg height="512pt" viewBox="0 0 512 512" width="512pt" xmlns="http://www.w3.org/2000/svg"><path d="m484 384h-32c8.832031 0 16-7.167969 16-16 0-8.839844-7.167969-16-16-16h-32c8.832031 0 16-7.167969 16-16 0-8.839844-7.167969-16-16-16h-48c8.832031 0 16-7.167969 16-16 0-8.839844-7.167969-16-16-16h88c8.832031 0 16-7.167969 16-16 0-8.839844-7.167969-16-16-16h-40c8.832031 0 16-7.167969 16-16 0-8.839844-7.167969-16-16-16h-16c8.832031 0 16-7.167969 16-16 0-8.839844-7.167969-16-16-16h80c8.832031 0 16-7.167969 16-16 0-8.839844-7.167969-16-16-16h-32c8.832031 0 16-7.167969 16-16 0-8.839844-7.167969-16-16-16h-32c8.832031 0 16-7.167969 16-16 0-8.839844-7.167969-16-16-16h-24c8.832031 0 16-7.167969 16-16 0-8.839844-7.167969-16-16-16h-240c-8.832031 0-16 7.160156-16 16 0 8.832031 7.167969 16 16 16h-56c-8.832031 0-16 7.160156-16 16 0 8.832031 7.167969 16 16 16h-16c-8.832031 0-16 7.160156-16 16 0 8.832031 7.167969 16 16 16h48c-8.832031 0-16 7.160156-16 16 0 8.832031 7.167969 16 16 16h-88c-8.832031 0-16 7.160156-16 16 0 8.832031 7.167969 16 16 16h40c-8.832031 0-16 7.160156-16 16 0 8.832031 7.167969 16 16 16h-40c-8.832031 0-16 7.160156-16 16 0 8.832031 7.167969 16 16 16h-16c-8.832031 0-16 7.160156-16 16 0 8.832031 7.167969 16 16 16h40c-8.832031 0-16 7.160156-16 16 0 8.832031 7.167969 16 16 16h-16c-8.832031 0-16 7.160156-16 16 0 8.832031 7.167969 16 16 16h80c-8.832031 0-16 7.160156-16 16 0 8.832031 7.167969 16 16 16h-32c-8.832031 0-16 7.160156-16 16 0 8.832031 7.167969 16 16 16h272c8.832031 0 16-7.167969 16-16 0-8.839844-7.167969-16-16-16h112c8.832031 0 16-7.167969 16-16 0-8.839844-7.167969-16-16-16zm0 0" fill="#656d78"/><path d="m256.007812 512c-141.167968 0-256.007812-114.839844-256.007812-256s114.839844-256 256.007812-256c141.160157 0 255.992188 114.839844 255.992188 256s-114.832031 256-255.992188 256zm0-504c-136.75 0-248.007812 111.246094-248.007812 248s111.257812 248 248.007812 248c136.746094 0 247.992188-111.246094 247.992188-248s-111.246094-248-247.992188-248zm0 0" fill="#e6e9ed"/><path d="m256.007812 464c-114.695312 0-208.007812-93.3125-208.007812-208 0-114.703125 93.3125-208 208.007812-208 114.6875 0 207.992188 93.296875 207.992188 208 0 114.6875-93.304688 208-207.992188 208zm0-408c-110.28125 0-200.007812 89.71875-200.007812 200s89.726562 200 200.007812 200c110.273438 0 199.992188-89.71875 199.992188-200s-89.71875-200-199.992188-200zm0 0" fill="#e6e9ed"/><path d="m256.007812 416c-88.222656 0-160.007812-71.785156-160.007812-160 0-88.230469 71.785156-160 160.007812-160 88.214844 0 159.992188 71.769531 159.992188 160 0 88.214844-71.777344 160-159.992188 160zm0-312c-83.824218 0-152.007812 68.183594-152.007812 152s68.183594 152 152.007812 152c83.816407 0 151.992188-68.183594 151.992188-152s-68.175781-152-151.992188-152zm0 0" fill="#e6e9ed"/><path d="m256.007812 368c-61.761718 0-112.007812-50.246094-112.007812-112 0-61.769531 50.246094-112 112.007812-112 61.753907 0 111.992188 50.230469 111.992188 112 0 61.753906-50.238281 112-111.992188 112zm0-216c-57.351562 0-104.007812 46.65625-104.007812 104s46.65625 104 104.007812 104c57.34375 0 103.992188-46.65625 103.992188-104s-46.648438-104-103.992188-104zm0 0" fill="#e6e9ed"/><path d="m292 256c0 19.882812-16.117188 36-36 36s-36-16.117188-36-36 16.117188-36 36-36 36 16.117188 36 36zm0 0" fill="#ffce54"/><path d="m355.398438 180.609375c0 13.253906-10.742188 24-24 24-13.253907 0-24-10.746094-24-24 0-13.257813 10.746093-24 24-24 13.257812 0 24 10.742187 24 24zm0 0" fill="#ccd1d9"/><path d="m169.929688 366.40625c0 13.257812-10.746094 24-24 24-13.257813 0-24-10.742188-24-24 0-13.253906 10.742187-24 24-24 13.253906 0 24 10.746094 24 24zm0 0" fill="#f6bb42"/><path d="m157.230469 355.097656c8.402343 8.40625 9.210937 21.453125 2.546875 30.832032 1.078125-.769532 2.152344-1.578126 3.117187-2.546876 9.378907-9.375 9.371094-24.558593 0-33.933593-9.375-9.378907-24.566406-9.394531-33.949219 0-.960937.964843-1.777343 2.03125-2.539062 3.109375 9.378906-6.6875 22.425781-5.855469 30.824219 2.539062zm0 0" fill="#ffce54"/><path d="m424.257812 400.246094c0 13.257812-10.746093 24-24 24-13.257812 0-24-10.742188-24-24 0-13.253906 10.742188-24 24-24 13.253907 0 24 10.746094 24 24zm0 0" fill="#4a89dc"/><path d="m388.945312 388.9375c8.398438-8.394531 21.453126-9.203125 30.824219-2.546875-.769531-1.078125-1.570312-2.144531-2.539062-3.109375-9.375-9.378906-24.574219-9.378906-33.941407 0-9.378906 9.375-9.378906 24.558594-.007812 33.933594.976562.984375 2.039062 1.785156 3.117188 2.546875-6.671876-9.371094-5.863282-22.417969 2.546874-30.824219zm0 0" fill="#5d9cec"/><path d="m339.398438 196.609375c-13.253907 0-24-10.753906-24-24 0-4.578125 1.355468-8.800781 3.570312-12.441406-6.914062 4.214843-11.570312 11.753906-11.570312 20.441406 0 13.246094 10.746093 24 24 24 8.679687 0 16.21875-4.65625 20.433593-11.5625-3.640625 2.21875-7.863281 3.5625-12.433593 3.5625zm0 0" fill="#e6e9ed"/><path d="m104.640625 76.640625c0 13.253906-10.746094 24-24 24s-24-10.746094-24-24 10.746094-24 24-24 24 10.746094 24 24zm0 0" fill="#da4453"/><path d="m96.640625 68.640625c0 13.261719-10.753906 24-24 24-4.578125 0-8.800781-1.34375-12.441406-3.5625 4.214843 6.90625 11.753906 11.5625 20.441406 11.5625 13.246094 0 24-10.738281 24-24 0-8.671875-4.65625-16.214844-11.5625-20.425781 2.21875 3.625 3.5625 7.863281 3.5625 12.425781zm0 0" fill="#ed5565"/><path d="m413.367188 392.769531c-4.390626.328125-5.800782-2.25-5.207032-3.015625l-8.238281-2.625c-.714844-.410156-3.585937-.890625-4.5625-1.066406-.679687-.109375-6.558594.625-6.304687 7.625.113281 2.816406 1.882812 4.640625 4.761718 4.6875 2.359375.015625 4.769532-.261719 5.527344 2.546875.65625 2.375.425781 4.855469 1 7.214844.242188.96875.734375 2.296875 1.960938 2.390625 1.824218.167968 3.054687-1.078125 4.167968-2.34375.863282-1.015625 1.96875-1.886719 2.625-3.09375 1.039063-1.890625.75-4.144532 1.847656-6.050782.878907-1.527343 3.824219-6.367187 2.421876-6.269531zm0 0" fill="#a0d468"/><g fill="#ffce54"><path d="m256 208c-2.207031 0-4-1.785156-4-4v-16c0-2.199219 1.792969-4 4-4s4 1.800781 4 4v16c0 2.214844-1.792969 4-4 4zm0 0"/><path d="m256 328c-2.207031 0-4-1.785156-4-4v-16c0-2.199219 1.792969-4 4-4s4 1.800781 4 4v16c0 2.214844-1.792969 4-4 4zm0 0"/><path d="m230 214.96875c-1.375 0-2.726562-.722656-3.464844-2l-8-13.855469c-1.109375-1.90625-.457031-4.359375 1.464844-5.457031 1.894531-1.128906 4.359375-.472656 5.464844 1.457031l8 13.855469c1.109375 1.917969.457031 4.359375-1.464844 5.472656-.632812.359375-1.320312.527344-2 .527344zm0 0"/><path d="m290 318.886719c-1.375 0-2.726562-.71875-3.464844-2l-8-13.855469c-1.109375-1.902344-.457031-4.359375 1.464844-5.457031 1.910156-1.125 4.359375-.453125 5.464844 1.457031l8 13.855469c1.109375 1.921875.457031 4.359375-1.464844 5.472656-.632812.359375-1.320312.527344-2 .527344zm0 0"/><path d="m210.96875 234c-.679688 0-1.367188-.167969-2-.527344l-13.847656-8c-1.914063-1.113281-2.570313-3.542968-1.464844-5.472656 1.105469-1.902344 3.550781-2.558594 5.464844-1.457031l13.847656 8c1.910156 1.097656 2.566406 3.546875 1.464844 5.457031-.738282 1.28125-2.089844 2-3.464844 2zm0 0"/><path d="m314.886719 294c-.679688 0-1.367188-.167969-2-.527344l-13.847657-8c-1.910156-1.113281-2.566406-3.542968-1.464843-5.472656 1.105469-1.902344 3.554687-2.558594 5.464843-1.457031l13.847657 8c1.914062 1.097656 2.570312 3.546875 1.464843 5.457031-.734374 1.28125-2.085937 2-3.464843 2zm0 0"/><path d="m204.007812 260h-15.992187c-2.207031 0-4-1.785156-4-4 0-2.199219 1.792969-4 4-4h15.992187c2.207032 0 4 1.800781 4 4 0 2.214844-1.792968 4-4 4zm0 0"/><path d="m324.007812 260h-15.992187c-2.207031 0-4-1.785156-4-4 0-2.199219 1.792969-4 4-4h15.992187c2.207032 0 4 1.800781 4 4 0 2.214844-1.792968 4-4 4zm0 0"/><path d="m197.128906 294c-1.386718 0-2.730468-.71875-3.472656-2-1.105469-1.921875-.449219-4.359375 1.472656-5.472656l13.855469-8c1.910156-1.09375 4.359375-.4375 5.472656 1.472656 1.101563 1.921875.445313 4.359375-1.472656 5.472656l-13.855469 8c-.632812.359375-1.320312.527344-2 .527344zm0 0"/><path d="m301.046875 234c-1.382813 0-2.726563-.71875-3.472656-2-1.101563-1.921875-.445313-4.359375 1.472656-5.472656l13.855469-8c1.914062-1.09375 4.363281-.4375 5.472656 1.472656 1.105469 1.921875.449219 4.359375-1.472656 5.472656l-13.855469 8c-.632813.359375-1.320313.527344-2 .527344zm0 0"/><path d="m222.015625 318.871094c-.679687 0-1.367187-.167969-2-.527344-1.910156-1.113281-2.566406-3.542969-1.464844-5.472656l8-13.839844c1.113281-1.902344 3.554688-2.558594 5.464844-1.457031 1.914063 1.097656 2.570313 3.546875 1.464844 5.457031l-8 13.839844c-.746094 1.289062-2.089844 2-3.464844 2zm0 0"/><path d="m282.015625 214.953125c-.679687 0-1.367187-.167969-2-.527344-1.910156-1.113281-2.566406-3.546875-1.464844-5.472656l8-13.839844c1.105469-1.921875 3.554688-2.5625 5.464844-1.472656 1.914063 1.113281 2.570313 3.542969 1.464844 5.472656l-8 13.839844c-.738281 1.277344-2.089844 2-3.464844 2zm0 0"/></g></svg>