<svg height="512pt" viewBox="-11 0 511 512" width="512pt" xmlns="http://www.w3.org/2000/svg"><path d="m472.5 383.871094h-31.992188c8.832032 0 16-7.167969 15.992188-16 0-8.832032-7.167969-15.992188-15.992188-15.992188l-32.007812-.007812c8.832031 0 16.007812-7.167969 16-16 .007812-8.832032-7.167969-16-16-16h-48c8.832031 0 16-7.167969 16-16 .007812-8.832032-7.167969-16-16-16h88.007812c8.824219 0 16-7.167969 15.992188-16 0-8.832032-7.167969-16-15.992188-16h-40.007812c8.832031 0 16-7.167969 16-16 .007812-8.832032-7.167969-16-16-16h-15.992188c8.832032 0 16-7.167969 15.992188-16 0-8.832032-7.167969-15.992188-15.992188-15.992188l79.992188-.007812c8.832031 0 16.007812-7.167969 16-16 .007812-8.832032-7.167969-16-16-16h-31.992188c8.832032 0 15.992188-7.167969 15.992188-15.992188 0-8.839844-7.167969-16.007812-16-16.007812h-32c8.832031 0 16.007812-7.167969 16-16 0-8.832032-7.167969-15.992188-16-15.992188l-24-.007812c8.832031 0 16-7.167969 16-16 0-8.832032-7.167969-16-16-16h-240c-8.839844 0-15.992188 7.167968-15.992188 16 0 8.832031 7.152344 16.007812 15.992188 16l-56 .007812c-8.839844-.007812-15.992188 7.160156-15.992188 15.992188-.007812 8.832031 7.160157 16 15.992188 16h-15.992188c-8.847656 0-16.007812 7.167968-16 16 0 8.832031 7.160157 16 16 16h48c-8.839843 0-16.007812 7.167968-16 16-.007812 8.832031 7.152344 16 16 16h-88c-8.847656.007812-16.007812 7.167968-16 16 0 8.832031 7.152344 16 16 16h40c-8.839843-.007813-16.007812 7.167968-16 16-.007812 8.832031 7.160157 16 16 16h-40c-8.847656 0-16 7.167968-16 16-.007812 8.832031 7.152344 16 16 16h-16c-8.847656 0-16.007812 7.167968-16.007812 16 .007812 8.832031 7.167969 16 16 16h40.007812c-8.847656 0-16.007812 7.167968-16 16-.007812 8.832031 7.152344 16 16 16l-16.007812.007812c-8.839844-.007812-15.992188 7.160156-15.992188 15.992188-.007812 8.832031 7.160157 16 15.992188 16h80.007812c-8.847656 0-16.007812 7.167968-16 16-.007812 8.832031 7.160157 16 16 16h-32.007812c-8.839844 0-15.992188 7.167968-15.992188 16-.007812 8.832031 7.160157 16 15.992188 16h272.007812c8.832032 0 15.992188-7.167969 16-16 0-8.832032-7.175781-16-16.007812-16h112c8.832031 0 16.007812-7.167969 16-16 .007812-8.832032-7.167969-16-16-16zm0 0" fill="#656d78"/><path d="m412.5 255.863281c0 94.992188-77.007812 172-172 172s-172-77.007812-172-172c0-94.992187 77.007812-172 172-172s172 77.007813 172 172zm0 0" fill="#5d9cec"/><path d="m329.652344 211.894531c-4.464844 6.042969 6.421875 25.9375 40.261718 23.335938 10.691407-.839844-11.902343 36.539062-18.695312 48.34375-8.460938 14.699219-6.320312 32.074219-14.3125 46.671875-5.023438 9.203125-13.574219 16.089844-20.367188 23.984375-8.464843 9.769531-17.941406 19.335937-32.070312 18.136719-9.394531-.832032-13.207031-11.160157-15.066406-18.503907-4.550782-18.320312-2.605469-37.269531-7.621094-55.6875-6.058594-21.664062-24.539062-19.511719-42.847656-19.710937-22.136719-.28125-35.800782-14.410156-36.640625-36.257813-2.058594-54.015625 43.421875-59.695312 48.632812-58.757812 7.519531 1.382812 29.644531 5.199219 35.214844 8.269531 18.878906 10.320312 38.128906-4.007812 36.640625-11.527344-1.578125-7.625-48.335938-18.496094-64.898438-19.71875-5.941406-.351562-18.136718 4.742188-22.671874-.265625-3.734376-4-.277344-10.421875 2.320312-13.855469 18.304688-24.078124 48.816406-29.945312 74.554688-42.480468.828124-.382813 7.351562-3.648438 8.925781-9.03125 45.558593 17.113281 81.902343 53 99.566406 98.175781-7.527344.929687-23.605469 11.519531-24.078125 14.984375-2.398438 18.863281-39.128906-6.609375-46.847656 3.894531zm0 0" fill="#a0d468"/><path d="m123.722656 289.441406c9.007813 13.109375 18.496094 31.160156 13.65625 47.605469-2.039062 7.058594-6.6875 12.730469-12.183594 17.472656-1.289062 1.121094-15.144531 11.625-16.625 11.625h-.09375c-24.914062-29.847656-39.976562-68.34375-39.976562-110.28125-.007812-11.800781 1.191406-23.328125 3.519531-34.488281 9.390625 5.210938 29.382813 37.648438 34.59375 44.914062 5.496094 7.71875 11.71875 15.230469 17.109375 23.152344zm0 0" fill="#a0d468"/><g fill="#e6e9ed"><path d="m11.652344 241.953125c-2.207032 0-4.039063-1.792969-4.039063-4 0-2.210937 1.75-4 3.949219-4h.089844c2.199218 0 4 1.789063 4 4 0 2.207031-1.800782 4-4 4zm0 0"/><path d="m299.652344 40c-2.207032 0-4.039063-1.792969-4.039063-4s1.742188-4 3.949219-4h.089844c2.199218 0 4 1.792969 4 4s-1.800782 4-4 4zm0 0"/><path d="m475.652344 144c-2.207032 0-4.039063-1.792969-4.039063-4s1.75-4 3.949219-4h.089844c2.199218 0 4 1.792969 4 4s-1.800782 4-4 4zm0 0"/><path d="m451.652344 352c-2.207032 0-4.039063-1.792969-4.039063-4s1.75-4 3.949219-4h.089844c2.199218 0 4 1.792969 4 4s-1.800782 4-4 4zm0 0"/><path d="m339.660156 472c-2.207031 0-4.039062-1.792969-4.039062-4s1.75-4 3.949218-4h.089844c2.199219 0 4 1.792969 4 4s-1.800781 4-4 4zm0 0"/><path d="m195.660156 464c-2.207031 0-4.039062-1.792969-4.039062-4s1.75-4 3.949218-4h.089844c2.199219 0 4 1.792969 4 4s-1.800781 4-4 4zm0 0"/><path d="m43.660156 512c-2.207031 0-4.039062-1.792969-4.039062-4s1.742187-4 3.949218-4h.089844c2.199219 0 4 1.792969 4 4s-1.800781 4-4 4zm0 0"/><path d="m147.652344 64c-2.207032 0-4.039063-1.792969-4.039063-4s1.742188-4 3.949219-4h.089844c2.199218 0 4 1.792969 4 4s-1.800782 4-4 4zm0 0"/><path d="m467.410156 496c-2.207031 0-4-1.792969-4-4l-.007812-32c0-2.207031 1.792968-4 4-4 2.210937 0 4 1.792969 4 4l.007812 32c0 2.207031-1.78125 4-4 4zm0 0"/><path d="m475.402344 480h-16c-2.207032 0-4-1.792969-4-4s1.792968-4 4-4h16c2.210937 0 4 1.792969 4 4s-1.78125 4-4 4zm0 0"/><path d="m27.410156 40c-2.207031 0-4-1.792969-4-4l-.007812-32c0-2.207031 1.792968-4 4-4 2.210937 0 4 1.792969 4 4l.007812 32c0 2.207031-1.78125 4-4 4zm0 0"/><path d="m35.402344 24h-15.992188c-2.207031 0-4-1.792969-4-4s1.792969-4 4-4h15.992188c2.210937 0 4 1.792969 4 4s-1.78125 4-4 4zm0 0"/><path d="m326.605469 107.304688c2.566406 1.496093 5.167969 2.941406 7.65625 4.566406 40.398437-27.199219 69.269531-38.09375 77.75-29.605469 16.054687 16.046875-37.222657 105.109375-139.34375 207.222656-102.136719 102.128907-191.199219 155.414063-207.257813 139.359375-8.597656-8.601562 2.746094-38.207031 30.84375-79.550781-1.625-2.496094-3.058594-5.113281-4.546875-7.679687-30.175781 43.527343-45.496093 79.351562-31.949219 92.886718 25.726563 25.726563 131.804688-52.601562 218.558594-139.359375 86.742188-86.738281 165.070313-192.816406 139.351563-218.542969-13.34375-13.34375-48.359375 1.367188-91.0625 30.703126zm0 0"/></g><path d="m292.277344 303.199219-22.625 22.625c-1.558594 1.558593-4.097656 1.558593-5.65625 0-1.558594-1.558594-1.558594-4.097657 0-5.65625l22.625-22.632813c1.566406-1.558594 4.09375-1.558594 5.65625 0 1.566406 1.578125 1.566406 4.097656 0 5.664063zm0 0" fill="#da4453"/><path d="m269.652344 280.566406-22.640625 22.632813c-1.558594 1.5625-4.097657 1.5625-5.65625 0-1.558594-1.558594-1.558594-4.09375 0-5.65625l22.632812-22.632813c1.558594-1.558594 4.097657-1.558594 5.65625 0 1.558594 1.5625 1.566407 4.097656.007813 5.65625zm0 0" fill="#da4453"/><path d="m280.964844 291.878906-22.632813 22.632813c-1.566406 1.558593-4.097656 1.558593-5.65625 0-1.566406-1.558594-1.566406-4.097657 0-5.65625l22.632813-22.632813c1.558594-1.558594 4.09375-1.558594 5.65625 0 1.558594 1.5625 1.558594 4.097656 0 5.65625zm0 0" fill="#da4453"/><path d="m298.132812 289.054688c0 11.046874-8.957031 20-20 20-11.046874 0-20-8.953126-20-20 0-11.042969 8.953126-20 20-20 11.042969 0 20 8.957031 20 20zm0 0" fill="#ed5565"/></svg>