<svg height="512pt" viewBox="-72 0 512 512" width="512pt" xmlns="http://www.w3.org/2000/svg"><g fill="#ccd1d9"><path d="m268.015625 504.007812c-1.023437 0-2.046875-.390624-2.832031-1.167968l-48.03125-48.03125c-1.558594-1.5625-1.558594-4.097656 0-5.65625s4.09375-1.558594 5.65625 0l48.03125 48.03125c1.558594 1.558594 1.558594 4.097656 0 5.65625-.777344.777344-1.800782 1.167968-2.824219 1.167968zm0 0"/><path d="m219.984375 504.007812c-1.023437 0-2.046875-.390624-2.832031-1.167968-1.558594-1.558594-1.558594-4.097656 0-5.65625l48.03125-48.03125c1.558594-1.558594 4.097656-1.558594 5.65625 0s1.558594 4.09375 0 5.65625l-48.03125 48.03125c-.777344.777344-1.800782 1.167968-2.824219 1.167968zm0 0"/><path d="m268.015625 455.976562c-1.023437 0-2.046875-.390624-2.832031-1.167968l-48.03125-48.03125c-1.558594-1.5625-1.558594-4.097656 0-5.65625 1.558594-1.5625 4.09375-1.5625 5.65625 0l48.03125 48.03125c1.558594 1.558594 1.558594 4.09375 0 5.65625-.777344.777344-1.800782 1.167968-2.824219 1.167968zm0 0"/><path d="m219.984375 455.976562c-1.023437 0-2.046875-.390624-2.832031-1.167968-1.558594-1.5625-1.558594-4.097656 0-5.65625l48.03125-48.03125c1.558594-1.5625 4.097656-1.5625 5.65625 0 1.558594 1.558594 1.558594 4.09375 0 5.65625l-48.03125 48.03125c-.777344.777344-1.800782 1.167968-2.824219 1.167968zm0 0"/><path d="m268.015625 407.945312c-1.023437 0-2.046875-.394531-2.832031-1.167968l-48.03125-48.035156c-1.558594-1.558594-1.558594-4.09375 0-5.652344 1.558594-1.5625 4.09375-1.5625 5.65625 0l48.03125 48.03125c1.558594 1.558594 1.558594 4.09375 0 5.65625-.777344.773437-1.800782 1.167968-2.824219 1.167968zm0 0"/><path d="m219.984375 407.945312c-1.023437 0-2.046875-.394531-2.832031-1.167968-1.558594-1.5625-1.558594-4.097656 0-5.65625l48.03125-48.03125c1.558594-1.5625 4.097656-1.5625 5.65625 0 1.558594 1.558594 1.558594 4.09375 0 5.652344l-48.03125 48.035156c-.777344.773437-1.800782 1.167968-2.824219 1.167968zm0 0"/><path d="m268.015625 359.910156c-1.023437 0-2.046875-.390625-2.832031-1.167968l-48.03125-48.03125c-1.558594-1.558594-1.558594-4.09375 0-5.65625 1.558594-1.558594 4.09375-1.558594 5.65625 0l48.03125 48.035156c1.558594 1.558594 1.558594 4.09375 0 5.652344-.777344.777343-1.800782 1.167968-2.824219 1.167968zm0 0"/><path d="m219.984375 359.910156c-1.023437 0-2.046875-.390625-2.832031-1.167968-1.558594-1.558594-1.558594-4.09375 0-5.652344l48.03125-48.035156c1.558594-1.558594 4.097656-1.558594 5.65625 0 1.558594 1.5625 1.558594 4.097656 0 5.65625l-48.03125 48.03125c-.777344.777343-1.800782 1.167968-2.824219 1.167968zm0 0"/><path d="m268.015625 311.878906c-1.023437 0-2.046875-.390625-2.832031-1.167968l-48.03125-48.03125c-1.558594-1.558594-1.558594-4.09375 0-5.65625 1.558594-1.558594 4.09375-1.558594 5.65625 0l48.03125 48.03125c1.558594 1.5625 1.558594 4.097656 0 5.65625-.777344.785156-1.800782 1.167968-2.824219 1.167968zm0 0"/><path d="m219.984375 311.878906c-1.023437 0-2.046875-.390625-2.832031-1.167968-1.558594-1.558594-1.558594-4.09375 0-5.65625l48.03125-48.03125c1.558594-1.558594 4.097656-1.558594 5.65625 0 1.558594 1.5625 1.558594 4.097656 0 5.65625l-48.03125 48.03125c-.777344.785156-1.800782 1.167968-2.824219 1.167968zm0 0"/><path d="m268.015625 263.847656c-1.023437 0-2.046875-.390625-2.832031-1.167968l-48.03125-48.03125c-1.558594-1.558594-1.558594-4.097657 0-5.65625 1.558594-1.558594 4.09375-1.558594 5.65625 0l48.03125 48.03125c1.558594 1.5625 1.558594 4.097656 0 5.65625-.777344.785156-1.800782 1.167968-2.824219 1.167968zm0 0"/><path d="m219.984375 263.847656c-1.023437 0-2.046875-.390625-2.832031-1.167968-1.558594-1.558594-1.558594-4.09375 0-5.65625l48.03125-48.03125c1.558594-1.558594 4.097656-1.558594 5.65625 0 1.558594 1.558593 1.558594 4.097656 0 5.65625l-48.03125 48.03125c-.777344.785156-1.800782 1.167968-2.824219 1.167968zm0 0"/><path d="m268.015625 215.824219c-1.023437 0-2.046875-.390625-2.832031-1.167969l-48.03125-48.03125c-1.558594-1.5625-1.558594-4.097656 0-5.65625 1.558594-1.5625 4.09375-1.5625 5.65625 0l48.03125 48.03125c1.558594 1.558594 1.558594 4.097656 0 5.65625-.777344.777344-1.800782 1.167969-2.824219 1.167969zm0 0"/><path d="m219.984375 215.824219c-1.023437 0-2.046875-.390625-2.832031-1.167969-1.558594-1.558594-1.558594-4.097656 0-5.65625l48.03125-48.03125c1.558594-1.5625 4.097656-1.5625 5.65625 0 1.558594 1.558594 1.558594 4.09375 0 5.65625l-48.03125 48.03125c-.777344.777344-1.800782 1.167969-2.824219 1.167969zm0 0"/><path d="m268.015625 167.792969c-1.023437 0-2.046875-.394531-2.832031-1.167969l-48.03125-48.03125c-1.558594-1.5625-1.558594-4.097656 0-5.65625 1.558594-1.5625 4.09375-1.5625 5.65625 0l48.03125 48.03125c1.558594 1.558594 1.558594 4.09375 0 5.65625-.777344.773438-1.800782 1.167969-2.824219 1.167969zm0 0"/><path d="m219.984375 167.792969c-1.023437 0-2.046875-.394531-2.832031-1.167969-1.558594-1.5625-1.558594-4.097656 0-5.65625l48.03125-48.03125c1.558594-1.5625 4.097656-1.5625 5.65625 0 1.558594 1.558594 1.558594 4.09375 0 5.65625l-48.03125 48.03125c-.777344.773438-1.800782 1.167969-2.824219 1.167969zm0 0"/><path d="m268.015625 119.761719c-1.023437 0-2.046875-.394531-2.832031-1.167969l-48.03125-48.035156c-1.558594-1.558594-1.558594-4.09375 0-5.65625 1.558594-1.558594 4.09375-1.558594 5.65625 0l48.03125 48.035156c1.558594 1.558594 1.558594 4.09375 0 5.65625-.777344.773438-1.800782 1.167969-2.824219 1.167969zm0 0"/><path d="m219.984375 119.761719c-1.023437 0-2.046875-.394531-2.832031-1.167969-1.558594-1.5625-1.558594-4.097656 0-5.65625l48.03125-48.035156c1.558594-1.558594 4.097656-1.558594 5.65625 0 1.558594 1.5625 1.558594 4.097656 0 5.65625l-48.03125 48.035156c-.777344.773438-1.800782 1.167969-2.824219 1.167969zm0 0"/><path d="m268.015625 71.726562c-1.023437 0-2.046875-.390624-2.832031-1.167968l-48.03125-48.03125c-1.558594-1.558594-1.558594-4.09375 0-5.65625 1.558594-1.558594 4.09375-1.558594 5.65625 0l48.03125 48.03125c1.558594 1.5625 1.558594 4.097656 0 5.65625-.777344.777344-1.800782 1.167968-2.824219 1.167968zm0 0"/><path d="m219.984375 71.726562c-1.023437 0-2.046875-.390624-2.832031-1.167968-1.558594-1.558594-1.558594-4.09375 0-5.65625l48.03125-48.03125c1.558594-1.558594 4.097656-1.558594 5.65625 0 1.558594 1.5625 1.558594 4.097656 0 5.65625l-48.03125 48.03125c-.777344.777344-1.800782 1.167968-2.824219 1.167968zm0 0"/></g><path d="m268 512c-2.207031 0-4-1.792969-4-4v-504c0-2.207031 1.792969-4 4-4s4 1.792969 4 4v504c0 2.207031-1.792969 4-4 4zm0 0" fill="#e6e9ed"/><path d="m220 512c-2.207031 0-4-1.792969-4-4v-504c0-2.207031 1.792969-4 4-4s4 1.792969 4 4v504c0 2.207031-1.792969 4-4 4zm0 0" fill="#e6e9ed"/><path d="m136.015625 504.007812h-16c-2.207031 0-4-1.792968-4-4 0-2.207031 1.792969-4 4-4h16c2.207031 0 4 1.792969 4 4 0 2.207032-1.792969 4-4 4zm0 0" fill="#545c66"/><path d="m159.984375 504.007812h-16c-2.207031 0-4-1.792968-4-4 0-2.207031 1.792969-4 4-4h16c2.207031 0 4 1.792969 4 4 0 2.207032-1.792969 4-4 4zm0 0" fill="#545c66"/><path d="m124.007812 484.007812h16-.015624 23.992187v16h-23.992187.015624-16 .007813-8v-16zm0 0" fill="#656d78"/><path d="m100 348.007812 16-16v152h-16zm0 0" fill="#da4453"/><path d="m180 348.007812v136h-16v-152zm0 0" fill="#da4453"/><path d="m116 84.007812h48v400h-16v-136l-8-8-8 8v136h-16zm0 0" fill="#e6e9ed"/><path d="m140.078125 12.167969c1.363281 2.808593 23.921875 48.558593 23.921875 71.839843h-48c0-24 24-72 24-72s0 .082032.078125.160157zm0 0" fill="#ed5565"/><path d="m364 512h-360c-2.207031 0-4-1.792969-4-4s1.792969-4 4-4h360c2.207031 0 4 1.792969 4 4s-1.792969 4-4 4zm0 0" fill="#656d78"/><path d="m268 8h-104c-2.207031 0-4-1.792969-4-4s1.792969-4 4-4h104c2.207031 0 4 1.792969 4 4s-1.792969 4-4 4zm0 0" fill="#e6e9ed"/><path d="m116 104.007812h48v8h-48zm0 0" fill="#ccd1d9"/><path d="m148 340v144.007812h-16v-144.007812l8-8zm0 0" fill="#ed5565"/><path d="m128 140.007812h-12v160h12c2.199219 0 4-1.800781 4-4v-152c0-2.199218-1.800781-4-4-4zm0 0" fill="#ccd1d9"/></svg>