<svg height="512pt" viewBox="0 -24 512.032 512" width="512pt" xmlns="http://www.w3.org/2000/svg"><path d="m483.800781 352.015625h-32c8.832031 0 16-7.167969 16-16s-7.167969-16-16-16h-32c8.832031 0 16-7.167969 16-16s-7.167969-16-16-16h-48c8.832031 0 16-7.167969 16-16s-7.167969-16-16-16h88c8.832031 0 16-7.167969 16-16s-7.167969-16-16-16h-40c8.832031 0 16-7.167969 16-16s-7.167969-16-16-16h-16c8.832031 0 16-7.167969 16-16s-7.167969-16-16-16h80c8.832031 0 16-7.167969 16-16s-7.167969-16-16-16h-32c8.832031 0 16-7.167969 16-16s-7.167969-16-16-16h-32c8.832031 0 16-7.167969 16-16s-7.167969-16-16-16h-24c8.832031 0 16-7.167969 16-16s-7.167969-16-16-16h-240c-8.839843 0-16 7.167969-16 16s7.160157 16 16 16h-56c-8.839843 0-16 7.167969-16 16s7.160157 16 16 16h-16c-8.839843 0-16 7.167969-16 16s7.160157 16 16 16h48c-8.839843 0-16 7.167969-16 16s7.160157 16 16 16h-88c-8.839843 0-16 7.167969-16 16s7.160157 16 16 16h40c-8.839843 0-16 7.167969-16 16s7.160157 16 16 16h-40c-8.839843 0-16 7.167969-16 16s7.160157 16 16 16h-16c-8.839843 0-16 7.167969-16 16s7.160157 16 16 16h40c-8.839843 0-16 7.167969-16 16s7.160157 16 16 16h-16c-8.839843 0-16 7.167969-16 16s7.160157 16 16 16h80c-8.839843 0-16 7.167969-16 16s7.160157 16 16 16h-32c-8.839843 0-16 7.167969-16 16s7.160157 16 16 16h272c8.832031 0 16-7.167969 16-16s-7.167969-16-16-16h112c8.832031 0 16-7.167969 16-16s-7.175781-16-16-16zm0 0" fill="#656d78"/><path d="m467.800781 60.015625c0 17.671875-14.328125 32-32 32-17.675781 0-32-14.328125-32-32s14.324219-32 32-32c17.671875 0 32 14.328125 32 32zm0 0" fill="#f6bb42"/><path d="m411.800781 60.015625c0-16.296875 12.230469-29.609375 28-31.589844-1.328125-.167969-2.625-.410156-4-.410156-17.671875 0-32 14.328125-32 32s14.328125 32 32 32c1.375 0 2.671875-.230469 4-.40625-15.769531-1.984375-28-15.296875-28-31.59375zm0 0" fill="#ffce54"/><path d="m403.800781 224.015625c0 81.738281-66.261719 148-148 148s-148-66.261719-148-148 66.261719-148 148-148 148 66.261719 148 148zm0 0" fill="#ccd1d9"/><path d="m403.800781 224.015625c0 81.738281-66.261719 148-148 148s-148-66.261719-148-148 66.261719-148 148-148 148 66.261719 148 148zm0 0" fill="#ccd1d9"/><path d="m123.816406 224.015625c0-79.464844 62.6875-144.128906 141.28125-147.664063-3.082031-.199218-6.167968-.335937-9.296875-.335937-81.738281 0-148 66.265625-148 148 0 81.738281 66.261719 148 148 148 3.128907 0 6.214844-.136719 9.296875-.335937-78.59375-3.535157-141.28125-68.191407-141.28125-147.664063zm0 0" fill="#e6e9ed"/><path d="m259.800781 112.015625c0 6.628906-5.375 12-12 12-6.628906 0-12-5.371094-12-12s5.371094-12 12-12c6.625 0 12 5.371094 12 12zm0 0" fill="#aab2bd"/><path d="m299.800781 148.015625c0 4.417969-3.582031 8-8 8s-8-3.582031-8-8 3.582031-8 8-8 8 3.582031 8 8zm0 0" fill="#aab2bd"/><path d="m235.800781 180.015625c0 4.417969-3.582031 8-8 8s-8-3.582031-8-8 3.582031-8 8-8 8 3.582031 8 8zm0 0" fill="#aab2bd"/><path d="m291.800781 228.015625c0 8.835937-7.164062 16-16 16-8.835937 0-16-7.164063-16-16s7.164063-16 16-16c8.835938 0 16 7.164063 16 16zm0 0" fill="#aab2bd"/><path d="m347.800781 304.015625c0 6.628906-5.375 12-12 12-6.628906 0-12-5.371094-12-12s5.371094-12 12-12c6.625 0 12 5.371094 12 12zm0 0" fill="#aab2bd"/><path d="m355.800781 252.015625c0 4.417969-3.582031 8-8 8s-8-3.582031-8-8 3.582031-8 8-8 8 3.582031 8 8zm0 0" fill="#aab2bd"/><path d="m355.800781 196.015625c0 4.417969-3.582031 8-8 8s-8-3.582031-8-8 3.582031-8 8-8 8 3.582031 8 8zm0 0" fill="#aab2bd"/><path d="m179.800781 176.015625c0 6.628906-5.375 12-12 12-6.628906 0-12-5.371094-12-12s5.371094-12 12-12c6.625 0 12 5.371094 12 12zm0 0" fill="#aab2bd"/><path d="m347.800781 140.015625c0 4.417969-3.582031 8-8 8s-8-3.582031-8-8 3.582031-8 8-8 8 3.582031 8 8zm0 0" fill="#aab2bd"/><path d="m227.800781 272.015625c0 6.628906-5.375 12-12 12-6.628906 0-12-5.371094-12-12s5.371094-12 12-12c6.625 0 12 5.371094 12 12zm0 0" fill="#aab2bd"/><path d="m195.800781 324.015625c0 4.417969-3.582031 8-8 8s-8-3.582031-8-8 3.582031-8 8-8 8 3.582031 8 8zm0 0" fill="#aab2bd"/><path d="m267.800781 332.015625c0 4.417969-3.582031 8-8 8s-8-3.582031-8-8 3.582031-8 8-8 8 3.582031 8 8zm0 0" fill="#aab2bd"/><path d="m147.800781 236.015625c0 4.417969-3.582031 8-8 8s-8-3.582031-8-8 3.582031-8 8-8 8 3.582031 8 8zm0 0" fill="#aab2bd"/><path d="m372.03125 24.015625c-2.199219 0-4.03125-1.792969-4.03125-4s1.753906-4 3.953125-4h.078125c2.199219 0 4 1.792969 4 4s-1.800781 4-4 4zm0 0" fill="#e6e9ed"/><path d="m236.03125 8.015625c-2.199219 0-4.03125-1.792969-4.03125-4s1.753906-4 3.953125-4h.078125c2.199219 0 4 1.792969 4 4s-1.800781 4-4 4zm0 0" fill="#e6e9ed"/><path d="m52.03125 104.015625c-2.199219 0-4.03125-1.792969-4.03125-4s1.753906-4 3.953125-4h.078125c2.199219 0 4 1.792969 4 4s-1.800781 4-4 4zm0 0" fill="#e6e9ed"/><path d="m4.03125 160.015625c-2.199219 0-4.03125-1.792969-4.03125-4s1.753906-4 3.953125-4h.078125c2.199219 0 4 1.792969 4 4s-1.800781 4-4 4zm0 0" fill="#e6e9ed"/><path d="m100.03125 344.015625c-2.199219 0-4.03125-1.792969-4.03125-4s1.753906-4 3.953125-4h.078125c2.199219 0 4 1.792969 4 4s-1.800781 4-4 4zm0 0" fill="#e6e9ed"/><path d="m148.03125 40.015625c-2.199219 0-4.03125-1.792969-4.03125-4s1.753906-4 3.953125-4h.078125c2.199219 0 4 1.792969 4 4s-1.800781 4-4 4zm0 0" fill="#e6e9ed"/><path d="m308.03125 40.015625c-2.199219 0-4.03125-1.792969-4.03125-4s1.753906-4 3.953125-4h.078125c2.199219 0 4 1.792969 4 4s-1.800781 4-4 4zm0 0" fill="#e6e9ed"/><path d="m36.03125 312.015625c-2.199219 0-4.03125-1.792969-4.03125-4s1.753906-4 3.953125-4h.078125c2.199219 0 4 1.792969 4 4s-1.800781 4-4 4zm0 0" fill="#e6e9ed"/><path d="m220.03125 408.015625c-2.199219 0-4.03125-1.792969-4.03125-4s1.753906-4 3.953125-4h.078125c2.199219 0 4 1.792969 4 4s-1.800781 4-4 4zm0 0" fill="#e6e9ed"/><path d="m188.03125 464.015625c-2.199219 0-4.03125-1.792969-4.03125-4s1.753906-4 3.953125-4h.078125c2.199219 0 4 1.792969 4 4s-1.800781 4-4 4zm0 0" fill="#e6e9ed"/><path d="m412.03125 448.015625c-2.199219 0-4.03125-1.792969-4.03125-4s1.753906-4 3.953125-4h.078125c2.199219 0 4 1.792969 4 4s-1.800781 4-4 4zm0 0" fill="#e6e9ed"/><path d="m404.03125 376.015625c-2.199219 0-4.03125-1.792969-4.03125-4s1.753906-4 3.953125-4h.078125c2.199219 0 4 1.792969 4 4s-1.800781 4-4 4zm0 0" fill="#e6e9ed"/><path d="m324.03125 440.015625c-2.199219 0-4.03125-1.792969-4.03125-4s1.753906-4 3.953125-4h.078125c2.199219 0 4 1.792969 4 4s-1.800781 4-4 4zm0 0" fill="#e6e9ed"/><path d="m436.03125 312.015625c-2.199219 0-4.03125-1.792969-4.03125-4s1.753906-4 3.953125-4h.078125c2.199219 0 4 1.792969 4 4s-1.800781 4-4 4zm0 0" fill="#e6e9ed"/><path d="m492.03125 248.015625c-2.199219 0-4.03125-1.792969-4.03125-4s1.753906-4 3.953125-4h.078125c2.199219 0 4 1.792969 4 4s-1.800781 4-4 4zm0 0" fill="#e6e9ed"/><path d="m468.03125 176.015625c-2.199219 0-4.03125-1.792969-4.03125-4s1.753906-4 3.953125-4h.078125c2.199219 0 4 1.792969 4 4s-1.800781 4-4 4zm0 0" fill="#e6e9ed"/><path d="m508.03125 120.015625c-2.199219 0-4.03125-1.792969-4.03125-4s1.753906-4 3.953125-4h.078125c2.199219 0 4 1.792969 4 4s-1.800781 4-4 4zm0 0" fill="#e6e9ed"/><path d="m151.800781 440.015625c-.265625 0-.542969-.023437-.816406-.085937-39.71875-8.195313-60.59375-33.984376-61.472656-35.082032-1.375-1.726562-1.097657-4.238281.640625-5.617187 1.71875-1.367188 4.230468-1.101563 5.609375.632812.199219.242188 20.078125 24.640625 56.839843 32.234375 2.160157.445313 3.542969 2.558594 3.09375 4.726563-.382812 1.894531-2.039062 3.191406-3.894531 3.191406zm0 0" fill="#967adc"/><g fill="#aab2bd"><path d="m252.03125 296.015625c-2.199219 0-4.03125-1.792969-4.03125-4s1.753906-4 3.953125-4h.078125c2.199219 0 4 1.792969 4 4s-1.800781 4-4 4zm0 0"/><path d="m172.03125 296.015625c-2.199219 0-4.03125-1.792969-4.03125-4s1.753906-4 3.953125-4h.078125c2.199219 0 4 1.792969 4 4s-1.800781 4-4 4zm0 0"/><path d="m172.03125 256.015625c-2.199219 0-4.03125-1.792969-4.03125-4s1.753906-4 3.953125-4h.078125c2.199219 0 4 1.792969 4 4s-1.800781 4-4 4zm0 0"/><path d="m220.03125 232.015625c-2.199219 0-4.03125-1.792969-4.03125-4s1.753906-4 3.953125-4h.078125c2.199219 0 4 1.792969 4 4s-1.800781 4-4 4zm0 0"/><path d="m228.03125 336.015625c-2.199219 0-4.03125-1.792969-4.03125-4s1.753906-4 3.953125-4h.078125c2.199219 0 4 1.792969 4 4s-1.800781 4-4 4zm0 0"/><path d="m300.03125 328.015625c-2.199219 0-4.03125-1.792969-4.03125-4s1.753906-4 3.953125-4h.078125c2.199219 0 4 1.792969 4 4s-1.800781 4-4 4zm0 0"/><path d="m316.03125 280.015625c-2.199219 0-4.03125-1.792969-4.03125-4s1.753906-4 3.953125-4h.078125c2.199219 0 4 1.792969 4 4s-1.800781 4-4 4zm0 0"/><path d="m284.03125 272.015625c-2.199219 0-4.03125-1.792969-4.03125-4s1.753906-4 3.953125-4h.078125c2.199219 0 4 1.792969 4 4s-1.800781 4-4 4zm0 0"/><path d="m316.03125 232.015625c-2.199219 0-4.03125-1.792969-4.03125-4s1.753906-4 3.953125-4h.078125c2.199219 0 4 1.792969 4 4s-1.800781 4-4 4zm0 0"/><path d="m308.03125 192.015625c-2.199219 0-4.03125-1.792969-4.03125-4s1.753906-4 3.953125-4h.078125c2.199219 0 4 1.792969 4 4s-1.800781 4-4 4zm0 0"/><path d="m204.03125 104.015625c-2.199219 0-4.03125-1.792969-4.03125-4s1.753906-4 3.953125-4h.078125c2.199219 0 4 1.792969 4 4s-1.800781 4-4 4zm0 0"/><path d="m212.03125 144.015625c-2.199219 0-4.03125-1.792969-4.03125-4s1.753906-4 3.953125-4h.078125c2.199219 0 4 1.792969 4 4s-1.800781 4-4 4zm0 0"/><path d="m188.03125 216.015625c-2.199219 0-4.03125-1.792969-4.03125-4s1.753906-4 3.953125-4h.078125c2.199219 0 4 1.792969 4 4s-1.800781 4-4 4zm0 0"/><path d="m140.03125 208.015625c-2.199219 0-4.03125-1.792969-4.03125-4s1.753906-4 3.953125-4h.078125c2.199219 0 4 1.792969 4 4s-1.800781 4-4 4zm0 0"/><path d="m164.03125 144.015625c-2.199219 0-4.03125-1.792969-4.03125-4s1.753906-4 3.953125-4h.078125c2.199219 0 4 1.792969 4 4s-1.800781 4-4 4zm0 0"/><path d="m260.03125 192.015625c-2.199219 0-4.03125-1.792969-4.03125-4s1.753906-4 3.953125-4h.078125c2.199219 0 4 1.792969 4 4s-1.800781 4-4 4zm0 0"/><path d="m364.03125 168.015625c-2.199219 0-4.03125-1.792969-4.03125-4s1.753906-4 3.953125-4h.078125c2.199219 0 4 1.792969 4 4s-1.800781 4-4 4zm0 0"/><path d="m300.03125 120.015625c-2.199219 0-4.03125-1.792969-4.03125-4s1.753906-4 3.953125-4h.078125c2.199219 0 4 1.792969 4 4s-1.800781 4-4 4zm0 0"/><path d="m380.03125 224.015625c-2.199219 0-4.03125-1.792969-4.03125-4s1.753906-4 3.953125-4h.078125c2.199219 0 4 1.792969 4 4s-1.800781 4-4 4zm0 0"/><path d="m364.03125 288.015625c-2.199219 0-4.03125-1.792969-4.03125-4s1.753906-4 3.953125-4h.078125c2.199219 0 4 1.792969 4 4s-1.800781 4-4 4zm0 0"/><path d="m260.03125 360.015625c-2.199219 0-4.03125-1.792969-4.03125-4s1.753906-4 3.953125-4h.078125c2.199219 0 4 1.792969 4 4s-1.800781 4-4 4zm0 0"/></g><path d="m459.800781 416.015625c-2.214843 0-4-1.792969-4-4v-32c0-2.207031 1.785157-4 4-4 2.199219 0 4 1.792969 4 4v32c0 2.207031-1.800781 4-4 4zm0 0" fill="#e6e9ed"/><path d="m467.800781 400.015625h-16c-2.214843 0-4-1.792969-4-4s1.785157-4 4-4h16c2.199219 0 4 1.792969 4 4s-1.800781 4-4 4zm0 0" fill="#e6e9ed"/><path d="m43.800781 256.015625c-2.214843 0-4-1.792969-4-4v-32c0-2.207031 1.785157-4 4-4 2.199219 0 4 1.792969 4 4v32c0 2.207031-1.800781 4-4 4zm0 0" fill="#e6e9ed"/><path d="m51.800781 240.015625h-16c-2.214843 0-4-1.792969-4-4s1.785157-4 4-4h16c2.199219 0 4 1.792969 4 4s-1.800781 4-4 4zm0 0" fill="#e6e9ed"/><path d="m464.214844 45.609375c-7.558594-1.53125-18.6875-2.257813-30.046875 2.742187-11.230469 4.96875-22.527344 3.097657-28.558594 1.441407-.839844 2.511719-1.378906 5.160156-1.578125 7.910156 3.609375.945313 8.59375 1.882813 14.296875 1.882813 5.839844 0 12.441406-.984376 19.078125-3.90625 12.019531-5.3125 24.234375-2.800782 29.839844-1.105469-.542969-3.191407-1.605469-6.175781-3.03125-8.964844zm0 0" fill="#edab37"/><path d="m467.558594 62.367188c-7.3125-1.933594-20.199219-3.832032-33.390625 1.984374-12.015625 5.320313-24.230469 2.800782-29.832031 1.105469.542968 3.207031 1.609374 6.207031 3.046874 9.023438 3.128907.617187 6.832032 1.113281 10.9375 1.113281 5.839844 0 12.441407-.984375 19.078126-3.90625 11.234374-4.96875 22.546874-3.09375 28.5625-1.441406.871093-2.511719 1.398437-5.132813 1.597656-7.878906zm0 0" fill="#edab37"/><path d="m413.160156 51.222656c-2.9375-.34375-5.542968-.886718-7.542968-1.4375v.046875c-.839844 2.503907-1.378907 5.128907-1.578126 7.863281 2.160157.570313 4.839844 1.105469 7.839844 1.464844.074219-2.761718.546875-5.390625 1.28125-7.9375zm0 0" fill="#f6bb42"/><path d="m415.886719 75.449219c-1.421875-2.554688-2.503907-5.3125-3.183594-8.25-3.4375-.421875-6.34375-1.128907-8.359375-1.742188v.007813c.230469 1.34375.59375 2.632812 1 3.902344.113281.359374.214844.738281.34375 1.097656.488281 1.375 1.046875 2.71875 1.703125 4.015625 2.464844.480469 5.394531.824219 8.496094.96875zm0 0" fill="#f6bb42"/><path d="m99.800781 396.015625c0 6.628906-5.375 12-12 12-6.628906 0-12-5.371094-12-12s5.371094-12 12-12c6.625 0 12 5.371094 12 12zm0 0" fill="#ac92ec"/></svg>