<svg height="511pt" viewBox="0 -2 511.09451 511" width="511pt" xmlns="http://www.w3.org/2000/svg"><path d="m475.785156 324.042969h-23.992187c8.832031 0 16-7.167969 16-16s-7.167969-16-16-16h-32c8.832031 0 16-7.167969 16-16s-7.167969-16-16-16h-48c8.832031 0 16-7.167969 16-16s-7.167969-16-16-16h88c8.832031 0 16-7.167969 16-16s-7.167969-16-16-16h-40c8.832031 0 16-7.167969 16-16s-7.167969-16-16-16h-16c8.832031 0 16-7.167969 16-16s-7.167969-16-16-16h80c8.832031 0 16-7.167969 16-16s-7.167969-16-16-16h-32c8.832031 0 16-7.167969 16-16s-7.167969-16-16-16h-32c8.832031 0 16-7.167969 16-16s-7.167969-16-16-16h-24c8.832031 0 16-7.167969 16-16s-7.167969-16-16-16h-240c-8.839844 0-16 7.167969-16 16s7.160156 16 16 16h-56c-8.839844 0-16 7.167969-16 16s7.160156 16 16 16h-16c-8.839844 0-16 7.167969-16 16s7.160156 16 16 16h48c-8.839844 0-16 7.167969-16 16s7.160156 16 16 16h-88c-8.839844 0-16 7.167969-16 16s7.160156 16 16 16h40c-8.839844 0-16 7.167969-16 16s7.160156 16 16 16h-40c-8.839844 0-16 7.167969-16 16s7.160156 16 16 16h-16c-8.839844 0-16 7.167969-16 16s7.160156 16 16 16h40c-8.839844 0-16 7.167969-16 16s7.160156 16 16 16h-16c-8.839844 0-16 7.167969-16 16s7.160156 16 16 16h80c-8.839844 0-16 7.167969-16 16s7.160156 16 16 16h-32c-8.839844 0-16 7.167969-16 16s7.160156 16 16 16h272c8.832031 0 16-7.167969 16-16s-7.167969-16-16-16h103.992187c8.832032 0 16-7.167969 16-16s-7.167968-16-16-16zm0 0" fill="#656d78"/><path d="m507.792969 378.6875v80c0-32-16-44.078125-48-56-9.519531-3.597656-24.320313-8.878906-40-15.039062h-9.28125c.242187-.167969.398437-.320313.558593-.398438.480469-.320312.722657-.5625.722657-.5625v-56h48c26.566406 0 48 21.441406 48 48zm0 0" fill="#ccd1d9"/><path d="m91.792969 387.648438c-15.679688 6.160156-30.480469 11.441406-40 15.039062-32 11.921875-48 24-48 56v-80c0-26.558594 21.4375-48 48-48h48v56s.398437.402344 1.277343 1.042969l-1.277343-.082031zm0 0" fill="#ccd1d9"/><path d="m419.792969 190.671875c0 2.203125-1.800781 4-4 4h-8c-2.199219 0-4-1.796875-4-4v-24c0-2.199219 1.800781-4 4-4h8c2.199219 0 4 1.800781 4 4zm0 0" fill="#ccd1d9"/><path d="m107.792969 190.671875c0 2.203125-1.800781 4-4 4h-8c-2.199219 0-4-1.796875-4-4v-24c0-2.199219 1.800781-4 4-4h8c2.199219 0 4 1.800781 4 4zm0 0" fill="#ccd1d9"/><path d="m507.792969 26.679688c0 13.257812-10.746094 24-24 24-13.253907 0-24-10.742188-24-24 0-13.253907 10.746093-24 24-24 13.253906 0 24 10.746093 24 24zm0 0" fill="#967adc"/><path d="m467.792969 26.679688c0-11.878907 8.664062-21.679688 20-23.589844-1.304688-.222656-2.632813-.410156-4-.410156-13.257813 0-24 10.753906-24 24 0 13.257812 10.742187 24 24 24 1.367187 0 2.695312-.175782 4-.40625-11.335938-1.902344-20-11.703126-20-23.59375zm0 0" fill="#ac92ec"/><path d="m307.792969 450.671875h-104c-8.882813 0-16 7.121094-16 16v-16c0-8.878906 7.117187-16 16-16h104c8.878906 0 16 7.121094 16 16v16c0-8.878906-7.113281-16-16-16zm0 0" fill="#545c66"/><path d="m203.792969 450.671875h104c8.878906 0 16 7.121094 16 16v40h-136v-40c0-8.878906 7.117187-16 16-16zm0 0" fill="#656d78"/><path d="m51.792969 386.671875c9.519531-3.597656 49.277343-14.957031 49.277343-14.957031 3.121094 2.238281 12.5625 7.757812 34.722657 12.804687 12 2.722657 27.597656 5.363281 48 7.195313 13.757812 1.277344 29.679687 2.238281 48 2.71875 7.597656.167968 15.597656.238281 24 .238281 8.398437 0 16.398437-.078125 24-.238281 18.320312-.480469 34.238281-1.441406 48-2.71875 20.398437-1.832032 36.078125-4.480469 48-7.195313 23.839843-5.445312 32.878906-11.367187 35.277343-13.277343 0 0 39.195313 11.832031 48.722657 15.4375 32 11.921874 48 24 48 56v64h-184v-56c0-8.878907-7.121094-16-16-16h-104c-8.882813 0-16 7.121093-16 16v56h-184s0-32 0-64 16-44.085938 48-56.007813zm0 0" fill="#e6e9ed"/><path d="m375.792969 368.519531c-11.921875 2.722657-27.601563 5.363281-48 7.195313-13.761719 1.277344-29.679688 2.238281-48 2.71875-7.601563.167968-15.601563.238281-24 .238281-8.402344 0-16.402344-.078125-24-.238281-18.320313-.480469-34.242188-1.441406-48-2.71875-20.402344-1.832032-36-4.480469-48-7.195313-28.722657-6.558593-36-13.839843-36-13.839843v16s.398437.402343 1.277343 1.042968c3.121094 2.238282 12.5625 7.757813 34.722657 12.804688 12 2.722656 27.597656 5.363281 48 7.195312 13.757812 1.277344 29.679687 2.238282 48 2.71875 7.597656.167969 15.597656.238282 24 .238282 8.398437 0 16.398437-.078126 24-.238282 18.320312-.480468 34.238281-1.441406 48-2.71875 20.398437-1.832031 36.078125-4.480468 48-7.195312 23.839843-5.445313 32.878906-11.367188 35.277343-13.277344.480469-.320312.722657-.5625.722657-.5625v-16c0-.015625-7.28125 7.265625-36 13.832031zm0 0" fill="#656d78"/><path d="m410.59375 139.792969c-9.273438-77.273438-75.042969-137.121094-154.800781-137.121094-79.761719 0-145.519531 59.839844-154.800781 137.121094-.808594 6.167969-1.199219 12.488281-1.199219 18.878906v196s7.277343 7.28125 36 13.839844c12 2.722656 27.597656 5.363281 48 7.195312 13.757812 1.277344 29.679687 2.238281 48 2.71875 7.597656.167969 15.597656.238281 24 .238281 8.398437 0 16.398437-.078124 24-.238281 18.320312-.480469 34.238281-1.441406 48-2.71875 20.398437-1.832031 36.078125-4.480469 48-7.195312 28.71875-6.558594 36-13.839844 36-13.839844v-196c0-6.398437-.402344-12.71875-1.199219-18.878906zm-242.800781 206.878906c-6.640625 0-12-5.359375-12-12 0-6.636719 5.359375-12 12-12s12 5.363281 12 12c0 6.640625-5.359375 12-12 12zm176 0c-6.640625 0-12-5.359375-12-12 0-6.636719 5.359375-12 12-12s12 5.363281 12 12c0 6.640625-5.359375 12-12 12zm44-88c0 22.082031-17.921875 40-40 40h-184c-22.082031 0-40-17.917969-40-40v-112c0-1.359375.078125-2.71875.238281-4.078125 2-20.167969 19.039062-35.921875 39.761719-35.921875h184c20.71875 0 37.757812 15.761719 39.757812 35.921875.167969 1.359375.242188 2.71875.242188 4.078125zm0 0" fill="#e6e9ed"/><path d="m387.550781 142.59375c-2-20.167969-19.039062-35.921875-39.757812-35.921875h-184c-20.722657 0-37.761719 15.761719-39.761719 35.921875-.167969 1.359375-.238281 2.71875-.238281 4.078125v112c0 22.082031 17.917969 40 40 40h184c22.078125 0 40-17.917969 40-40v-112c0-1.359375-.082031-2.71875-.242188-4.078125zm0 0" fill="#5d9cec"/><path d="m283.792969 106.671875h-37.511719l-51.449219 192h41.414063l51.449218-192zm0 0" fill="#87bcf4"/><path d="m252.808594 298.671875 51.449218-192h-8.273437l-51.457031 192zm0 0" fill="#87bcf4"/><path d="m60.039062 78.671875h-.085937c-2.199219 0-3.953125 1.792969-3.953125 4 0 2.210937 1.832031 4 4.039062 4 2.199219 0 4-1.789063 4-4 0-2.207031-1.800781-4-4-4zm0 0" fill="#e6e9ed"/><path d="m20.039062 14.671875h-.085937c-2.199219 0-3.953125 1.792969-3.953125 4 0 2.210937 1.832031 4 4.039062 4 2.199219 0 4-1.789063 4-4 0-2.207031-1.800781-4-4-4zm0 0" fill="#e6e9ed"/><path d="m492.382812 254.671875h-.085937c-2.199219 0-3.953125 1.792969-3.953125 4 0 2.210937 1.832031 4 4.039062 4 2.203126 0 4-1.789063 4-4 0-2.207031-1.789062-4-4-4zm0 0" fill="#e6e9ed"/><path d="m468.039062 134.671875h-.085937c-2.199219 0-3.953125 1.792969-3.953125 4 0 2.210937 1.832031 4 4.039062 4 2.199219 0 4-1.789063 4-4 0-2.207031-1.800781-4-4-4zm0 0" fill="#e6e9ed"/><path d="m380.039062.0507812h-.085937c-2.199219 0-3.953125 1.7890628-3.953125 3.9999998 0 2.207031 1.832031 4 4.039062 4 2.199219 0 4-1.792969 4-4 0-2.210937-1.800781-3.9999998-4-3.9999998zm0 0" fill="#e6e9ed"/><path d="m4.039062 158.671875h-.085937c-2.199219 0-3.953125 1.792969-3.953125 4 0 2.210937 1.832031 4 4.039062 4 2.199219 0 4-1.789063 4-4 0-2.207031-1.800781-4-4-4zm0 0" fill="#e6e9ed"/><path d="m43.792969 246.671875h-4v-12c0-2.207031-1.792969-4-4-4s-4 1.792969-4 4v12h-4c-2.207031 0-4 1.792969-4 4 0 2.210937 1.792969 4 4 4h4v12c0 2.210937 1.792969 4 4 4s4-1.789063 4-4v-12h4c2.207031 0 4-1.789063 4-4 0-2.207031-1.785157-4-4-4zm0 0" fill="#e6e9ed"/><path d="m463.128906 53.96875c-1.855468 0-3.503906-.550781-4.792968-1.839844-1.558594-1.558594-1.558594-4.09375 0-5.65625 1.390624-1.382812 3.535156-1.535156 5.097656-.472656 2.566406-.152344 11.664062-4.976562 23.183594-16.503906 11.519531-11.527344 16.351562-20.613282 16.503906-23.183594-1.074219-1.550781-.921875-3.710938.472656-5.09375 1.558594-1.5625 4.09375-1.5625 5.652344 0 8.082031 8.078125-12.71875 29.6875-16.964844 33.933594-3.570312 3.578125-19.394531 18.816406-29.152344 18.816406zm0 0" fill="#ac92ec"/><path d="m131.792969 367.554688v15.972656c1.328125.328125 2.558593.65625 4 .984375 1.230469.28125 2.6875.554687 4 .832031v-16c-1.3125-.269531-2.769531-.542969-4-.832031-1.402344-.320313-2.703125-.636719-4-.957031zm0 0" fill="#545c66"/><path d="m179.792969 375.289062v16c1.367187.136719 2.582031.296876 4 .425782 1.277343.117187 2.679687.214844 4 .335937v-16c-1.320313-.121093-2.722657-.21875-4-.335937-1.417969-.128906-2.632813-.289063-4-.425782zm0 0" fill="#545c66"/><path d="m227.792969 378.296875v16c1.351562.039063 2.621093.097656 4 .136719 1.296875.03125 2.679687.039062 4 .0625v-16c-1.320313-.023438-2.703125-.03125-4-.0625-1.378907-.039063-2.648438-.097656-4-.136719zm0 0" fill="#545c66"/><path d="m275.792969 378.496094v16c1.320312-.023438 2.703125-.03125 4-.0625 1.375-.039063 2.648437-.097656 4-.136719v-16c-1.351563.039063-2.625.097656-4 .136719-1.296875.03125-2.679688.039062-4 .0625zm0 0" fill="#545c66"/><path d="m323.792969 376.050781v16c1.320312-.121093 2.71875-.21875 4-.335937 1.414062-.128906 2.632812-.289063 4-.425782v-16c-1.367188.136719-2.585938.296876-4 .425782-1.28125.117187-2.679688.214844-4 .335937zm0 0" fill="#545c66"/><path d="m371.792969 369.351562v16c1.3125-.277343 2.765625-.550781 4-.832031 1.445312-.328125 2.664062-.664062 4-.992187v-15.964844c-1.296875.320312-2.601563.640625-4 .957031-1.234375.28125-2.6875.554688-4 .832031zm0 0" fill="#545c66"/><path d="m331.792969 278.671875c-2.207031 0-4-1.789063-4-4 0-2.207031 1.792969-4 4-4 19.847656 0 36-16.152344 36-36 0-2.207031 1.792969-4 4-4s4 1.792969 4 4c0 24.257813-19.746094 44-44 44zm0 0" fill="#545c66"/><path d="m319.792969 262.671875c-8.96875 0-16 5.273437-16 12 0 6.730469 7.03125 12 16 12s16-5.269531 16-12c0-6.726563-7.03125-12-16-12zm0 0" fill="#656d78"/><g fill="#ccd1d9"><path d="m235.792969 350.671875c-2.207031 0-4-1.789063-4-4v-16c0-2.207031 1.792969-4 4-4s4 1.792969 4 4v16c0 2.210937-1.785157 4-4 4zm0 0"/><path d="m255.792969 358.671875c-2.207031 0-4-1.789063-4-4v-32c0-2.207031 1.792969-4 4-4s4 1.792969 4 4v32c0 2.210937-1.785157 4-4 4zm0 0"/><path d="m275.792969 350.671875c-2.207031 0-4-1.789063-4-4v-16c0-2.207031 1.792969-4 4-4s4 1.792969 4 4v16c0 2.210937-1.785157 4-4 4zm0 0"/><path d="m108.070312 486.402344c-15.4375 0-28-12.5625-28-28 0-15.441406 12.5625-28 28-28 15.441407 0 28 12.558594 28 28 0 15.4375-12.558593 28-28 28zm0-48c-11.03125 0-20 8.96875-20 20s8.96875 20 20 20c11.035157 0 20-8.96875 20-20s-8.964843-20-20-20zm0 0"/><path d="m97.792969 458.96875c-1.289063 0-2.554688-.625-3.328125-1.785156-1.226563-1.832032-.730469-4.316406 1.109375-5.542969l20.5625-13.710937c1.816406-1.214844 4.3125-.738282 5.542969 1.113281 1.222656 1.832031.726562 4.316406-1.113282 5.542969l-20.558594 13.710937c-.671874.457031-1.449218.671875-2.214843.671875zm0 0"/><path d="m118.359375 465.832031c-.421875 0-.839844-.0625-1.261719-.199219l-20.5625-6.855468c-2.09375-.703125-3.222656-2.96875-2.527344-5.0625.710938-2.097656 2.976563-3.226563 5.0625-2.53125l20.5625 6.859375c2.09375.703125 3.222657 2.964843 2.527344 5.0625-.566406 1.664062-2.128906 2.726562-3.800781 2.726562zm0 0"/><path d="m97.792969 479.539062c-1.289063 0-2.554688-.625-3.328125-1.785156-1.226563-1.832031-.730469-4.320312 1.109375-5.542968l20.5625-13.714844c1.816406-1.214844 4.3125-.734375 5.542969 1.113281 1.222656 1.832031.726562 4.320313-1.113282 5.542969l-20.558594 13.714844c-.671874.453124-1.449218.671874-2.214843.671874zm0 0"/></g><path d="m299.792969 478.671875h-88c-2.207031 0-4-1.789063-4-4 0-2.207031 1.792969-4 4-4h88c2.207031 0 4 1.792969 4 4 0 2.210937-1.785157 4-4 4zm0 0" fill="#545c66"/><path d="m299.792969 494.671875h-88c-2.207031 0-4-1.789063-4-4 0-2.207031 1.792969-4 4-4h88c2.207031 0 4 1.792969 4 4 0 2.210937-1.785157 4-4 4zm0 0" fill="#545c66"/><path d="m179.792969 338.671875c0 6.628906-5.375 12-12 12-6.628907 0-12-5.371094-12-12 0-6.625 5.371093-12 12-12 6.625 0 12 5.375 12 12zm0 0" fill="#ccd1d9"/><path d="m355.792969 338.671875c0 6.628906-5.375 12-12 12-6.628907 0-12-5.371094-12-12 0-6.625 5.371093-12 12-12 6.625 0 12 5.375 12 12zm0 0" fill="#ccd1d9"/><path d="m179.792969 334.671875c0 6.628906-5.375 12-12 12-6.628907 0-12-5.371094-12-12 0-6.625 5.371093-12 12-12 6.625 0 12 5.375 12 12zm0 0" fill="#f5f7fa"/><path d="m355.792969 334.671875c0 6.628906-5.375 12-12 12-6.628907 0-12-5.371094-12-12 0-6.625 5.371093-12 12-12 6.625 0 12 5.375 12 12zm0 0" fill="#f5f7fa"/><path d="m411.792969 446.664062c0 6.628907-5.375 12-12 12-6.628907 0-12-5.371093-12-12 0-6.625 5.371093-12 12-12 6.625 0 12 5.375 12 12zm0 0" fill="#ccd1d9"/><path d="m411.792969 442.664062c0 6.628907-5.375 12-12 12-6.628907 0-12-5.371093-12-12 0-6.625 5.371093-12 12-12 6.625 0 12 5.375 12 12zm0 0" fill="#f5f7fa"/><path d="m411.792969 486.664062c0 6.628907-5.375 12-12 12-6.628907 0-12-5.371093-12-12 0-6.625 5.371093-12 12-12 6.625 0 12 5.375 12 12zm0 0" fill="#ccd1d9"/><path d="m411.792969 482.664062c0 6.628907-5.375 12-12 12-6.628907 0-12-5.371093-12-12 0-6.625 5.371093-12 12-12 6.625 0 12 5.375 12 12zm0 0" fill="#f5f7fa"/></svg>