<svg height="505pt" viewBox="0 -89 505.64678 505" width="505pt" xmlns="http://www.w3.org/2000/svg"><path d="m465.496094 104.324219c0 2.71875.160156 5.359375.3125 8h-177.050782c1.113282-2.640625 1.746094-5.28125 1.746094-8 0-2.722657-.632812-5.359375-1.746094-8h177.050782c-.152344 2.550781-.3125 5.277343-.3125 8zm0 0" fill="#545c66"/><path d="m129.648438 228.316406h-31.363282l3.042969-4.394531s3.832031-7.046875-13.679687-16.636719c-17.601563-9.523437-21.363282-2.488281-21.363282-2.488281l-.238281.320313-.398437-.320313.078124-31.839844 1.128907-3.128906c13.359375 4.960937 28.953125 16.816406 46.800781 19.367187v19.128907c0 5.917969 3.199219 11.121093 8 13.917969zm0 0" fill="#656d78"/><path d="m121.648438 222.242188c-4.800782-2.808594-8-8-8-13.917969v-19.128907c8.871093 1.199219 18.316406 2.089844 28.230468 2.558594l-16 32.082032c-1.519531-.320313-2.953125-.871094-4.230468-1.59375zm0 0" fill="#ed5565"/><path d="m185.648438 180.300781c-2.210938 0-4 1.789063-4 4v24.015625c0 6.613282-5.386719 12-12 12h-40c-6.617188 0-12-5.386718-12-12v-24.015625c0-2.210937-1.792969-4-4-4-2.210938 0-4 1.789063-4 4v24.015625c0 11.03125 8.964843 20 20 20h40c11.03125 0 20-8.96875 20-20v-24.015625c0-2.210937-1.792969-4-4-4zm0 0" fill="#656d78"/><path d="m157.648438 176.324219c12.398437 0 24.488281-.808594 36-2.402344v17.042969c-2.640626.230468-5.363282.398437-8.082032.550781-7.601562.558594-15.601562.808594-23.917968.808594-17.441407 0-33.441407-1.128907-48-3.128907-17.839844-2.550781-33.441407-6.398437-46.800782-11.359374-9.601562-3.441407-18-7.441407-25.199218-11.832032v-21.359375c25.117187 19.117188 67.679687 31.679688 116 31.679688zm0 0" fill="#ccd1d9"/><path d="m87.648438 207.285156c-17.601563-9.523437-21.363282-2.488281-21.363282-2.488281l-.238281.320313-4.320313 5.679687-10 13.039063-14.71875 19.28125-14.722656 19.359374-14.71875 19.277344-5.128906 6.722656s-7.589844 14.085938 24 31.277344c31.601562 17.203125 39.28125 3.121094 39.28125 3.121094l2.878906-7.910156 8.167969-22.808594 8.234375-22.871094 8.238281-22.882812 5.039063-14.078125 3.042968-8.402344c.007813 0 3.839844-7.046875-13.671874-16.636719zm0 0" fill="#da4453"/><path d="m473.648438 88.324219v32l-16-8v-16zm0 0" fill="#656d78"/><path d="m26.085938 109.683594c.242187 1.457031-1.359376 2.640625-3.558594 2.640625h-8.871094c-2.203125 0-4-1.800781-4-4v-8c0-2.199219 1.796875-4 4-4h8.871094c2.199218 0 3.808594 1.183593 3.558594 2.640625-.246094 1.453125-.238282 9.261718 0 10.71875zm0 0" fill="#da4453"/><path d="m296.765625 112.324219c-3.046875 14.320312-14.246094 27.359375-31.125 37.757812-4.875 3.121094-10.234375 5.921875-16 8.488281-5.042969 2.234376-10.402344 4.3125-16 6.160157v.082031c-12.160156 4.078125-25.601563 7.125-40 9.125-11.515625 1.59375-23.601563 2.402344-36 2.402344-48.320313 0-90.875-12.558594-116-31.679688-12.402344-9.449218-20.5625-20.488281-23.128906-32.320312-.554688-2.640625-.871094-5.28125-.871094-8s.316406-5.359375.871094-8c4.558593-21.359375 27.359375-39.921875 60.167969-51.449219 22.480468-7.910156 49.597656-12.550781 78.960937-12.550781 48.316406 0 90.871094 12.550781 116 31.679687 12.398437 9.441407 20.558594 20.480469 23.125 32.320313.554687 2.640625.875 5.28125.875 8s-.3125 5.34375-.875 7.984375zm0 0" fill="#ed5565"/><path d="m273.648438 64.003906c-25.128907-19.128906-67.683594-31.679687-116-31.679687-29.363282 0-56.488282 4.640625-78.960938 12.550781l-.082031-.160156-20.957031-44.390625c184 8 216 64.007812 216 64.007812zm0 0" fill="#ffce54"/><path d="m57.640625 92.324219c2.199219 0 4 1.757812 4 4 0 2.191406-1.800781 4-4 4-2.203125 0-4-1.808594-4-4 0-2.242188 1.789063-4 4-4zm0 0" fill="#da4453"/><path d="m73.621094 92.324219c2.203125 0 4 1.757812 4 4 0 2.191406-1.796875 4-4 4-2.191406 0-4-1.808594-4-4 0-2.242188 1.800781-4 4-4zm0 0" fill="#da4453"/><path d="m89.640625 92.324219c2.199219 0 4 1.757812 4 4 0 2.191406-1.800781 4-4 4-2.195313 0-4-1.808594-4-4 0-2.242188 1.796875-4 4-4zm0 0" fill="#da4453"/><g fill="#ed5565"><path d="m72.109375 320.914062c-.648437 0-1.300781-.160156-1.910156-.488281l-68.113281-37.0625c-1.933594-1.054687-2.65625-3.488281-1.597657-5.433593 1.0625-1.933594 3.496094-2.644532 5.429688-1.597657l68.113281 37.0625c1.933594 1.058594 2.65625 3.488281 1.597656 5.433594-.726562 1.328125-2.101562 2.085937-3.519531 2.085937zm0 0"/><path d="m80.328125 298.066406c-.648437 0-1.304687-.160156-1.914063-.488281l-61.589843-33.511719c-1.9375-1.054687-2.65625-3.488281-1.601563-5.429687 1.0625-1.9375 3.496094-2.648438 5.433594-1.601563l61.589844 33.511719c1.9375 1.054687 2.65625 3.488281 1.601562 5.433594-.730468 1.328125-2.105468 2.085937-3.519531 2.085937zm0 0"/><path d="m88.550781 275.210938c-.648437 0-1.304687-.160157-1.910156-.488282l-55.097656-29.96875c-1.9375-1.054687-2.65625-3.488281-1.601563-5.429687 1.066406-1.9375 3.496094-2.648438 5.433594-1.601563l55.097656 29.976563c1.933594 1.054687 2.652344 3.488281 1.597656 5.433593-.734374 1.328126-2.105468 2.078126-3.519531 2.078126zm0 0"/><path d="m96.765625 252.355469c-.648437 0-1.304687-.160157-1.910156-.488281l-48.585938-26.433594c-1.933593-1.054688-2.65625-3.484375-1.597656-5.429688 1.0625-1.9375 3.496094-2.648437 5.429687-1.601562l48.585938 26.441406c1.933594 1.054688 2.65625 3.488281 1.597656 5.429688-.726562 1.320312-2.101562 2.082031-3.519531 2.082031zm0 0"/></g><path d="m161.648438 140.316406c-19.851563 0-36-16.152344-36-36s16.148437-36 36-36c19.847656 0 36 16.152344 36 36s-16.152344 36-36 36zm0-64c-15.441407 0-28 12.558594-28 28 0 15.4375 12.558593 28 28 28 15.4375 0 28-12.5625 28-28 0-15.441406-12.570313-28-28-28zm0 0" fill="#ffce54"/><path d="m147.933594 103.746094c-1.285156 0-2.550782-.621094-3.328125-1.78125-1.222657-1.832032-.726563-4.320313 1.113281-5.546875l32.238281-21.503907c1.816407-1.214843 4.3125-.734374 5.546875 1.113282 1.222656 1.832031.726563 4.320312-1.113281 5.542968l-32.238281 21.503907c-.679688.449219-1.457032.671875-2.21875.671875zm0 0" fill="#ffce54"/><path d="m175.351562 112.882812c-.425781 0-.839843-.0625-1.265624-.199218l-27.421876-9.144532c-2.097656-.703124-3.226562-2.96875-2.527343-5.0625.710937-2.097656 2.980469-3.226562 5.0625-2.527343l27.421875 9.140625c2.097656.707031 3.226562 2.96875 2.53125 5.066406-.5625 1.664062-2.128906 2.726562-3.800782 2.726562zm0 0" fill="#ffce54"/><path d="m143.109375 134.394531c-1.285156 0-2.550781-.625-3.328125-1.78125-1.222656-1.832031-.726562-4.320312 1.113281-5.546875l32.242188-21.503906c1.820312-1.214844 4.308593-.734375 5.542969 1.113281 1.222656 1.832031.726562 4.320313-1.113282 5.542969l-32.238281 21.503906c-.671875.449219-1.449219.671875-2.21875.671875zm0 0" fill="#ffce54"/><path d="m90.101562 116.308594h-31.984374c-2.207032 0-4-1.792969-4-4 0-2.210938 1.792968-4 4-4h31.984374c2.210938 0 4 1.789062 4 4 0 2.207031-1.78125 4-4 4zm0 0" fill="#da4453"/><path d="m233.648438 140.316406c-2.210938 0-4 1.789063-4 4v21.710938c1.328124-.414063 2.703124-.792969 4-1.222656v-.082032c1.367187-.457031 2.664062-.953125 4-1.429687v-18.976563c0-2.210937-1.792969-4-4-4zm0 0" fill="#da4453"/><path d="m249.648438 140.316406c-2.210938 0-4 1.789063-4 4v15.902344c1.335937-.550781 2.703124-1.085938 4-1.65625 1.382812-.613281 2.664062-1.289062 4-1.933594v-12.3125c0-2.210937-1.792969-4-4-4zm0 0" fill="#da4453"/><path d="m265.648438 150.082031c1.390624-.855469 2.6875-1.757812 4-2.65625v-3.109375c0-2.210937-1.792969-4-4-4-2.210938 0-4 1.789063-4 4v8.085938c1.335937-.773438 2.71875-1.511719 4-2.320313zm0 0" fill="#da4453"/><path d="m389.472656 112.316406c-.792968 26.359375-5.226562 40.734375-7.832031 43.671875-2.609375-2.945312-7.066406-17.351562-7.84375-43.792969-.078125-2.601562-.15625-5.191406-.15625-7.871093 0-2.679688.078125-5.359375.15625-7.878907.785156-26.464843 5.234375-40.867187 7.84375-43.792968 2.597656 2.910156 7.046875 17.285156 7.832031 43.664062h8.007813c0-.03125 0-.082031 0-.113281-.363281-12.167969-2.570313-51.878906-15.839844-51.878906-13.273437 0-15.488281 39.710937-15.84375 51.871093-.078125 2.59375-.15625 5.367188-.15625 8.128907 0 2.757812.078125 5.429687.15625 8.121093.363281 12.167969 2.570313 51.878907 15.84375 51.878907 13.269531 0 15.484375-39.710938 15.839844-51.890625 0-.039063 0-.078125 0-.117188zm0 0" fill="#ffce54"/><path d="m501.648438 88.324219h-8c-2.203126 0-5.800782 0-8 0h-12v32h12 8 8c2.199218 0 4-1.800781 4-4v-24c0-2.199219-1.800782-4-4-4zm0 0" fill="#ccd1d9"/><path d="m485.648438 88.324219h8v32h-8zm0 0" fill="#aab2bd"/></svg>