<svg height="512pt" viewBox="0 -54 512 512" width="512pt" xmlns="http://www.w3.org/2000/svg"><path d="m275.832031 40c4.398438 0 8-7.601562 8-12s-3.601562-8-8-8c-4.398437 0-8 3.601562-8 8s3.609375 12 8 12zm-32-12c0-4.398438-3.601562-8-8-8-4.398437 0-8 3.601562-8 8s3.601563 12 8 12c4.398438 0 8-7.601562 8-12zm-40-28h104c17.679688 0 32 14.320312 32 32v16h-168v-16c0-17.679688 14.328125-32 32-32zm0 0" fill="#5d9cec"/><path d="m276 52c-2.207031 0-4-1.792969-4-4v-8c0-2.207031 1.792969-4 4-4s4 1.792969 4 4v8c0 2.207031-1.792969 4-4 4zm0 0" fill="#8cc152"/><path d="m236 52c-2.207031 0-4-1.792969-4-4v-8c0-2.207031 1.792969-4 4-4s4 1.792969 4 4v8c0 2.207031-1.792969 4-4 4zm0 0" fill="#8cc152"/><path d="m276 16c-6.617188 0-12 5.382812-12 12 0 6.367188 4.792969 16 12 16s12-9.632812 12-16c0-6.617188-5.382812-12-12-12zm0 0" fill="#a0d468"/><path d="m236 16c-6.617188 0-12 5.382812-12 12 0 6.367188 4.792969 16 12 16s12-9.632812 12-16c0-6.617188-5.382812-12-12-12zm0 0" fill="#a0d468"/><path d="m35.832031 80c0 30.953125 25.046875 56 56 56h328c30.953125 0 56-25.046875 56-56zm0 0" fill="#ccd1d9"/><path d="m252 152h-51.992188c-4.398437 0-8-3.601562-8-8v-8h127.992188v8c0 4.398438-3.601562 8-8 8zm0 0" fill="#656d78"/><path d="m67.832031 256.015625c13.28125 0 24 89.761719 24 102.960937 0 13.28125-10.71875 24-24 24s-24-10.71875-24-24c0-13.199218 10.71875-102.960937 24-102.960937zm0 0" fill="#a0d468"/><path d="m443.832031 256.015625c13.28125 0 24 89.761719 24 102.960937 0 13.28125-10.71875 24-24 24s-24-10.71875-24-24c0-13.199218 10.71875-102.960937 24-102.960937zm0 0" fill="#a0d468"/><path d="m263.59375 310.800781c1.199219.726563 2.71875 1.199219 4.238281 1.199219 4.398438 0 8-3.601562 8-8s-3.601562-8-8-8c-4.398437 0-8 3.601562-8 8 0 2.878906 1.527344 5.359375 3.761719 6.800781zm31.527344-158.800781 73.4375 248h-225.519532l73.519532-248zm0 0" fill="#f6bb42"/><g fill="#5d9cec"><path d="m211.855469 112c0 4.417969-3.582031 8-8 8s-8-3.582031-8-8 3.582031-8 8-8 8 3.582031 8 8zm0 0"/><path d="m263.832031 112c0 4.417969-3.582031 8-8 8s-8-3.582031-8-8 3.582031-8 8-8 8 3.582031 8 8zm0 0"/><path d="m315.816406 112c0 4.417969-3.582031 8-8 8-4.417968 0-8-3.582031-8-8s3.582032-8 8-8c4.417969 0 8 3.582031 8 8zm0 0"/></g><path d="m35.832031 80 136-32h168l136 32zm0 0" fill="#e6e9ed"/><path d="m228 356c-.558594 0-1.128906-.121094-1.664062-.359375-2.007813-.921875-2.886719-3.296875-1.976563-5.304687 12.710937-27.800782 36.359375-42.375 37.359375-42.984376 1.90625-1.136718 4.359375-.527343 5.496094 1.34375 1.152344 1.890626.546875 4.34375-1.335938 5.496094-.222656.144532-22.582031 13.984375-34.230468 39.480469-.679688 1.464844-2.136719 2.328125-3.648438 2.328125zm0 0" fill="#e5b6a8"/><path d="m244.007812 356c-.167968 0-.328124-.007812-.496093-.03125-2.183594-.265625-3.75-2.257812-3.488281-4.457031l3.359374-27.648438c.265626-2.183593 2.328126-3.75 4.457032-3.488281 2.183594.265625 3.753906 2.257812 3.488281 4.457031l-3.359375 27.648438c-.242188 2.03125-1.96875 3.519531-3.960938 3.519531zm0 0" fill="#f0c7b7"/><path d="m268 340c-2.207031 0-4-1.792969-4-4 0-6.03125-7.921875-14.039062-10.695312-16.367188-1.695313-1.425781-1.914063-3.945312-.496094-5.632812 1.421875-1.695312 3.945312-1.921875 5.632812-.496094 1.390625 1.167969 13.558594 11.6875 13.558594 22.496094 0 2.207031-1.792969 4-4 4zm0 0" fill="#f0c7b7"/><path d="m236 284c-2.207031 0-4-1.792969-4-4v-40c0-2.207031 1.792969-4 4-4s4 1.792969 4 4v40c0 2.207031-1.792969 4-4 4zm0 0" fill="#ffce54"/><path d="m260.007812 252c-2.207031 0-4-1.792969-4-4v-64c0-2.207031 1.792969-4 4-4 2.207032 0 4 1.792969 4 4v64c0 2.207031-1.792968 4-4 4zm0 0" fill="#ffce54"/><path d="m284 268c-2.207031 0-4-1.792969-4-4v-16c0-2.207031 1.792969-4 4-4s4 1.792969 4 4v16c0 2.207031-1.792969 4-4 4zm0 0" fill="#ffce54"/><path d="m444 404.015625c-2.207031 0-4-1.792969-4-4v-72c0-2.207031 1.792969-4 4-4s4 1.792969 4 4v72c0 2.207031-1.792969 4-4 4zm0 0" fill="#965353"/><path d="m68 404.015625c-2.207031 0-4-1.792969-4-4v-72c0-2.207031 1.792969-4 4-4s4 1.792969 4 4v72c0 2.207031-1.792969 4-4 4zm0 0" fill="#965353"/><path d="m508 404h-504c-2.207031 0-4-1.792969-4-4s1.792969-4 4-4h504c2.207031 0 4 1.792969 4 4s-1.792969 4-4 4zm0 0" fill="#656d78"/><path d="m267.832031 292c6.601563 0 12 5.398438 12 12s-5.398437 12-12 12c-2.289062 0-4.550781-.710938-6.367187-1.808594-3.34375-2.160156-5.632813-5.871094-5.632813-10.191406 0-6.601562 5.398438-12 12-12zm0 0" fill="#f0c7b7"/></svg>