<svg height="504pt" viewBox="-8 0 504 504" width="504pt" xmlns="http://www.w3.org/2000/svg"><path d="m472 337.441406h-32c8.832031 0 16-7.167968 16-16 0-8.832031-7.167969-16-16-16h-32c8.832031 0 16-7.167968 16-16 0-8.832031-7.167969-16-16-16h-48c8.832031 0 16-7.167968 16-16 0-8.832031-7.167969-16-16-16h88c8.832031 0 16-7.167968 16-16 0-8.832031-7.167969-16-16-16h-40c8.832031 0 16-7.167968 16-16 0-8.832031-7.167969-16-16-16h-16c8.832031 0 16-7.167968 16-16 0-8.832031-7.167969-16-16-16h80c8.832031 0 16-7.167968 16-16 0-8.832031-7.167969-16-16-16h-32c8.832031 0 16-7.167968 16-16 0-8.832031-7.167969-16-16-16h-32c8.832031 0 16-7.167968 16-16 0-8.832031-7.167969-16-16-16h-24c8.832031 0 16-7.167968 16-16 0-8.832031-7.167969-16-16-16h-240c-8.839844 0-16 7.167969-16 16 0 8.832032 7.160156 16 16 16h-56c-8.839844 0-16 7.167969-16 16 0 8.832032 7.160156 16 16 16h-16c-8.839844 0-16 7.167969-16 16 0 8.832032 7.160156 16 16 16h48c-8.839844 0-16 7.167969-16 16 0 8.832032 7.160156 16 16 16h-88c-8.839844 0-16 7.167969-16 16 0 8.832032 7.160156 16 16 16h40c-8.839844 0-16 7.167969-16 16 0 8.832032 7.160156 16 16 16h-40c-8.839844 0-16 7.167969-16 16 0 8.832032 7.160156 16 16 16h-16c-8.839844 0-16 7.167969-16 16 0 8.832032 7.160156 16 16 16h40c-8.839844 0-16 7.167969-16 16 0 8.832032 7.160156 16 16 16h-16c-8.839844 0-16 7.167969-16 16 0 8.832032 7.160156 16 16 16h80c-8.839844 0-16 7.167969-16 16 0 8.832032 7.160156 16 16 16h-32c-8.839844 0-16 7.167969-16 16 0 8.832032 7.160156 16 16 16h272c8.832031 0 16-7.167968 16-16 0-8.832031-7.167969-16-16-16h112c8.832031 0 16-7.167968 16-16 0-8.832031-7.167969-16-16-16zm0 0" fill="#656d78"/><path d="m463.953125 448v56h-220l133.445313-129.121094c.082031 0 .160156.082032.320312.160156 13.679688 6.960938 27.761719 13.039063 38.234375 16.960938 32 11.921875 48 24 48 56zm0 0" fill="#ac92ec"/><path d="m110.59375 374.800781c25.199219-12.800781 49.359375-28.480469 49.359375-38.800781v-39.28125c33.839844 37.519531 69.839844 63.28125 84 63.28125 14.167969 0 50.167969-25.761719 84-63.28125v39.28125c0 10.320312 24.238281 26 49.445313 38.878906l-133.445313 129.121094-133.273437-128.960938zm0 0" fill="#8cc152"/><path d="m159.953125 336c0 10.320312-24.160156 26-49.359375 38.800781-.320312.167969-22.640625-70.800781-86.640625-86.800781 0 0 15.359375-16 95.359375-16h20.085938c6.640624 8.640625 13.511718 16.960938 20.554687 24.71875zm0 0" fill="#967adc"/><path d="m110.679688 375.039062 133.273437 128.960938h-220s0-24 0-56 16-44.078125 48-56c10.40625-3.921875 24.085937-9.839844 37.679687-16.71875.320313-.167969.640626-.320312.960938-.488281zm0 0" fill="#ac92ec"/><path d="m367.953125 272c80 0 96 16 96 16-64 16-86.554687 86.878906-86.554687 86.878906-25.199219-12.878906-49.445313-28.558594-49.445313-38.878906v-39.28125c6.957031-7.757812 13.917969-16.078125 20.488281-24.71875zm0 0" fill="#967adc"/><path d="m255.953125 213.441406c24-77.042968 112-59.761718 112-59.761718s-24 77.121093-112 59.761718zm0 0" fill="#f5f7fa"/><path d="m119.953125 153.679688s88-17.28125 112 59.761718c-88 17.359375-112-59.761718-112-59.761718zm0 0" fill="#f5f7fa"/><path d="m243.953125 0c86.488281 0 156.558594 48.800781 156.558594 147.121094 0 42.085937-23.199219 87.125-52.078125 124.878906-6.5625 8.640625-13.523438 16.960938-20.488282 24.71875-33.832031 37.519531-69.832031 63.28125-84 63.28125-14.160156 0-50.160156-25.761719-84-63.28125-7.042968-7.757812-13.914062-16.078125-20.554687-24.71875-28.878906-37.761719-52.085937-82.800781-52.085937-124.878906.007812-98.320313 70.175781-147.121094 156.648437-147.121094zm124 153.679688s-88-17.28125-112 59.761718c88 17.359375 112-59.761718 112-59.761718zm-136 59.761718c-24-77.042968-112-59.761718-112-59.761718s24 77.121093 112 59.761718zm0 0" fill="#a0d468"/><g fill="#e6e9ed"><path d="m24.183594 212c-2.207032 0-4.039063-1.792969-4.039063-4s1.75-4 3.960938-4h.085937c2.199219 0 4 1.792969 4 4s-1.800781 4-4.007812 4zm0 0"/><path d="m432.191406 228c-2.207031 0-4.039062-1.792969-4.039062-4s1.75-4 3.953125-4h.085937c2.199219 0 4 1.792969 4 4s-1.792968 4-4 4zm0 0"/><path d="m440.191406 44c-2.207031 0-4.039062-1.792969-4.039062-4s1.75-4 3.960937-4h.085938c2.199219 0 4 1.792969 4 4s-1.800781 4-4.007813 4zm0 0"/><path d="m64.183594 116c-2.207032 0-4.039063-1.792969-4.039063-4s1.75-4 3.960938-4h.085937c2.199219 0 4 1.792969 4 4s-1.800781 4-4.007812 4zm0 0"/><path d="m471.953125 164c-2.210937 0-4-1.792969-4-4v-32c0-2.207031 1.789063-4 4-4 2.207031 0 4 1.792969 4 4v32c0 2.207031-1.785156 4-4 4zm0 0"/><path d="m479.953125 148h-16c-2.210937 0-4-1.792969-4-4s1.789063-4 4-4h16c2.207031 0 4 1.792969 4 4s-1.785156 4-4 4zm0 0"/></g><path d="m255.953125 300h-24.007813c-2.210937 0-4-1.792969-4-4s1.789063-4 4-4h24.007813c2.207031 0 4 1.792969 4 4s-1.785156 4-4 4zm0 0" fill="#8cc152"/><path d="m243.953125 460c-1 0-2.007813-.375-2.785156-1.128906l-60.007813-58.0625c-1.585937-1.535156-1.632812-4.074219-.097656-5.65625 1.53125-1.585938 4.082031-1.617188 5.65625-.097656l60.007812 58.066406c1.585938 1.535156 1.632813 4.070312.097657 5.65625-.777344.816406-1.824219 1.222656-2.871094 1.222656zm0 0" fill="#a0d468"/><path d="m243.953125 460c-1.050781 0-2.089844-.40625-2.875-1.214844-1.535156-1.585937-1.492187-4.121094.097656-5.65625l60-58.066406c1.585938-1.519531 4.121094-1.496094 5.65625.097656 1.535157 1.59375 1.496094 4.121094-.097656 5.65625l-60 58.0625c-.773437.746094-1.78125 1.121094-2.78125 1.121094zm0 0" fill="#a0d468"/><path d="m243.953125 420c-1 0-2.007813-.375-2.785156-1.128906l-60.007813-58.0625c-1.585937-1.535156-1.632812-4.074219-.097656-5.65625 1.53125-1.585938 4.082031-1.625 5.65625-.097656l60.007812 58.066406c1.585938 1.535156 1.632813 4.070312.097657 5.65625-.777344.816406-1.824219 1.222656-2.871094 1.222656zm0 0" fill="#a0d468"/><path d="m243.953125 420c-1.050781 0-2.089844-.40625-2.875-1.214844-1.535156-1.585937-1.492187-4.121094.097656-5.65625l60-58.066406c1.585938-1.527344 4.121094-1.496094 5.65625.097656 1.535157 1.59375 1.496094 4.121094-.097656 5.65625l-60 58.0625c-.773437.746094-1.78125 1.121094-2.78125 1.121094zm0 0" fill="#a0d468"/><path d="m243.953125 460c-2.210937 0-4-1.792969-4-4v-40c0-2.207031 1.789063-4 4-4 2.207031 0 4 1.792969 4 4v40c0 2.207031-1.785156 4-4 4zm0 0" fill="#a0d468"/><path d="m23.945312 84c-2.210937 0-4-1.792969-4-4 0-42.398438 36.03125-54.832031 36.398438-54.945312 2.105469-.710938 4.34375.457031 5.046875 2.53125.699219 2.09375-.429687 4.351562-2.527344 5.0625-1.253906.421874-30.917969 10.855468-30.917969 47.351562 0 2.207031-1.785156 4-4 4zm0 0" fill="#967adc"/><path d="m75.945312 24c0 6.628906-5.375 12-12 12-6.628906 0-12-5.371094-12-12s5.371094-12 12-12c6.625 0 12 5.371094 12 12zm0 0" fill="#ac92ec"/></svg>