<svg height="507pt" viewBox="0 -52 507.93145 507" width="507pt" xmlns="http://www.w3.org/2000/svg"><path d="m369.132812 367.296875h-182.503906c-2.210937 0-4-1.792969-4-4s1.789063-4 4-4h182.503906c2.207032 0 4 1.792969 4 4s-1.792968 4-4 4zm0 0" fill="#aab2bd"/><path d="m147.324219 199.296875c-1.5625 0-3.058594-.917969-3.695313-2.464844-.839844-2.039062.117188-4.382812 2.160156-5.230469l123.300782-51.375c2.019531-.816406 4.386718.109376 5.234375 2.160157.839843 2.039062-.121094 4.382812-2.160157 5.230469l-123.304687 51.375c-.496094.203124-1.023437.304687-1.535156.304687zm0 0" fill="#434a54"/><path d="m259.332031 195.289062h-16c-2.207031 0-4-1.792968-4-4 0-2.207031 1.792969-4 4-4h16c2.207031 0 4 1.792969 4 4 0 2.207032-1.792969 4-4 4zm0 0" fill="#aab2bd"/><g fill="#ccd1d9"><path d="m131.011719 44.539062-23.519531 4.636719 3.808593 18.851563.214844 4.8125 20.253906-4.015625 3.914063-.910157zm0 0"/><path d="m316.699219 227.296875 83.839843 176h-16l-83.839843-176zm0 0"/><path d="m272.539062 227.296875h16v176h-16zm0 0"/><path d="m160.539062 403.296875 83.761719-176h16l-83.761719 176zm0 0"/></g><path d="m328.539062 211.296875c4.402344 0 8 3.609375 8 8 0 4.410156-3.597656 8-8 8h-96c-4.480468 0-8-3.589844-8-8 0-4.390625 3.519532-8 8-8zm0 0" fill="#656d78"/><path d="m260.210938 187.289062h40v24.007813h-40zm0 0" fill="#ccd1d9"/><path d="m260.210938 171.289062h40v16h-40zm0 0" fill="#ccd1d9"/><path d="m300.210938 187.304688h-40v-20.007813c0-11.03125 8.878906-20 20-20 11.039062 0 20 8.96875 20 20zm0 0" fill="#656d78"/><path d="m280.210938 147.296875c-11.121094 0-20 8.96875-20 20v-36.160156l40-8.078125v44.230468c0-11.023437-8.960938-19.992187-20-19.992187zm0 0" fill="#545c66"/><path d="m232.058594 118.1875 80.152344-16.25 4 17.921875-16 3.199219-40 8.078125-24 4.800781zm0 0" fill="#656d78"/><path d="m493.804688.464844 14.125 70.59375-56.101563 4.894531-11.746094-58.28125.007813-.078125zm0 0" fill="#545c66"/><path d="m440.082031 17.671875 11.746094 58.28125-16.082031 1.394531-10.957032-54.914062 15.300782-4.839844zm0 0" fill="#656d78"/><path d="m17.265625 87.769531c2.160156-.441406 4.273437.976563 4.714844 3.136719l4.671875 23.28125c.4375 2.160156.816406 3.972656.839844 4.039062.023437.0625-1.710938.480469-3.863282.910157l-7.832031 1.578125c-2.160156.4375-3.960937.65625-4.015625.488281-.058594-.167969-.449219-2.082031-.882812-4.234375l-4.605469-22.902344c-.441407-2.160156.972656-4.273437 3.132812-4.710937zm0 0" fill="#aab2bd"/><path d="m91.011719 130.082031-4.664063-23.542969c-.199218-1.050781-.816406-1.960937-1.695312-2.554687-.882813-.582031-1.976563-.824219-3.007813-.589844l-78.441406 15.71875c-1.582031.320313-2.824219 1.570313-3.1289062 3.160157-.3124998 1.585937.3593752 3.199218 1.7148432 4.097656l28.199219 18.75c.65625.449218 1.429688.671875 2.207031.671875.257813 0 .519532-.023438.785157-.078125l24.230469-4.832032c1.65625-.328124 2.921874-1.65625 3.167968-3.328124.511719-3.425782 2.992188-6.074219 6.296875-6.738282 3.457031-.679687 6.777344.898438 8.503907 3.761719.847656 1.441406 2.503906 2.222656 4.191406 1.863281l8.472656-1.65625c1.046875-.199218 1.960938-.816406 2.550781-1.695312.59375-.878906.824219-1.96875.617188-3.007813zm0 0" fill="#ccd1d9"/><path d="m319.90625 119.160156-3.976562-17.917968c-.476563-2.136719-2.582032-3.496094-4.695313-3.054688l-80.175781 16.09375c-1.0625.207031-1.984375.839844-2.566406 1.761719-.585938.902343-.785157 2.015625-.535157 3.070312l4.125 17.769531c.433594 1.839844 2.074219 3.09375 3.898438 3.09375.246093 0 .511719-.023437.773437-.078124l80.035156-15.9375c1.0625-.207032 1.980469-.832032 2.574219-1.734376.578125-.90625.777344-2.007812.542969-3.066406zm0 0" fill="#656d78"/><path d="m134.957031 23.320312c2.160157-.4375 4.269531.976563 4.703125 3.136719l3.121094 15.703125c.429688 2.160156-.984375 4.273438-3.144531 4.714844l-7.839844 1.574219c-2.160156.441406-5.6875 1.144531-7.839844 1.558593l-7.832031 1.546876c-2.160156.421874-5.691406 1.136718-7.839844 1.566406l-7.832031 1.578125c-2.160156.4375-4.273437-.96875-4.707031-3.128907l-3.125-15.671874c-.433594-2.160157.980468-4.273438 3.140625-4.710938zm0 0" fill="#656d78"/><path d="m142.820312 62.5625c-.207031-1.046875-.824218-1.96875-1.703124-2.554688-.882813-.589843-1.976563-.832031-3.007813-.597656l-31.386719 6.261719c-2.160156.441406-3.550781 2.539063-3.128906 4.699219l6.824219 34.65625c.203125 1.039062.816406 1.957031 1.707031 2.550781.65625.441406 1.429688.671875 2.214844.671875.261718 0 .527344-.023438.792968-.082031l31.285157-6.292969c1.953125-.394531 3.242187-2.839844 3.136719-4.832031zm0 0" fill="#4a89dc"/><path d="m110.699219 85.378906 31.289062-6.304687 282.800781-56.640625 10.957032 54.914062-123.71875 24.757813-80.183594 16.097656-141.566406 28.3125-3.1875-15.65625-4.664063-23.546875-3.183593-15.671875zm0 0" fill="#5d9cec"/><path d="m80.277344 138.65625c-.011719 6.625-5.394532 11.984375-12 11.96875-6.632813-.015625-11.984375-5.375-11.984375-12 .03125-6.625 5.40625-11.984375 12.015625-11.96875 6.621094.015625 11.976562 5.394531 11.96875 12zm0 0" fill="#656d78"/><path d="m279.5625 171.296875c-2.207031 0-4.039062-1.792969-4.039062-4s1.753906-4 3.953124-4h.085938c2.199219 0 4 1.792969 4 4s-1.792969 4-4 4zm0 0" fill="#545c66"/></svg>