<svg height="504pt" viewBox="-20 0 504 504" width="504pt" xmlns="http://www.w3.org/2000/svg"><path d="m376 160c8.800781 0 16 7.199219 16 16v240.007812c0 8.878907-7.121094 16-16 16h-288c-8.878906 0-16-7.121093-16-16v-240.007812c0-8.800781 7.121094-16 16-16zm-80 64v-24h-128v24zm0 0" fill="#e6e9ed"/><path d="m296 432.007812v7.992188c0 35.359375-28.640625 64-64 64s-64-28.640625-64-64v-7.992188zm0 0" fill="#656d78"/><path d="m112 368v-48c0-8.800781 7.199219-16 16-16h200c8.800781 0 16 7.199219 16 16v48c0 8.800781-7.199219 16-16 16h-200c-8.800781 0-16-7.199219-16-16zm24-24c0 4.398438 3.601562 8 8 8s8-3.601562 8-8-3.601562-8-8-8-8 3.601562-8 8zm0 0" fill="#e6e9ed"/><path d="m376 160h-288v-16c0-79.519531 64.480469-144 144-144s144 64.480469 144 144zm0 0" fill="#5d9cec"/><path d="m440 176c13.28125 0 24 10.71875 24 24s-10.71875 24-24 24h-48v-48zm0 0" fill="#ccd1d9"/><path d="m424 224v113.441406c2.480469-.960937 5.199219-1.441406 8-1.441406s5.519531.480469 8 1.441406v-113.441406zm0 0" fill="#545c66"/><path d="m408 360c0-10.480469 6.640625-19.359375 16-22.558594 2.480469-.960937 5.199219-1.441406 8-1.441406s5.519531.480469 8 1.441406c9.359375 3.199219 16 12.085938 16 22.558594v24h-16v-24c0-4.398438-3.601562-8-8-8s-8 3.601562-8 8v24h-16zm0 0" fill="#ccd1d9"/><path d="m440 307.488281h-15.992188c-2.207031 0-4-1.792969-4-4s1.792969-4 4-4h15.992188c2.207031 0 4 1.792969 4 4s-1.792969 4-4 4zm0 0" fill="#656d78"/><path d="m440 283.488281h-15.992188c-2.207031 0-4-1.792969-4-4s1.792969-4 4-4h15.992188c2.207031 0 4 1.792969 4 4s-1.792969 4-4 4zm0 0" fill="#656d78"/><path d="m440 259.488281h-15.992188c-2.207031 0-4-1.792969-4-4s1.792969-4 4-4h15.992188c2.207031 0 4 1.792969 4 4s-1.792969 4-4 4zm0 0" fill="#656d78"/><path d="m24 176c-13.28125 0-24 10.71875-24 24s10.71875 24 24 24h48v-48zm0 0" fill="#ccd1d9"/><path d="m40 224v113.441406c-2.480469-.960937-5.199219-1.441406-8-1.441406s-5.519531.480469-8 1.441406v-113.441406zm0 0" fill="#545c66"/><path d="m56 360c0-10.480469-6.640625-19.359375-16-22.558594-2.480469-.960937-5.199219-1.441406-8-1.441406s-5.519531.480469-8 1.441406c-9.359375 3.199219-16 12.085938-16 22.558594v24h16v-24c0-4.398438 3.601562-8 8-8s8 3.601562 8 8v24h16zm0 0" fill="#ccd1d9"/><path d="m24 307.488281h15.992188c2.207031 0 4-1.792969 4-4s-1.792969-4-4-4h-15.992188c-2.207031 0-4 1.792969-4 4s1.792969 4 4 4zm0 0" fill="#656d78"/><path d="m24 283.488281h15.992188c2.207031 0 4-1.792969 4-4s-1.792969-4-4-4h-15.992188c-2.207031 0-4 1.792969-4 4s1.792969 4 4 4zm0 0" fill="#656d78"/><path d="m24 259.488281h15.992188c2.207031 0 4-1.792969 4-4s-1.792969-4-4-4h-15.992188c-2.207031 0-4 1.792969-4 4s1.792969 4 4 4zm0 0" fill="#656d78"/><path d="m296 91.480469c0 6.625-5.371094 12-12 12s-12-5.375-12-12c0-6.628907 5.371094-12 12-12s12 5.371093 12 12zm0 0" fill="#4a89dc"/><path d="m192 91.480469c0 6.625-5.371094 12-12 12s-12-5.375-12-12c0-6.628907 5.371094-12 12-12s12 5.371093 12 12zm0 0" fill="#4a89dc"/><path d="m264 123.480469c-2.207031 0-4 1.792969-4 4v4h-56v-4c0-2.207031-1.792969-4-4-4s-4 1.792969-4 4v8c0 2.207031 1.792969 4 4 4h64c2.207031 0 4-1.792969 4-4v-8c0-2.214844-1.792969-4-4-4zm0 0" fill="#4a89dc"/><path d="m296 195.488281h-128c-2.207031 0-4 1.792969-4 4v24c0 2.207031 1.792969 4 4 4h128c2.207031 0 4-1.792969 4-4v-24c0-2.214843-1.792969-4-4-4zm0 0" fill="#656d78"/><path d="m232 211.488281c-2.207031 0-4 1.792969-4 4v12h8v-12c0-2.214843-1.792969-4-4-4zm0 0" fill="#e6e9ed"/><path d="m180 195.488281c.007812 2.207031 1.792969 3.992188 4 3.992188s3.992188-1.785157 4-3.992188zm0 0" fill="#aab2bd"/><path d="m196 195.488281c.007812 2.207031 1.792969 3.992188 4 3.992188s3.992188-1.785157 4-3.992188zm0 0" fill="#aab2bd"/><path d="m212 195.488281c.007812 2.207031 1.792969 3.992188 4 3.992188s3.992188-1.785157 4-3.992188zm0 0" fill="#aab2bd"/><path d="m228 195.488281c.007812 2.207031 1.792969 3.992188 4 3.992188s3.992188-1.785157 4-3.992188zm0 0" fill="#aab2bd"/><path d="m244 195.488281c.007812 2.207031 1.792969 3.992188 4 3.992188s3.992188-1.785157 4-3.992188zm0 0" fill="#aab2bd"/><path d="m260 195.488281c.007812 2.207031 1.792969 3.992188 4 3.992188s3.992188-1.785157 4-3.992188zm0 0" fill="#aab2bd"/><path d="m276 195.488281c.007812 2.207031 1.792969 3.992188 4 3.992188s3.992188-1.785157 4-3.992188zm0 0" fill="#aab2bd"/><g fill="#ccd1d9"><path d="m332 395.488281h-200c-11.03125 0-20-8.96875-20-20v-48c0-11.03125 8.96875-20 20-20h200c11.03125 0 20 8.96875 20 20v48c0 11.023438-8.96875 20-20 20zm-200-80c-6.617188 0-12 5.382813-12 12v48c0 6.617188 5.382812 12 12 12h200c6.617188 0 12-5.382812 12-12v-48c0-6.617187-5.382812-12-12-12zm0 0"/><path d="m168 275.488281c-2.207031 0-4-1.792969-4-4v-8c0-2.207031 1.792969-4 4-4s4 1.792969 4 4v8c0 2.207031-1.792969 4-4 4zm0 0"/><path d="m184 283.488281c-2.207031 0-4-1.792969-4-4v-24c0-2.207031 1.792969-4 4-4s4 1.792969 4 4v24c0 2.207031-1.792969 4-4 4zm0 0"/><path d="m200 283.488281c-2.207031 0-4-1.792969-4-4v-24c0-2.207031 1.792969-4 4-4s4 1.792969 4 4v24c0 2.207031-1.792969 4-4 4zm0 0"/><path d="m216 283.488281c-2.207031 0-4-1.792969-4-4v-24c0-2.207031 1.792969-4 4-4s4 1.792969 4 4v24c0 2.207031-1.792969 4-4 4zm0 0"/><path d="m232 283.488281c-2.207031 0-4-1.792969-4-4v-24c0-2.207031 1.792969-4 4-4s4 1.792969 4 4v24c0 2.207031-1.792969 4-4 4zm0 0"/><path d="m248 283.488281c-2.207031 0-4-1.792969-4-4v-24c0-2.207031 1.792969-4 4-4s4 1.792969 4 4v24c0 2.207031-1.792969 4-4 4zm0 0"/><path d="m264 283.488281c-2.207031 0-4-1.792969-4-4v-24c0-2.207031 1.792969-4 4-4s4 1.792969 4 4v24c0 2.207031-1.792969 4-4 4zm0 0"/><path d="m280 283.488281c-2.207031 0-4-1.792969-4-4v-24c0-2.207031 1.792969-4 4-4s4 1.792969 4 4v24c0 2.207031-1.792969 4-4 4zm0 0"/><path d="m296 275.488281c-2.207031 0-4-1.792969-4-4v-8c0-2.207031 1.792969-4 4-4s4 1.792969 4 4v8c0 2.207031-1.792969 4-4 4zm0 0"/><path d="m136 212c0 6.628906-5.371094 12-12 12s-12-5.371094-12-12 5.371094-12 12-12 12 5.371094 12 12zm0 0"/><path d="m352 212c0 6.628906-5.371094 12-12 12s-12-5.371094-12-12 5.371094-12 12-12 12 5.371094 12 12zm0 0"/></g><path d="m136 207.984375c0 6.628906-5.371094 12-12 12s-12-5.371094-12-12 5.371094-12 12-12 12 5.371094 12 12zm0 0" fill="#f5f7fa"/><path d="m352 207.984375c0 6.628906-5.371094 12-12 12s-12-5.371094-12-12 5.371094-12 12-12 12 5.371094 12 12zm0 0" fill="#f5f7fa"/><path d="m156 352c0 4.417969-3.582031 8-8 8s-8-3.582031-8-8 3.582031-8 8-8 8 3.582031 8 8zm0 0" fill="#ccd1d9"/></svg>