<svg height="512pt" viewBox="-7 0 511 512" width="512pt" xmlns="http://www.w3.org/2000/svg"><path d="m476.316406 376.015625h-32c8.832032 0 16-7.167969 16-16s-7.167968-16-16-16h-32c8.832032 0 16-7.167969 16-16s-7.167968-16-16-16h-48c8.832032 0 16-7.167969 16-16s-7.167968-16-16-16h88c8.832032 0 16-7.167969 16-16s-7.167968-16-16-16h-40c8.832032 0 16-7.167969 16-16s-7.167968-16-16-16h-16c8.832032 0 16-7.167969 16-16s-7.167968-16-16-16h80c8.832032 0 16-7.167969 16-16s-7.167968-16-16-16h-32c8.832032 0 16-7.167969 16-16s-7.167968-16-16-16h-32c8.832032 0 16-7.167969 16-16s-7.167968-16-16-16h-24c8.832032 0 16-7.167969 16-16s-7.167968-16-16-16h-240c-8.839844 0-16 7.167969-16 16s7.160156 16 16 16h-56c-8.839844 0-16 7.167969-16 16s7.160156 16 16 16h-16c-8.839844 0-16 7.167969-16 16s7.160156 16 16 16h48c-8.839844 0-16 7.167969-16 16s7.160156 16 16 16h-88c-8.839844 0-16 7.167969-16 16s7.160156 16 16 16h40c-8.839844 0-16 7.167969-16 16s7.160156 16 16 16h-40c-8.839844 0-16 7.167969-16 16s7.160156 16 16 16h-16c-8.839844 0-16 7.167969-16 16s7.160156 16 16 16h40c-8.839844 0-16 7.167969-16 16s7.160156 16 16 16h-16c-8.839844 0-16 7.167969-16 16s7.160156 16 16 16h80c-8.839844 0-16 7.167969-16 16s7.160156 16 16 16h-32c-8.839844 0-16 7.167969-16 16s7.160156 16 16 16h272c8.832032 0 16-7.167969 16-16s-7.167968-16-16-16h112c8.832032 0 16-7.167969 16-16s-7.175781-16-16-16zm0 0" fill="#656d78"/><path d="m396.300781 255.984375c0 81.738281-66.261719 148-148 148s-148-66.261719-148-148 66.261719-148 148-148 148 66.261719 148 148zm0 0" fill="#f6bb42"/><path d="m116.316406 255.984375c0-79.472656 62.6875-144.128906 141.28125-147.664063-3.082031-.199218-6.167968-.335937-9.296875-.335937-81.738281 0-148 66.261719-148 148 0 81.734375 66.261719 148 148 148 3.128907 0 6.214844-.136719 9.296875-.335937-78.59375-3.535157-141.28125-68.191407-141.28125-147.664063zm0 0" fill="#ffce54"/><path d="m452.316406 75.984375c0 17.671875-14.328125 32-32 32s-32-14.328125-32-32 14.328125-32 32-32 32 14.328125 32 32zm0 0" fill="#4a89dc"/><path d="m396.316406 75.984375c0-16.304687 12.230469-29.601563 28-31.601563-1.328125-.167968-2.625-.398437-4-.398437-17.671875 0-32 14.328125-32 32s14.328125 32 32 32c1.375 0 2.671875-.230469 4-.398437-15.769531-2-28-15.296876-28-31.601563zm0 0" fill="#5d9cec"/><path d="m437.796875 66c-5.855469.441406-7.738281-2.992188-6.96875-4.03125l-10.96875-3.488281c-.953125-.535157-4.785156-1.183594-6.078125-1.417969-.921875-.160156-8.769531.816406-8.410156 10.160156.144531 3.769532 2.503906 6.203125 6.3125 6.25 3.167968.03125 6.375-.34375 7.410156 3.40625.871094 3.167969.542969 6.472656 1.328125 9.625.308594 1.28125.980469 3.046875 2.589844 3.183594 2.441406.214844 4.082031-1.429688 5.542969-3.136719 1.167968-1.367187 2.65625-2.519531 3.511718-4.136719 1.394532-2.511718 1.019532-5.511718 2.472656-8.0625 1.191407-2.03125 5.105469-8.496093 3.257813-8.351562zm0 0" fill="#a0d468"/><g fill="#e6e9ed"><path d="m300.53125 512c-2.199219 0-4.03125-1.792969-4.03125-4s1.753906-4 3.953125-4h.078125c2.199219 0 4 1.792969 4 4s-1.800781 4-4 4zm0 0"/><path d="m452.53125 472c-2.199219 0-4.03125-1.792969-4.03125-4s1.753906-4 3.953125-4h.078125c2.199219 0 4 1.792969 4 4s-1.800781 4-4 4zm0 0"/><path d="m228.53125 456c-2.199219 0-4.03125-1.792969-4.03125-4s1.753906-4 3.953125-4h.078125c2.199219 0 4 1.792969 4 4s-1.800781 4-4 4zm0 0"/><path d="m476.53125 352c-2.199219 0-4.03125-1.792969-4.03125-4s1.753906-4 3.953125-4h.078125c2.199219 0 4 1.792969 4 4s-1.800781 4-4 4zm0 0"/><path d="m140.53125 496c-2.199219 0-4.03125-1.792969-4.03125-4s1.753906-4 3.953125-4h.078125c2.199219 0 4 1.792969 4 4s-1.800781 4-4 4zm0 0"/><path d="m84.53125 384c-2.199219 0-4.03125-1.792969-4.03125-4s1.753906-4 3.953125-4h.078125c2.199219 0 4 1.792969 4 4s-1.800781 4-4 4zm0 0"/><path d="m20.53125 336c-2.199219 0-4.03125-1.792969-4.03125-4s1.753906-4 3.953125-4h.078125c2.199219 0 4 1.792969 4 4s-1.800781 4-4 4zm0 0"/><path d="m52.53125 264c-2.199219 0-4.03125-1.792969-4.03125-4s1.753906-4 3.953125-4h.078125c2.199219 0 4 1.792969 4 4s-1.800781 4-4 4zm0 0"/><path d="m76.53125 168c-2.199219 0-4.03125-1.792969-4.03125-4s1.753906-4 3.953125-4h.078125c2.199219 0 4 1.792969 4 4s-1.800781 4-4 4zm0 0"/><path d="m148.53125 80c-2.199219 0-4.03125-1.792969-4.03125-4s1.753906-4 3.953125-4h.078125c2.199219 0 4 1.792969 4 4s-1.800781 4-4 4zm0 0"/><path d="m292.53125 72c-2.199219 0-4.03125-1.792969-4.03125-4s1.753906-4 3.953125-4h.078125c2.199219 0 4 1.792969 4 4s-1.800781 4-4 4zm0 0"/><path d="m357.042969 24c-2.214844 0-4.046875-1.792969-4.046875-4s1.75-4 3.960937-4h.09375c2.203125 0 4 1.792969 4 4s-1.796875 4-4.007812 4zm0 0"/><path d="m4.53125 120c-2.199219 0-4.03125-1.792969-4.03125-4s1.753906-4 3.953125-4h.078125c2.199219 0 4 1.792969 4 4s-1.800781 4-4 4zm0 0"/><path d="m492.53125 168c-2.199219 0-4.03125-1.792969-4.03125-4s1.753906-4 3.953125-4h.078125c2.199219 0 4 1.792969 4 4s-1.800781 4-4 4zm0 0"/><path d="m436.53125 208.015625c-2.199219 0-4.03125-1.792969-4.03125-4s1.753906-4 3.953125-4h.078125c2.199219 0 4 1.792969 4 4s-1.800781 4-4 4zm0 0"/><path d="m180.53125 8c-2.199219 0-4.03125-1.792969-4.03125-4s1.753906-4 3.953125-4h.078125c2.199219 0 4 1.792969 4 4s-1.800781 4-4 4zm0 0"/><path d="m44.300781 80c-2.214843 0-4-1.792969-4-4v-32c0-2.207031 1.785157-4 4-4 2.199219 0 4 1.792969 4 4v32c0 2.207031-1.800781 4-4 4zm0 0"/><path d="m52.300781 64h-16c-2.214843 0-4-1.792969-4-4s1.773438-4 4-4h16c2.199219 0 4 1.792969 4 4s-1.800781 4-4 4zm0 0"/><path d="m52.300781 472c-2.214843 0-4-1.792969-4-4v-32c0-2.207031 1.785157-4 4-4 2.199219 0 4 1.792969 4 4v32c0 2.207031-1.800781 4-4 4zm0 0"/><path d="m60.300781 456h-16c-2.214843 0-4-1.792969-4-4s1.785157-4 4-4h16c2.199219 0 4 1.792969 4 4s-1.800781 4-4 4zm0 0"/></g><path d="m378.644531 443.152344c-1.800781 0-3.441406-1.207032-3.886719-3.03125-.53125-2.144532.765626-4.304688 2.902344-4.839844.542969-.152344 24.144532-6.824219 38.96875-40.867188.871094-2.03125 3.246094-2.949218 5.261719-2.070312 2.035156.871094 2.953125 3.230469 2.066406 5.257812-16.59375 38.125-43.21875 45.160157-44.34375 45.4375-.328125.074219-.65625.113282-.96875.113282zm0 0" fill="#967adc"/><path d="m230.546875 155.976562c-3.390625 0-6.78125-.617187-9.4375-1.839843l-2.25-1.015625c-3.183594-1.503906-8.96875-1.503906-12.144531-.015625l-2.292969 1.039062c-5.265625 2.449219-13.546875 2.441407-18.832031-.007812l-2.234375-1.023438c-2.765625-1.289062-7.558594-1.496093-10.953125-.480469-.390625.128907-.78125.269532-1.160156.457032l-2.277344 1.054687c-1.984375.925781-4.375.070313-5.3125-1.9375-.9375-2.007812-.0625-4.382812 1.9375-5.3125l2.261718-1.054687c.671876-.320313 1.425782-.609375 2.199219-.847656 5.3125-1.59375 12.144531-1.238282 16.640625.855468l2.234375 1.015625c3.199219 1.496094 8.980469 1.488281 12.140625.015625l2.296875-1.046875c5.28125-2.441406 13.5625-2.441406 18.832031.015625l2.25 1.007813c3.183594 1.503906 8.964844 1.496093 12.125.023437l2.3125-1.054687c5.25-2.425781 13.511719-2.441407 18.816407.015625l2.28125 1.054687c3.160156 1.449219 8.953125 1.464844 12.113281-.023437l2.277344-1.03125c5.28125-2.457032 13.5625-2.441406 18.839844 0l2.234374 1.03125c3.199219 1.472656 8.984376 1.472656 12.144532 0l2.292968-1.039063c4.441407-2.070312 11.21875-2.433593 16.472657-.878906.839843.261719 1.640625.550781 2.375.894531l2.21875 1.023438c2.015625.921875 2.886719 3.296875 1.964843 5.296875-.917968 2.015625-3.308593 2.878906-5.292968 1.96875l-2.25-1.03125c-.421875-.195313-.871094-.363281-1.328125-.503907-3.3125-.984374-8.09375-.785156-10.816407.496094l-2.292968 1.046875c-5.25 2.449219-13.53125 2.449219-18.832032-.007812l-2.234374-1.03125c-3.183594-1.472657-8.984376-1.472657-12.160157 0l-2.261719 1.03125c-5.25 2.449219-13.53125 2.457031-18.832031.015625l-2.28125-1.0625c-3.167969-1.472656-8.953125-1.472656-12.113281.015625l-2.3125 1.046875c-2.589844 1.214844-5.964844 1.824218-9.359375 1.824218zm0 0" fill="#edab37"/><path d="m230.546875 179.976562c-3.390625 0-6.78125-.617187-9.4375-1.839843l-2.25-1.015625c-3.183594-1.503906-8.96875-1.503906-12.144531-.015625l-2.292969 1.039062c-5.265625 2.449219-13.546875 2.441407-18.832031-.007812l-2.234375-1.023438c-3.183594-1.496093-8.96875-1.488281-12.144531-.023437l-2.246094 1.054687c-5.3125 2.449219-13.59375 2.441407-18.855469-.015625l-2.25-1.007812c-.6875-.328125-1.527344-.59375-2.4375-.777344-2.160156-.441406-3.5625-2.542969-3.128906-4.710938.4375-2.167968 2.589843-3.578124 4.703125-3.136718 1.542968.304687 2.953125.761718 4.199218 1.335937l2.25 1.015625c3.183594 1.488282 8.964844 1.488282 12.160157.03125l2.246093-1.046875c5.28125-2.457031 13.558594-2.457031 18.839844.007813l2.234375 1.015625c3.199219 1.488281 8.980469 1.480469 12.140625.015625l2.296875-1.046875c5.28125-2.441407 13.5625-2.441407 18.832031.015625l2.25 1.007812c3.183594 1.503906 8.964844 1.488282 12.125.023438l2.3125-1.054688c5.25-2.425781 13.511719-2.441406 18.816407.015625l2.28125 1.054688c3.160156 1.449219 8.953125 1.457031 12.113281-.023438l2.277344-1.03125c5.28125-2.457031 13.5625-2.441406 18.839844 0l2.234374 1.03125c3.199219 1.472657 8.984376 1.472657 12.144532 0l2.292968-1.039062c5.265626-2.441407 13.546876-2.433594 18.832032.007812l2.234375 1.03125c3.183593 1.472657 8.964843 1.472657 12.160156 0l2.277344-1.03125c1.21875-.574219 2.640625-1.03125 4.183593-1.34375 2.144532-.433593 4.28125.9375 4.738282 3.113281.4375 2.167969-.953125 4.277344-3.128906 4.71875-.9375.199219-1.769532.457032-2.457032.785157l-2.277344 1.03125c-5.265624 2.457031-13.546874 2.449219-18.839843 0l-2.234375-1.03125c-3.199219-1.488281-8.984375-1.480469-12.144532 0l-2.292968 1.039062c-5.25 2.449219-13.53125 2.449219-18.832032-.007812l-2.234374-1.03125c-3.183594-1.472657-8.984376-1.472657-12.160157 0l-2.261719 1.03125c-5.25 2.4375-13.53125 2.457031-18.832031.015625l-2.28125-1.0625c-3.167969-1.472656-8.953125-1.457032-12.113281.015625l-2.3125 1.046875c-2.589844 1.214844-5.964844 1.824218-9.359375 1.824218zm0 0" fill="#edab37"/><path d="m230.546875 203.976562c-3.390625 0-6.78125-.617187-9.4375-1.839843l-2.25-1.015625c-3.183594-1.496094-8.96875-1.503906-12.144531-.015625l-2.292969 1.039062c-5.265625 2.449219-13.546875 2.449219-18.832031-.007812l-2.234375-1.023438c-3.183594-1.496093-8.96875-1.496093-12.144531-.023437l-2.246094 1.054687c-5.3125 2.449219-13.59375 2.441407-18.855469-.015625l-2.25-1.007812c-3.183594-1.503906-8.984375-1.503906-12.128906-.03125l-2.277344 1.0625c-1.066406.488281-2.234375.871094-3.488281 1.167968-2.167969.503907-4.3125-.816406-4.816406-2.96875-.511719-2.144531.816406-4.296874 2.953124-4.816406.71875-.167968 1.40625-.390625 2-.65625l2.246094-1.046875c5.265625-2.457031 13.542969-2.457031 18.839844 0l2.25 1.015625c3.183594 1.488282 8.964844 1.488282 12.160156.03125l2.246094-1.046875c5.28125-2.457031 13.558594-2.457031 18.839844.007813l2.230468 1.015625c3.203126 1.480469 8.984376 1.488281 12.144532.015625l2.296875-1.046875c5.28125-2.441407 13.558593-2.433594 18.832031.015625l2.25 1.007812c3.183594 1.503906 8.964844 1.496094 12.125.023438l2.3125-1.054688c5.25-2.425781 13.511719-2.433594 18.816406.015625l2.28125 1.054688c3.160156 1.449219 8.953125 1.449219 12.113282-.023438l2.277343-1.03125c5.28125-2.449219 13.5625-2.441406 18.839844 0l2.234375 1.03125c3.199219 1.472657 8.984375 1.480469 12.140625 0l2.296875-1.039062c5.265625-2.441407 13.546875-2.433594 18.832031.007812l2.234375 1.03125c3.183594 1.472657 8.964844 1.480469 12.160156 0l2.277344-1.03125c5.28125-2.449219 13.546875-2.441406 18.832032 0l2.25 1.03125c.605468.273438 1.296874.503907 2.015624.671875 2.160157.503906 3.488282 2.65625 2.984376 4.808594-.503907 2.152344-2.625 3.496094-4.816407 2.976562-1.265625-.296874-2.457031-.695312-3.511719-1.183593l-2.265624-1.03125c-3.199219-1.472657-8.984376-1.488281-12.144532 0l-2.277344 1.03125c-5.265624 2.457031-13.546874 2.457031-18.839843 0l-2.234375-1.03125c-3.199219-1.488281-8.984375-1.488281-12.144532 0l-2.292968 1.039062c-5.25 2.449219-13.53125 2.449219-18.832032-.007812l-2.234374-1.03125c-3.183594-1.472657-8.984376-1.472657-12.160157 0l-2.261719 1.03125c-5.25 2.457031-13.53125 2.464843-18.832031.015625l-2.28125-1.0625c-3.167969-1.472656-8.953125-1.464844-12.113281.015625l-2.3125 1.046875c-2.589844 1.214844-5.964844 1.824218-9.359375 1.824218zm0 0" fill="#edab37"/><path d="m124.027344 227.992188c-1.472656 0-2.933594-.128907-4.375-.359376-2.183594-.359374-3.65625-2.425781-3.296875-4.601562s2.410156-3.679688 4.609375-3.289062c3.167968.515624 6.855468.1875 9.128906-.855469l2.261719-1.046875c5.265625-2.457032 13.542969-2.457032 18.839843 0l2.25 1.015625c3.183594 1.488281 8.964844 1.488281 12.160157.03125l2.246093-1.046875c5.28125-2.457032 13.558594-2.457032 18.839844.007812l2.234375 1.015625c3.199219 1.496094 8.980469 1.488281 12.140625.015625l2.296875-1.046875c5.28125-2.433593 13.5625-2.441406 18.832031.015625l2.25 1.007813c3.183594 1.503906 8.964844 1.496093 12.125.023437l2.3125-1.054687c5.25-2.425781 13.511719-2.441407 18.816407.015625l2.28125 1.054687c3.160156 1.449219 8.953125 1.464844 12.113281-.023437l2.277344-1.03125c5.28125-2.457032 13.5625-2.441406 18.839844 0l2.234374 1.03125c3.199219 1.472656 8.984376 1.472656 12.144532 0l2.292968-1.039063c5.265626-2.433593 13.546876-2.433593 18.832032.007813l2.234375 1.03125c3.183593 1.472656 8.964843 1.480468 12.160156 0l2.277344-1.03125c5.28125-2.457032 13.546875-2.441406 18.832031 0l2.25 1.03125c2.277344 1.058594 5.917969 1.410156 9.160156.855468 2.09375-.328124 4.230469 1.097657 4.605469 3.28125.378906 2.167969-1.09375 4.230469-3.277344 4.609376-4.800781.816406-10.113281.246093-13.839843-1.488282l-2.234376-1.03125c-3.199218-1.488281-8.984374-1.480468-12.144531 0l-2.277343 1.03125c-5.265626 2.457032-13.546876 2.445313-18.839844 0l-2.234375-1.03125c-3.199219-1.488281-8.984375-1.480468-12.144531 0l-2.292969 1.039063c-5.25 2.449219-13.527344 2.449219-18.832031-.007813l-2.234376-1.03125c-3.183593-1.472656-8.984374-1.472656-12.160156 0l-2.261718 1.03125c-5.25 2.445313-13.527344 2.457032-18.832032.015625l-2.28125-1.066406c-3.167968-1.46875-8.953125-1.453125-12.113281.019531l-2.308594 1.046875c-5.234375 2.441407-13.503906 2.441407-18.816406-.015625l-2.25-1.015625c-3.183594-1.503906-8.96875-1.503906-12.144531-.015625l-2.292969 1.039063c-5.265625 2.449219-13.546875 2.4375-18.832031-.007813l-2.234375-1.023437c-3.183594-1.496094-8.96875-1.488281-12.144531-.027344l-2.246094 1.058594c-5.3125 2.449219-13.59375 2.4375-18.855469-.015625l-2.25-1.007813c-3.183594-1.503906-8.984375-1.503906-12.128906-.035156l-2.277344 1.066406c-2.609375 1.207031-5.984375 1.847657-9.425781 1.847657zm0 0" fill="#edab37"/><path d="m124.042969 251.976562c-3.40625 0-6.800781-.625-9.4375-1.847656-2.015625-.929687-2.875-3.3125-1.9375-5.3125.9375-2.007812 3.3125-2.863281 5.3125-1.9375 3.167969 1.480469 8.933593 1.480469 12.113281.007813l2.261719-1.046875c5.265625-2.457032 13.542969-2.457032 18.839843 0l2.25 1.015625c3.183594 1.496093 8.964844 1.488281 12.160157.03125l2.246093-1.046875c5.28125-2.457032 13.558594-2.457032 18.839844.007812l2.234375 1.015625c3.199219 1.488281 8.980469 1.480469 12.140625.015625l2.296875-1.046875c5.28125-2.441406 13.5625-2.449219 18.832031.015625l2.25 1.007813c3.183594 1.503906 8.964844 1.488281 12.125.023437l2.3125-1.054687c5.25-2.425781 13.511719-2.433594 18.816407.015625l2.28125 1.054687c3.160156 1.449219 8.953125 1.457031 12.113281-.023437l2.277344-1.03125c5.28125-2.449219 13.5625-2.441406 18.839844 0l2.234374 1.03125c3.199219 1.472656 8.984376 1.472656 12.144532 0l2.292968-1.039063c5.265626-2.441406 13.546876-2.433593 18.832032.007813l2.234375 1.03125c3.183593 1.480468 8.964843 1.472656 12.160156 0l2.277344-1.03125c5.28125-2.449219 13.546875-2.441406 18.832031 0l2.25 1.03125c3.183594 1.472656 8.96875 1.472656 12.144531 0 1.984375-.933594 4.390625-.046875 5.3125 1.953125.917969 2 .0625 4.375-1.953125 5.3125-5.28125 2.457031-13.5625 2.457031-18.855468 0l-2.234376-1.03125c-3.199218-1.472657-8.984374-1.488281-12.144531 0l-2.277343 1.03125c-5.265626 2.457031-13.546876 2.4375-18.839844 0l-2.234375-1.03125c-3.199219-1.488281-8.984375-1.488281-12.144531 0l-2.292969 1.039062c-5.25 2.449219-13.527344 2.449219-18.832031-.007812l-2.234376-1.03125c-3.183593-1.472657-8.984374-1.472657-12.160156 0l-2.261718 1.03125c-5.25 2.4375-13.527344 2.457031-18.832032.015625l-2.28125-1.0625c-3.167968-1.472656-8.953125-1.457032-12.113281.015625l-2.308594 1.046875c-5.234375 2.441406-13.503906 2.441406-18.816406-.015625l-2.25-1.015625c-3.183594-1.503906-8.96875-1.503906-12.144531-.015625l-2.292969 1.039062c-5.265625 2.449219-13.546875 2.449219-18.832031-.007812l-2.234375-1.023438c-3.183594-1.496093-8.96875-1.496093-12.144531-.023437l-2.246094 1.054687c-5.3125 2.449219-13.59375 2.441407-18.855469-.015625l-2.25-1.007812c-3.183594-1.503906-8.984375-1.503906-12.128906-.03125l-2.277344 1.0625c-2.640625 1.214844-6.03125 1.824218-9.410156 1.824218zm0 0" fill="#edab37"/><path d="m124.027344 275.992188c-2.933594 0-5.855469-.464844-8.328125-1.398438-2.0625-.785156-3.109375-3.089844-2.328125-5.160156.769531-2.074219 3.066406-3.105469 5.160156-2.328125 3.296875 1.246093 8.59375 1.132812 11.5625-.226563l2.261719-1.046875c5.265625-2.457031 13.542969-2.464843 18.839843.007813l2.25 1.015625c3.183594 1.480469 8.964844 1.480469 12.160157.023437l2.246093-1.046875c5.28125-2.457031 13.558594-2.464843 18.839844.007813l2.234375 1.015625c3.199219 1.488281 8.980469 1.488281 12.140625.015625l2.296875-1.046875c5.28125-2.441407 13.5625-2.449219 18.832031.015625l2.25 1.015625c3.183594 1.488281 8.964844 1.488281 12.125.015625l2.3125-1.046875c5.25-2.433594 13.511719-2.441407 18.816407 0l2.28125 1.0625c3.160156 1.457031 8.953125 1.457031 12.113281-.015625l2.277344-1.046875c5.28125-2.441407 13.5625-2.449219 18.839844.015625l2.234374 1.015625c3.199219 1.488281 8.984376 1.488281 12.144532.015625l2.292968-1.046875c5.265626-2.441407 13.546876-2.441407 18.832032.007812l2.234375 1.03125c3.183593 1.457031 8.964843 1.488281 12.160156 0l2.277344-1.039062c5.28125-2.441407 13.546875-2.441407 18.832031.007812l2.25 1.023438c2.984375 1.402343 8.277344 1.503906 11.589844.25 2.050781-.808594 4.378906.253906 5.144531 2.335937.785156 2.0625-.261719 4.375-2.328125 5.152344-5.359375 2.007812-12.839844 1.8125-17.75-.472656l-2.25-1.015625c-3.199219-1.488281-8.984375-1.488281-12.144531-.015625l-2.277344 1.046875c-5.265625 2.4375-13.546875 2.4375-18.839844-.007813l-2.234375-1.03125c-3.199218-1.472656-8.984375-1.480468-12.144531-.007812l-2.292969 1.046875c-5.25 2.449219-13.53125 2.457031-18.832031-.007813l-2.234375-1.023437c-3.183594-1.488281-8.984375-1.496094-12.160156-.007813l-2.261719 1.039063c-5.25 2.4375-13.527344 2.464843-18.832031.007812l-2.28125-1.066406c-3.167969-1.460937-8.953125-1.453125-12.113282.011719l-2.3125 1.046875c-5.230468 2.449219-13.503906 2.457031-18.8125-.015625l-2.25-1.015625c-3.183593-1.488281-8.96875-1.503907-12.144531-.007813l-2.296875 1.039063c-5.261718 2.4375-13.542968 2.449219-18.832031-.015625l-2.230469-1.015625c-3.183594-1.488281-8.96875-1.488281-12.144531-.015625l-2.246094 1.046875c-5.3125 2.4375-13.59375 2.429687-18.855469-.015625l-2.25-1.015625c-3.183593-1.488281-8.984374-1.488281-12.128906-.027344l-2.277344 1.058594c-2.648437 1.230469-6.042968 1.855469-9.417968 1.855469zm0 0" fill="#edab37"/><path d="m124.042969 299.984375c-.605469 0-1.230469-.023437-1.839844-.0625-2.199219-.152344-3.871094-2.058594-3.734375-4.257813.160156-2.199218 2.109375-3.855468 4.261719-3.726562 2.738281.207031 5.5625-.21875 7.363281-1.058594l2.261719-1.046875c5.265625-2.457031 13.542969-2.464843 18.839843.007813l2.25 1.015625c3.183594 1.480469 8.964844 1.480469 12.160157.023437l2.246093-1.046875c5.28125-2.457031 13.558594-2.464843 18.839844.007813l2.234375 1.015625c3.199219 1.480469 8.980469 1.488281 12.140625.015625l2.296875-1.046875c5.28125-2.441407 13.5625-2.457031 18.832031.015625l2.25 1.015625c3.183594 1.480469 8.964844 1.488281 12.125.015625l2.3125-1.046875c5.25-2.441407 13.511719-2.441407 18.816407 0l2.28125 1.0625c3.160156 1.464843 8.953125 1.457031 12.113281-.015625l2.277344-1.046875c5.28125-2.441407 13.5625-2.457031 18.839844.015625l2.234374 1.015625c3.199219 1.480469 8.984376 1.488281 12.144532.015625l2.292968-1.046875c5.265626-2.441407 13.546876-2.441407 18.832032.007812l2.234375 1.03125c3.183593 1.472657 8.964843 1.488281 12.160156 0l2.277344-1.039062c5.28125-2.441407 13.546875-2.441407 18.832031.007812l2.25 1.023438c1.832031.847656 4.605469 1.304687 7.390625 1.082031 2.199219-.121094 4.113281 1.519531 4.25 3.726562.160156 2.199219-1.511719 4.113282-3.722656 4.257813-4.160157.246094-8.214844-.386719-11.261719-1.792969l-2.25-1.023437c-3.199219-1.488281-8.984375-1.496094-12.144531-.015625l-2.277344 1.046875c-5.265625 2.449219-13.546875 2.4375-18.839844-.007813l-2.234375-1.03125c-3.199218-1.464844-8.984375-1.488281-12.144531-.007812l-2.292969 1.046875c-5.25 2.449219-13.53125 2.449219-18.832031-.007813l-2.234375-1.023437c-3.183594-1.488281-8.984375-1.496094-12.160156-.007813l-2.261719 1.039063c-5.25 2.4375-13.527344 2.457031-18.832031.007812l-2.28125-1.066406c-3.167969-1.460937-8.953125-1.453125-12.113282.011719l-2.3125 1.046875c-5.230468 2.449219-13.503906 2.457031-18.8125-.015625l-2.25-1.015625c-3.183593-1.488281-8.96875-1.503907-12.144531-.007813l-2.296875 1.039063c-5.261718 2.4375-13.542968 2.449219-18.832031-.015625l-2.230469-1.015625c-3.183594-1.488281-8.96875-1.496094-12.144531-.015625l-2.246094 1.046875c-5.3125 2.4375-13.59375 2.429687-18.855469-.015625l-2.25-1.015625c-3.183593-1.488281-8.984374-1.496094-12.128906-.027344l-2.277344 1.058594c-2.570312 1.199219-5.914062 1.847656-9.402343 1.847656zm0 0" fill="#edab37"/><path d="m230.546875 323.96875c-3.390625 0-6.78125-.609375-9.4375-1.839844l-2.25-1.015625c-3.183594-1.488281-8.96875-1.503906-12.144531-.007812l-2.292969 1.039062c-5.265625 2.441407-13.546875 2.449219-18.832031-.015625l-2.234375-1.015625c-3.183594-1.488281-8.96875-1.496093-12.144531-.015625l-2.246094 1.046875c-5.3125 2.441407-13.59375 2.429688-18.855469-.015625l-2.25-1.015625c-3.183594-1.488281-8.984375-1.488281-12.128906-.023437l-2.277344 1.054687c-1.984375.945313-4.394531.0625-5.3125-1.945312-.921875-2-.066406-4.375 1.953125-5.304688l2.261719-1.054687c5.265625-2.457032 13.542969-2.464844 18.839843.007812l2.25 1.015625c3.183594 1.480469 8.964844 1.488281 12.160157.023438l2.246093-1.046875c5.28125-2.457032 13.558594-2.464844 18.839844.007812l2.234375 1.015625c3.199219 1.480469 8.980469 1.488281 12.140625.015625l2.296875-1.046875c5.28125-2.441406 13.5625-2.449219 18.832031.015625l2.25 1.015625c3.183594 1.480469 8.964844 1.488281 12.125.015625l2.3125-1.046875c5.25-2.433593 13.511719-2.441406 18.816407 0l2.28125 1.0625c3.160156 1.457031 8.953125 1.457031 12.113281-.015625l2.277344-1.046875c5.28125-2.441406 13.5625-2.449219 18.839844.015625l2.234374 1.015625c3.199219 1.480469 8.984376 1.488281 12.144532.015625l2.292968-1.046875c5.265626-2.441406 13.546876-2.441406 18.832032.007813l2.234375 1.03125c3.183593 1.464844 8.964843 1.496094 12.160156 0l2.277344-1.039063c5.28125-2.441406 13.546875-2.441406 18.832031.007813l2.25 1.023437c2 .921875 2.886719 3.296875 1.96875 5.304688-.90625 2.007812-3.28125 2.878906-5.296875 1.976562l-2.265625-1.03125c-3.199219-1.488281-8.984375-1.496093-12.144531-.015625l-2.277344 1.046875c-5.265625 2.441407-13.546875 2.449219-18.839844-.007812l-2.234375-1.03125c-3.199218-1.480469-8.984375-1.488281-12.144531-.007813l-2.292969 1.046875c-5.25 2.449219-13.53125 2.449219-18.832031-.007812l-2.234375-1.023438c-3.183594-1.488281-8.984375-1.496093-12.160156-.007812l-2.261719 1.039062c-5.25 2.429688-13.527344 2.457031-18.832031.007813l-2.28125-1.0625c-3.167969-1.457032-8.953125-1.464844-12.113282.007812l-2.3125 1.046875c-2.597656 1.214844-5.972656 1.824219-9.367187 1.824219zm0 0" fill="#edab37"/><path d="m230.546875 347.96875c-3.390625 0-6.78125-.609375-9.4375-1.839844l-2.25-1.015625c-3.183594-1.488281-8.96875-1.503906-12.144531-.007812l-2.292969 1.039062c-5.265625 2.441407-13.546875 2.449219-18.832031-.015625l-2.234375-1.015625c-3.183594-1.488281-8.96875-1.496093-12.144531-.015625l-2.246094 1.046875c-5.3125 2.441407-13.59375 2.429688-18.855469-.015625l-2.25-1.015625c-.542969-.257812-1.160156-.464843-1.800781-.625-2.144532-.542969-3.421875-2.726562-2.871094-4.863281s2.769531-3.441406 4.855469-2.882812c1.128906.289062 2.183593.664062 3.144531 1.105468l2.265625 1.023438c3.183594 1.480468 8.96875 1.480468 12.160156.023437l2.246094-1.046875c5.28125-2.457031 13.5625-2.464844 18.839844.007813l2.234375 1.015625c3.199218 1.488281 8.980468 1.488281 12.140625.015625l2.296875-1.046875c5.28125-2.441406 13.5625-2.449219 18.832031.015625l2.25 1.015625c3.183594 1.488281 8.96875 1.488281 12.125.015625l2.3125-1.046875c5.25-2.433594 13.511719-2.441406 18.816406 0l2.28125 1.0625c3.160157 1.457031 8.953125 1.457031 12.113281-.015625l2.277344-1.046875c5.28125-2.441406 13.5625-2.449219 18.839844.015625l2.234375 1.015625c3.199219 1.488281 8.984375 1.488281 12.144531.015625l2.292969-1.046875c5.265625-2.441406 13.546875-2.449219 18.832031.007812l2.234375 1.03125c3.183594 1.457032 8.96875 1.488282 12.160157 0l2.277343-1.039062c.984375-.449219 2.050781-.824219 3.183594-1.105469 2.1875-.527344 4.3125.785156 4.832031 2.929687.53125 2.144532-.78125 4.3125-2.917968 4.832032-.640626.160156-1.230469.375-1.785157.617187l-2.246093 1.03125c-5.265626 2.449219-13.546876 2.441407-18.839844-.007812l-2.234375-1.03125c-3.199219-1.472657-8.984375-1.488281-12.144531-.007813l-2.292969 1.046875c-5.25 2.449219-13.527344 2.449219-18.832031-.007812l-2.234376-1.023438c-3.183593-1.488281-8.984374-1.496093-12.160156-.007812l-2.261718 1.039062c-5.25 2.429688-13.527344 2.464844-18.832032.007813l-2.28125-1.0625c-3.167968-1.464844-8.953125-1.457032-12.113281.007812l-2.308594 1.046875c-2.609375 1.214844-5.984375 1.824219-9.378906 1.824219zm0 0" fill="#edab37"/><path d="m230.546875 371.96875c-3.390625 0-6.78125-.609375-9.4375-1.839844l-2.25-1.015625c-3.183594-1.488281-8.96875-1.503906-12.144531-.007812l-2.292969 1.039062c-5.265625 2.441407-13.546875 2.449219-18.832031-.015625l-2.234375-1.015625c-2.390625-1.121093-6.328125-1.441406-9.574219-.800781-2.144531.375-4.265625-1-4.6875-3.167969-.425781-2.167969 1-4.273437 3.160156-4.695312 4.917969-.953125 10.589844-.410157 14.453125 1.390625l2.234375 1.015625c3.199219 1.480469 8.984375 1.488281 12.144532.015625l2.292968-1.046875c5.28125-2.441407 13.5625-2.449219 18.832032.015625l2.25 1.015625c3.183593 1.480469 8.96875 1.488281 12.128906.015625l2.308594-1.046875c5.25-2.433594 13.511718-2.441407 18.816406 0l2.28125 1.0625c3.160156 1.464843 8.953125 1.457031 12.113281-.015625l2.277344-1.046875c5.28125-2.441407 13.5625-2.449219 18.839843.015625l2.234376 1.015625c3.199218 1.480469 8.984374 1.488281 12.144531.015625l2.292969-1.046875c3.859374-1.792969 9.34375-2.335938 14.265624-1.398438 2.167969.40625 3.59375 2.503907 3.183594 4.664063-.40625 2.167968-2.609375 3.574218-4.65625 3.191406-3.261718-.609375-7.144531-.28125-9.457031.808594l-2.292969 1.046875c-5.25 2.449219-13.53125 2.449219-18.832031-.007813l-2.234375-1.023437c-3.183594-1.488281-8.984375-1.496094-12.160156-.007813l-2.261719 1.039063c-5.25 2.4375-13.527344 2.457031-18.832031.007812l-2.28125-1.066406c-3.167969-1.460937-8.953125-1.453125-12.113282.011719l-2.3125 1.046875c-2.597656 1.222656-5.972656 1.832031-9.367187 1.832031zm0 0" fill="#edab37"/><path d="m384.300781 444c0 6.628906-5.375 12-12 12-6.628906 0-12-5.371094-12-12s5.371094-12 12-12c6.625 0 12 5.371094 12 12zm0 0" fill="#ac92ec"/></svg>