<svg height="512pt" viewBox="0 0 512 512" width="512pt" xmlns="http://www.w3.org/2000/svg"><path d="m483.800781 383.96875h-32c8.832031 0 16-7.167969 16-16s-7.167969-16-16-16h-32c8.832031 0 16-7.167969 16-16s-7.167969-16-16-16h-48c8.832031 0 16-7.167969 16-16s-7.167969-16-16-16h88c8.832031 0 16-7.167969 16-16s-7.167969-16-16-16h-40c8.832031 0 16-7.167969 16-16s-7.167969-16-16-16h-16c8.832031 0 16-7.167969 16-16s-7.167969-16-16-16h80c8.832031 0 16-7.167969 16-16s-7.167969-16-16-16h-32c8.832031 0 16-7.167969 16-16s-7.167969-16-16-16h-32c8.832031 0 16-7.167969 16-16s-7.167969-16-16-16h-24c8.832031 0 16-7.167969 16-16s-7.167969-16-16-16h-240c-8.832031 0-16 7.167969-16 16s7.167969 16 16 16h-56c-8.832031 0-16 7.167969-16 16s7.167969 16 16 16h-16c-8.832031 0-16 7.167969-16 16s7.167969 16 16 16h48c-8.832031 0-16 7.167969-16 16s7.167969 16 16 16h-88c-8.832031 0-16 7.167969-16 16s7.167969 16 16 16h40c-8.832031 0-16 7.167969-16 16s7.167969 16 16 16h-40c-8.832031 0-16 7.167969-16 16s7.167969 16 16 16h-16c-8.832031 0-16 7.167969-16 16s7.167969 16 16 16h40c-8.832031 0-16 7.167969-16 16s7.167969 16 16 16h-16c-8.832031 0-16 7.167969-16 16s7.167969 16 16 16h80c-8.832031 0-16 7.167969-16 16s7.167969 16 16 16h-32c-8.832031 0-16 7.167969-16 16s7.167969 16 16 16h272c8.832031 0 16-7.167969 16-16s-7.167969-16-16-16h112c8.832031 0 16-7.167969 16-16s-7.160156-16-16-16zm0 0" fill="#656d78"/><path d="m139.800781 443.984375c0 17.671875-14.328125 32-32 32-17.675781 0-32-14.328125-32-32s14.324219-32 32-32c17.671875 0 32 14.328125 32 32zm0 0" fill="#ccd1d9"/><path d="m83.800781 443.984375c0-16.296875 12.230469-29.609375 28-31.59375-1.328125-.167969-2.632812-.40625-4-.40625-17.671875 0-32 14.328125-32 32s14.328125 32 32 32c1.367188 0 2.671875-.230469 4-.410156-15.761719-1.980469-28-15.292969-28-31.589844zm0 0" fill="#e6e9ed"/><path d="m123.800781 435.984375c0 4.417969-3.582031 8-8 8s-8-3.582031-8-8 3.582031-8 8-8 8 3.582031 8 8zm0 0" fill="#aab2bd"/><path d="m403.800781 255.96875c0 81.738281-66.261719 148-148 148s-148-66.261719-148-148 66.261719-148 148-148 148 66.261719 148 148zm0 0" fill="#4a89dc"/><path d="m332.519531 218.128906c-3.832031 5.199219 5.519531 22.328125 34.640625 20.078125 9.199219-.71875-10.238281 31.449219-16.082031 41.609375-7.277344 12.640625-5.4375 27.589844-12.316406 40.160156-4.320313 7.917969-11.683594 13.839844-17.523438 20.640626-7.277343 8.398437-15.4375 16.640624-27.589843 15.589843-8.089844-.71875-11.367188-9.589843-12.960938-15.910156-3.917969-15.761719-2.238281-32.089844-6.558594-47.921875-5.199218-18.632812-21.121094-16.800781-36.882812-16.960938-19.039063-.230468-30.796875-12.398437-31.511719-31.199218-1.765625-46.472656 37.363281-51.359375 41.832031-50.550782 6.488282 1.191407 25.523438 4.480469 30.320313 7.121094 16.242187 8.878906 32.808593-3.441406 31.519531-9.921875-1.359375-6.550781-41.597656-15.910156-55.839844-16.953125-5.117187-.316406-15.597656 4.082032-19.511718-.238281-3.199219-3.449219-.238282-8.960937 2-11.910156 15.761718-20.730469 42-25.769531 64.160156-36.5625.722656-.328125 6.320312-3.128907 7.679687-7.765625 39.203125 14.71875 70.488281 45.597656 85.679688 84.488281-6.476563.796875-20.316407 9.917969-20.71875 12.871094-2.09375 16.214843-33.695313-5.695313-40.335938 3.335937zm0 0" fill="#8cc152"/><path d="m155.328125 284.839844c7.761719 11.28125 15.910156 26.808594 11.761719 40.96875-1.761719 6.078125-5.761719 10.953125-10.488282 15.03125-1.121093.96875-13.042968 10-14.320312 10h-.082031c-21.4375-25.671875-34.398438-58.800782-34.398438-94.871094 0-10.160156 1.039063-20.082031 3.039063-29.679688 8.082031 4.480469 25.28125 32.398438 29.761718 38.640626 4.726563 6.636718 10.085938 13.117187 14.726563 19.910156zm0 0" fill="#8cc152"/><path d="m123.816406 255.96875c0-79.472656 62.679688-144.128906 141.28125-147.664062-3.082031-.199219-6.167968-.335938-9.296875-.335938-81.746093 0-148 66.261719-148 148 0 81.734375 66.253907 148 148 148 3.128907 0 6.214844-.136719 9.296875-.335938-78.601562-3.535156-141.28125-68.191406-141.28125-147.664062zm0 0" fill="#5d9cec"/><path d="m109.175781 275.105469c.390625 3.039062.808594 6.070312 1.382813 9.046875.371094 1.902344.832031 3.777344 1.28125 5.648437.609375 2.613281 1.25 5.222657 2 7.792969.566406 1.949219 1.207031 3.878906 1.855468 5.796875.824219 2.425781 1.695313 4.832031 2.632813 7.183594.75 1.898437 1.535156 3.777343 2.367187 5.632812 1.039063 2.335938 2.167969 4.625 3.320313 6.898438.886719 1.75 1.785156 3.503906 2.746094 5.214843 1.328125 2.375 2.773437 4.671876 4.222656 6.960938.945313 1.488281 1.847656 2.992188 2.839844 4.445312 1.910156 2.785157 3.96875 5.472657 6.0625 8.113282.671875.839844 1.273437 1.734375 1.960937 2.550781.128906.160156.28125.296875.410156.457031h.015626c.871093 0 6.621093-4.160156 10.589843-7.136718-18.175781-24.535157-29.054687-54.832032-29.054687-87.742188 0-4.914062.246094-9.769531.71875-14.554688-5.09375-6.972656-10.230469-13.199218-13.695313-15.125-2 9.597657-3.039062 19.519532-3.039062 29.679688 0 4.832031.269531 9.582031.71875 14.296875.175781 1.628906.457031 3.222656.664062 4.839844zm0 0" fill="#a0d468"/><g fill="#e6e9ed"><path d="m4.039062 392c-2.207031 0-4.039062-1.792969-4.039062-4s1.742188-4 3.953125-4h.085937c2.199219 0 4 1.792969 4 4s-1.800781 4-4 4zm0 0"/><path d="m84.039062 352c-2.207031 0-4.039062-1.792969-4.039062-4s1.753906-4 3.953125-4h.085937c2.199219 0 4 1.792969 4 4s-1.800781 4-4 4zm0 0"/><path d="m220.039062 456c-2.207031 0-4.039062-1.792969-4.039062-4s1.753906-4 3.953125-4h.085937c2.199219 0 4 1.792969 4 4s-1.800781 4-4 4zm0 0"/><path d="m284.039062 512c-2.207031 0-4.039062-1.792969-4.039062-4s1.753906-4 3.953125-4h.085937c2.199219 0 4 1.792969 4 4s-1.800781 4-4 4zm0 0"/><path d="m420.039062 488c-2.207031 0-4.039062-1.792969-4.039062-4s1.753906-4 3.953125-4h.085937c2.199219 0 4 1.792969 4 4s-1.800781 4-4 4zm0 0"/><path d="m356.039062 432c-2.207031 0-4.039062-1.792969-4.039062-4s1.753906-4 3.953125-4h.085937c2.199219 0 4 1.792969 4 4s-1.800781 4-4 4zm0 0"/><path d="m484.039062 224c-2.207031 0-4.039062-1.792969-4.039062-4s1.753906-4 3.953125-4h.085937c2.199219 0 4 1.792969 4 4s-1.800781 4-4 4zm0 0"/><path d="m308.039062 64c-2.207031 0-4.039062-1.792969-4.039062-4s1.742188-4 3.953125-4h.085937c2.199219 0 4 1.792969 4 4s-1.800781 4-4 4zm0 0"/><path d="m428.039062 144c-2.207031 0-4.039062-1.792969-4.039062-4s1.753906-4 3.953125-4h.085937c2.199219 0 4 1.792969 4 4s-1.800781 4-4 4zm0 0"/><path d="m44.039062 48c-2.214843 0-4.039062-1.792969-4.039062-4s1.742188-4 3.953125-4h.085937c2.199219 0 4 1.792969 4 4s-1.800781 4-4 4zm0 0"/><path d="m380.039062 8c-2.207031 0-4.039062-1.792969-4.039062-4s1.742188-4 3.953125-4h.085937c2.199219 0 4 1.792969 4 4s-1.800781 4-4 4zm0 0"/><path d="m484.039062 416c-2.207031 0-4.039062-1.792969-4.039062-4s1.753906-4 3.953125-4h.085937c2.199219 0 4 1.792969 4 4s-1.800781 4-4 4zm0 0"/><path d="m68.039062 136c-2.207031 0-4.039062-1.792969-4.039062-4s1.742188-4 3.953125-4h.085937c2.199219 0 4 1.792969 4 4s-1.800781 4-4 4zm0 0"/><path d="m19.792969 272c-2.207031 0-4-1.792969-4-4v-32c0-2.207031 1.792969-4 4-4s4 1.792969 4 4v32c0 2.207031-1.785157 4-4 4zm0 0"/><path d="m27.792969 256h-16c-2.207031 0-4-1.792969-4-4s1.792969-4 4-4h16c2.207031 0 4 1.792969 4 4s-1.785157 4-4 4zm0 0"/><path d="m499.792969 336c-2.207031 0-4-1.792969-4-4v-32c0-2.207031 1.792969-4 4-4s4 1.792969 4 4v32c0 2.207031-1.785157 4-4 4zm0 0"/><path d="m507.792969 320h-16c-2.207031 0-4-1.792969-4-4s1.792969-4 4-4h16c2.207031 0 4 1.792969 4 4s-1.785157 4-4 4zm0 0"/><path d="m155.792969 40c-2.207031 0-4-1.792969-4-4v-32c0-2.207031 1.792969-4 4-4s4 1.792969 4 4v32c0 2.207031-1.785157 4-4 4zm0 0"/><path d="m163.792969 24h-16c-2.207031 0-4-1.792969-4-4s1.792969-4 4-4h16c2.207031 0 4 1.792969 4 4s-1.785157 4-4 4zm0 0"/></g><path d="m108.046875 463.984375c-2.207031 0-4.039063-1.792969-4.039063-4s1.753907-4 3.953126-4h.085937c2.199219 0 4 1.792969 4 4s-1.800781 4-4 4zm0 0" fill="#aab2bd"/><path d="m92.046875 447.984375c-2.207031 0-4.039063-1.792969-4.039063-4s1.753907-4 3.953126-4h.085937c2.199219 0 4 1.792969 4 4s-1.800781 4-4 4zm0 0" fill="#aab2bd"/><path d="m491.800781 60c0 17.671875-14.328125 32-32 32-17.675781 0-32-14.328125-32-32s14.324219-32 32-32c17.671875 0 32 14.328125 32 32zm0 0" fill="#ed5565"/><path d="m435.808594 60c0-16.304688 12.230468-29.601562 28-31.601562-1.328125-.167969-2.632813-.398438-4.007813-.398438-17.671875 0-32 14.328125-32 32s14.328125 32 32 32c1.375 0 2.679688-.230469 4.007813-.398438-15.761719-2-28-15.296874-28-31.601562zm0 0" fill="#da4453"/><path d="m475.800781 68c0-4.417969-5.375-8-12-8-6.628906 0-12 3.582031-12 8s5.371094 8 12 8c6.625 0 12-3.582031 12-8zm0 0" fill="#da4453"/><path d="m451.808594 39.976562h-16.792969c-1.960937 2.429688-3.648437 5.070313-4.832031 8h21.625c2.207031 0 4-1.785156 4-4 0-2.199218-1.785156-4-4-4zm0 0" fill="#da4453"/><path d="m443.046875 39.976562h-8.023437c0 .015626-.007813.015626-.015626.03125-.910156 1.128907-1.742187 2.304688-2.511718 3.527344-.28125.472656-.527344.96875-.792969 1.457032-.535156.976562-1.09375 1.945312-1.511719 2.984374h8.023438c1.191406-2.921874 2.847656-5.585937 4.832031-8zm0 0" fill="#d3374e"/></svg>