<svg height="512pt" viewBox="0 -16 512.032 512" width="512pt" xmlns="http://www.w3.org/2000/svg"><path d="m483.800781 360.015625h-32c8.832031 0 16-7.167969 16-16s-7.167969-16-16-16h-32c8.832031 0 16-7.167969 16-16s-7.167969-16-16-16h-48c8.832031 0 16-7.167969 16-16s-7.167969-16-16-16h88c8.832031 0 16-7.167969 16-16s-7.167969-16-16-16h-40c8.832031 0 16-7.167969 16-16s-7.167969-16-16-16h-16c8.832031 0 16-7.167969 16-16s-7.167969-16-16-16h80c8.832031 0 16-7.167969 16-16s-7.167969-16-16-16h-32c8.832031 0 16-7.167969 16-16s-7.167969-16-16-16h-32c8.832031 0 16-7.167969 16-16s-7.167969-16-16-16h-24c8.832031 0 16-7.167969 16-16s-7.167969-16-16-16h-240c-8.839843 0-16 7.167969-16 16s7.160157 16 16 16h-56c-8.839843 0-16 7.167969-16 16s7.160157 16 16 16h-16c-8.839843 0-16 7.167969-16 16s7.160157 16 16 16h48c-8.839843 0-16 7.167969-16 16s7.160157 16 16 16h-88c-8.839843 0-16 7.167969-16 16s7.160157 16 16 16h40c-8.839843 0-16 7.167969-16 16s7.160157 16 16 16h-40c-8.839843 0-16 7.167969-16 16s7.160157 16 16 16h-16c-8.839843 0-16 7.167969-16 16s7.160157 16 16 16h40c-8.839843 0-16 7.167969-16 16s7.160157 16 16 16h-16c-8.839843 0-16 7.167969-16 16s7.160157 16 16 16h80c-8.839843 0-16 7.167969-16 16s7.160157 16 16 16h-32c-8.839843 0-16 7.167969-16 16s7.160157 16 16 16h272c8.832031 0 16-7.167969 16-16s-7.167969-16-16-16h112c8.832031 0 16-7.167969 16-16s-7.175781-16-16-16zm0 0" fill="#656d78"/><path d="m403.800781 232.015625c0 81.738281-66.261719 148-148 148s-148-66.261719-148-148 66.261719-148 148-148 148 66.261719 148 148zm0 0" fill="#ccd1d9"/><path d="m267.785156 156c0 17.671875-14.328125 32-32 32-17.675781 0-32-14.328125-32-32s14.324219-32 32-32c17.671875 0 32 14.328125 32 32zm0 0" fill="#aab2bd"/><path d="m347.800781 196.015625c0 4.417969-3.582031 8-8 8s-8-3.582031-8-8 3.582031-8 8-8 8 3.582031 8 8zm0 0" fill="#aab2bd"/><path d="m251.800781 328.015625c0 6.628906-5.375 12-12 12-6.628906 0-12-5.371094-12-12s5.371094-12 12-12c6.625 0 12 5.371094 12 12zm0 0" fill="#aab2bd"/><path d="m187.800781 260.015625c0 13.253906-10.746093 24-24 24-13.253906 0-24-10.746094-24-24s10.746094-24 24-24c13.253907 0 24 10.746094 24 24zm0 0" fill="#aab2bd"/><path d="m355.800781 300.015625c0 4.417969-3.582031 8-8 8s-8-3.582031-8-8 3.582031-8 8-8 8 3.582031 8 8zm0 0" fill="#aab2bd"/><path d="m291.800781 244.015625c0 8.835937-7.164062 16-16 16-8.835937 0-16-7.164063-16-16s7.164063-16 16-16c8.835938 0 16 7.164063 16 16zm0 0" fill="#aab2bd"/><g fill="#e6e9ed"><path d="m123.785156 232.015625c0-76.328125 57.800782-139.121094 132-147.105469-2.21875-.238281-4.457031-.40625-6.707031-.558594-78.589844 3.535157-141.277344 68.191407-141.277344 147.664063s62.6875 144.128906 141.277344 147.664063c2.25-.152344 4.488281-.320313 6.707031-.558594-74.210937-7.984375-132-70.777344-132-147.105469zm0 0"/><path d="m508.03125 240.015625c-2.199219 0-4.03125-1.792969-4.03125-4s1.753906-4 3.953125-4h.078125c2.199219 0 4 1.792969 4 4s-1.800781 4-4 4zm0 0"/><path d="m452.03125 288.015625c-2.199219 0-4.03125-1.792969-4.03125-4s1.753906-4 3.953125-4h.078125c2.199219 0 4 1.792969 4 4s-1.800781 4-4 4zm0 0"/><path d="m420.03125 376.015625c-2.199219 0-4.03125-1.792969-4.03125-4s1.753906-4 3.953125-4h.078125c2.199219 0 4 1.792969 4 4s-1.800781 4-4 4zm0 0"/><path d="m356.03125 480.015625c-2.199219 0-4.03125-1.792969-4.03125-4s1.753906-4 3.953125-4h.078125c2.199219 0 4 1.792969 4 4s-1.800781 4-4 4zm0 0"/><path d="m164.03125 416.015625c-2.199219 0-4.03125-1.792969-4.03125-4s1.753906-4 3.953125-4h.078125c2.199219 0 4 1.792969 4 4s-1.800781 4-4 4zm0 0"/><path d="m20.03125 344.015625c-2.199219 0-4.03125-1.792969-4.03125-4s1.753906-4 3.953125-4h.078125c2.199219 0 4 1.792969 4 4s-1.800781 4-4 4zm0 0"/><path d="m60.03125 256.015625c-2.199219 0-4.03125-1.792969-4.03125-4s1.753906-4 3.953125-4h.078125c2.199219 0 4 1.792969 4 4s-1.800781 4-4 4zm0 0"/><path d="m84.03125 136.015625c-2.199219 0-4.03125-1.792969-4.03125-4s1.753906-4 3.953125-4h.078125c2.199219 0 4 1.792969 4 4s-1.800781 4-4 4zm0 0"/><path d="m180.03125 64.015625c-2.199219 0-4.03125-1.792969-4.03125-4s1.753906-4 3.953125-4h.078125c2.199219 0 4 1.792969 4 4s-1.800781 4-4 4zm0 0"/><path d="m308.03125 24.015625c-2.199219 0-4.03125-1.792969-4.03125-4s1.753906-4 3.953125-4h.078125c2.199219 0 4 1.792969 4 4s-1.800781 4-4 4zm0 0"/><path d="m452.03125 136.015625c-2.199219 0-4.03125-1.792969-4.03125-4s1.753906-4 3.953125-4h.078125c2.199219 0 4 1.792969 4 4s-1.800781 4-4 4zm0 0"/><path d="m4.03125 168.015625c-2.199219 0-4.03125-1.792969-4.03125-4s1.753906-4 3.953125-4h.078125c2.199219 0 4 1.792969 4 4s-1.800781 4-4 4zm0 0"/><path d="m292.03125 416.015625c-2.199219 0-4.03125-1.792969-4.03125-4s1.753906-4 3.953125-4h.078125c2.199219 0 4 1.792969 4 4s-1.800781 4-4 4zm0 0"/><path d="m196.03125 480.015625c-2.199219 0-4.03125-1.792969-4.03125-4s1.753906-4 3.953125-4h.078125c2.199219 0 4 1.792969 4 4s-1.800781 4-4 4zm0 0"/><path d="m75.800781 40.015625c-2.214843 0-4-1.792969-4-4v-32c0-2.207031 1.785157-4 4-4 2.199219 0 4 1.792969 4 4v32c0 2.207031-1.800781 4-4 4zm0 0"/><path d="m83.800781 24.015625h-16c-2.214843 0-4-1.792969-4-4s1.773438-4 4-4h16c2.199219 0 4 1.792969 4 4s-1.800781 4-4 4zm0 0"/><path d="m459.800781 456.015625c-2.214843 0-4-1.792969-4-4v-32c0-2.207031 1.785157-4 4-4 2.199219 0 4 1.792969 4 4v32c0 2.207031-1.800781 4-4 4zm0 0"/><path d="m467.800781 440.015625h-16c-2.214843 0-4-1.792969-4-4s1.785157-4 4-4h16c2.199219 0 4 1.792969 4 4s-1.800781 4-4 4zm0 0"/></g><path d="m491.800781 36.015625c0 17.671875-14.328125 32-32 32-17.675781 0-32-14.328125-32-32s14.324219-32 32-32c17.671875 0 32 14.328125 32 32zm0 0" fill="#ed5565"/><path d="m435.816406 36.015625c0-16.304687 12.230469-29.601563 28-31.601563-1.328125-.167968-2.640625-.398437-4.015625-.398437-17.671875 0-32 14.328125-32 32s14.328125 32 32 32c1.375 0 2.6875-.230469 4.015625-.398437-15.769531-2-28-15.296876-28-31.601563zm0 0" fill="#da4453"/><path d="m475.800781 44.015625c0-4.417969-5.375-8-12-8-6.628906 0-12 3.582031-12 8s5.371094 8 12 8c6.625 0 12-3.582031 12-8zm0 0" fill="#da4453"/><path d="m451.816406 15.992188h-16.800781c-1.953125 2.433593-3.640625 5.070312-4.832031 8h21.625c2.199218 0 4-1.785157 4-4 .007812-2.199219-1.792969-4-3.992188-4zm0 0" fill="#da4453"/><path d="m443.046875 15.992188h-8.03125c0 .015624 0 .015624-.015625.03125-.902344 1.128906-1.734375 2.304687-2.511719 3.527343-.28125.472657-.527343.96875-.785156 1.457031-.542969.976563-1.09375 1.945313-1.511719 2.984376h8.015625c1.199219-2.921876 2.855469-5.585938 4.839844-8zm0 0" fill="#d3374e"/><path d="m99.816406 419.984375c0 17.671875-14.328125 32-32 32s-32-14.328125-32-32 14.328125-32 32-32 32 14.328125 32 32zm0 0" fill="#4a89dc"/><path d="m43.816406 419.984375c0-16.304687 12.230469-29.601563 28-31.601563-1.328125-.167968-2.625-.398437-4-.398437-17.671875 0-32 14.328125-32 32s14.328125 32 32 32c1.375 0 2.671875-.230469 4-.398437-15.769531-2-28-15.296876-28-31.601563zm0 0" fill="#5d9cec"/><path d="m85.296875 410c-5.855469.441406-7.738281-2.992188-6.96875-4.03125l-10.96875-3.496094c-.953125-.535156-4.785156-1.183594-6.078125-1.417968-.921875-.160157-8.769531.816406-8.410156 10.160156.144531 3.769531 2.503906 6.199218 6.3125 6.25 3.167968.03125 6.375-.34375 7.410156 3.40625.871094 3.167968.542969 6.472656 1.328125 9.625.308594 1.28125.980469 3.046875 2.589844 3.183594 2.441406.214843 4.082031-1.433594 5.542969-3.136719 1.167968-1.367188 2.65625-2.519531 3.511718-4.136719 1.394532-2.511719 1.019532-5.511719 2.472656-8.0625 1.191407-2.023438 5.105469-8.488281 3.257813-8.34375zm0 0" fill="#a0d468"/></svg>