<svg height="512pt" viewBox="-4 0 512 512" width="512pt" xmlns="http://www.w3.org/2000/svg"><path d="m476.511719 59.503906c0 17.953125-14.554688 32.503906-32.503907 32.503906-17.953124 0-32.503906-14.550781-32.503906-32.503906s14.550782-32.503906 32.503906-32.503906c17.949219 0 32.503907 14.550781 32.503907 32.503906zm0 0" fill="#e9573f"/><path d="m419.511719 59.503906c0-16.574218 12.460937-30.105468 28.503906-32.097656-1.320313-.167969-2.625-.40625-4-.40625-17.953125 0-32.503906 14.542969-32.503906 32.503906 0 17.960938 14.542969 32.496094 32.496093 32.496094 1.375 0 2.679688-.230469 4-.40625-16.042968-1.992188-28.496093-15.515625-28.496093-32.089844zm0 0" fill="#fc6e51"/><path d="m480.007812 388h-32c8.832032 0 16-7.167969 16-16s-7.167968-16-16-16h-32c8.832032 0 16-7.167969 16-16s-7.167968-16-16-16h-48c8.832032 0 16-7.167969 16-16s-7.167968-16-16-16h88c8.832032 0 16-7.167969 16-16s-7.167968-16-16-16h-40c8.832032 0 16-7.167969 16-16s-7.167968-16-16-16h-16c8.832032 0 16-7.167969 16-16s-7.167968-16-16-16h80c8.832032 0 16-7.167969 16-16s-7.167968-16-16-16h-32c8.832032 0 16-7.167969 16-16s-7.167968-16-16-16h-32c8.832032 0 16-7.167969 16-16s-7.167968-16-16-16h-24c8.832032 0 16-7.167969 16-16s-7.167968-16-16-16h-240c-8.832031 0-16 7.167969-16 16s7.167969 16 16 16h-56c-8.832031 0-16 7.167969-16 16s7.167969 16 16 16h-16c-8.832031 0-16 7.167969-16 16s7.167969 16 16 16h48c-8.832031 0-16 7.167969-16 16s7.167969 16 16 16h-88c-8.832031 0-16 7.167969-16 16s7.167969 16 16 16h40c-8.832031 0-16 7.167969-16 16s7.167969 16 16 16h-40c-8.832031 0-16 7.167969-16 16s7.167969 16 16 16h-16c-8.832031 0-16 7.167969-16 16s7.167969 16 16 16h40c-8.832031 0-16 7.167969-16 16s7.167969 16 16 16h-16c-8.832031 0-16 7.167969-16 16s7.167969 16 16 16h80c-8.832031 0-16 7.167969-16 16s7.167969 16 16 16h-32c-8.832031 0-16 7.167969-16 16s7.167969 16 16 16h272c8.832032 0 16-7.167969 16-16s-7.167968-16-16-16h112c8.832032 0 16-7.167969 16-16s-7.160156-16-16-16zm0 0" fill="#656d78"/><path d="m400.007812 260c0 81.738281-66.261718 148-148 148-81.738281 0-148-66.261719-148-148s66.261719-148 148-148c81.738282 0 148 66.261719 148 148zm0 0" fill="#da4453"/><path d="m400.007812 260c0 81.738281-66.261718 148-148 148-81.738281 0-148-66.261719-148-148s66.261719-148 148-148c81.738282 0 148 66.261719 148 148zm0 0" fill="#da4453"/><path d="m120.023438 260c0-79.472656 62.6875-144.128906 141.277343-147.664062-3.070312-.199219-6.167969-.335938-9.292969-.335938-81.738281 0-148 66.265625-148 148s66.269532 148 148 148c3.125 0 6.214844-.136719 9.292969-.335938-78.589843-3.535156-141.277343-68.191406-141.277343-147.664062zm0 0" fill="#ed5565"/><path d="m336.007812 228c0-6.628906-12.539062-12-28-12-15.464843 0-28 5.371094-28 12s12.535157 12 28 12c15.460938 0 28-5.371094 28-12zm0 0" fill="#d3374e"/><path d="m232.007812 168c0-4.417969-7.164062-8-16-8-8.839843 0-16 3.582031-16 8s7.160157 8 16 8c8.835938 0 16-3.582031 16-8zm0 0" fill="#d3374e"/><path d="m208.007812 296c0-4.417969-10.746093-8-24-8-13.257812 0-24 3.582031-24 8s10.742188 8 24 8c13.253907 0 24-3.582031 24-8zm0 0" fill="#d3374e"/><path d="m328.007812 336c0-4.417969-8.957031-8-20-8-11.046874 0-20 3.582031-20 8s8.953126 8 20 8c11.042969 0 20-3.582031 20-8zm0 0" fill="#d3374e"/><g fill="#e6e9ed"><path d="m20.253906 216c-2.207031 0-4.039062-1.792969-4.039062-4s1.75-4 3.953125-4h.085937c2.199219 0 4 1.792969 4 4s-1.800781 4-4 4zm0 0"/><path d="m228.253906 496c-2.207031 0-4.039062-1.792969-4.039062-4s1.75-4 3.953125-4h.085937c2.199219 0 4 1.792969 4 4s-1.800781 4-4 4zm0 0"/><path d="m180.253906 440c-2.207031 0-4.039062-1.792969-4.039062-4s1.75-4 3.953125-4h.085937c2.199219 0 4 1.792969 4 4s-1.800781 4-4 4zm0 0"/><path d="m116.253906 480c-2.207031 0-4.039062-1.792969-4.039062-4s1.75-4 3.953125-4h.085937c2.199219 0 4 1.792969 4 4s-1.800781 4-4 4zm0 0"/><path d="m356.253906 464c-2.207031 0-4.039062-1.792969-4.039062-4s1.75-4 3.953125-4h.085937c2.199219 0 4 1.792969 4 4s-1.800781 4-4 4zm0 0"/><path d="m36.253906 312c-2.207031 0-4.039062-1.792969-4.039062-4s1.75-4 3.953125-4h.085937c2.199219 0 4 1.792969 4 4s-1.800781 4-4 4zm0 0"/><path d="m76.253906 136c-2.207031 0-4.039062-1.792969-4.039062-4s1.75-4 3.953125-4h.085937c2.199219 0 4 1.792969 4 4s-1.800781 4-4 4zm0 0"/><path d="m60.253906 408c-2.207031 0-4.039062-1.792969-4.039062-4s1.75-4 3.953125-4h.085937c2.199219 0 4 1.792969 4 4s-1.800781 4-4 4zm0 0"/><path d="m108.253906 32c-2.207031 0-4.039062-1.792969-4.039062-4s1.75-4 3.953125-4h.085937c2.199219 0 4 1.792969 4 4s-1.800781 4-4 4zm0 0"/><path d="m292.253906 80c-2.207031 0-4.039062-1.792969-4.039062-4s1.75-4 3.953125-4h.085937c2.199219 0 4 1.792969 4 4s-1.800781 4-4 4zm0 0"/><path d="m340.253906 8c-2.207031 0-4.039062-1.792969-4.039062-4s1.75-4 3.953125-4h.085937c2.199219 0 4 1.792969 4 4s-1.800781 4-4 4zm0 0"/><path d="m212.253906 8c-2.207031 0-4.039062-1.792969-4.039062-4s1.75-4 3.953125-4h.085937c2.199219 0 4 1.792969 4 4s-1.800781 4-4 4zm0 0"/><path d="m452.253906 184c-2.207031 0-4.039062-1.792969-4.039062-4s1.75-4 3.953125-4h.085937c2.199219 0 4 1.792969 4 4s-1.800781 4-4 4zm0 0"/><path d="m500.253906 320c-2.207031 0-4.039062-1.792969-4.039062-4s1.75-4 3.953125-4h.085937c2.199219 0 4 1.792969 4 4s-1.800781 4-4 4zm0 0"/><path d="m420.253906 384c-2.207031 0-4.039062-1.792969-4.039062-4s1.75-4 3.953125-4h.085937c2.199219 0 4 1.792969 4 4s-1.800781 4-4 4zm0 0"/><path d="m476.007812 496c-2.210937 0-4-1.792969-4-4v-32c0-2.207031 1.789063-4 4-4 2.207032 0 4 1.792969 4 4v32c0 2.207031-1.785156 4-4 4zm0 0"/><path d="m484.007812 480h-16c-2.210937 0-4-1.792969-4-4s1.789063-4 4-4h16c2.207032 0 4 1.792969 4 4s-1.785156 4-4 4zm0 0"/><path d="m36.007812 72c-2.210937 0-4-1.792969-4-4v-32c0-2.207031 1.789063-4 4-4 2.207032 0 4 1.792969 4 4v32c0 2.207031-1.785156 4-4 4zm0 0"/><path d="m44.007812 56h-16c-2.210937 0-4-1.792969-4-4s1.789063-4 4-4h16c2.207032 0 4 1.792969 4 4s-1.785156 4-4 4zm0 0"/></g><path d="m37.664062 499.152344c-.875 0-1.753906-.28125-2.496093-.863282-1.097657-.875-26.882813-21.761718-35.0820315-61.472656-.4570315-2.167968.9453125-4.28125 3.1054685-4.726562 2.117188-.480469 4.277344.925781 4.726563 3.101562 7.625 36.90625 31.984375 56.632813 32.230469 56.832032 1.730468 1.375 2.019531 3.886718.640624 5.625-.78125.984374-1.949218 1.503906-3.125 1.503906zm0 0" fill="#967adc"/><path d="m168.007812 220h-58.378906c-.742187 2.640625-1.460937 5.296875-2.0625 8h60.441406c2.207032 0 4-1.792969 4-4s-1.785156-4-4-4zm0 0" fill="#d3374e"/><path d="m123.621094 228c.59375-2.695312 1.257812-5.359375 2-8h-15.984375c-.253907.902344-.460938 1.832031-.710938 2.753906-.457031 1.75-.953125 3.476563-1.351562 5.246094zm0 0" fill="#da4453"/><path d="m396.445312 292h-124.4375c-2.210937 0-4 1.792969-4 4s1.789063 4 4 4h122.375c.742188-2.640625 1.464844-5.296875 2.0625-8zm0 0" fill="#d3374e"/><path d="m364.527344 164h-36.511719c-2.210937 0-4 1.792969-4 4s1.789063 4 4 4h42.796875c-2.03125-2.726562-4.085938-5.425781-6.285156-8zm0 0" fill="#d3374e"/><path d="m248.007812 356h-108.511718c2.34375 2.742188 4.742187 5.441406 7.269531 8h101.242187c2.207032 0 4-1.792969 4-4s-1.785156-4-4-4zm0 0" fill="#d3374e"/><path d="m162.972656 364c-2.542968-2.558594-4.949218-5.257812-7.300781-8h-16.175781c2.34375 2.742188 4.742187 5.441406 7.269531 8zm0 0" fill="#da4453"/><path d="m474.300781 47.960938c-1.070312-2.824219-2.527343-5.425782-4.300781-7.800782-13.378906.976563-21.210938 5.59375-28.144531 9.816406-7.914063 4.808594-14.9375 8.976563-30.105469 7.039063-.0625.832031-.246094 1.632813-.246094 2.488281 0 1.929688.238282 3.800782.566406 5.640625 2.464844.261719 4.75.398438 6.878907.398438 12.6875 0 19.960937-4.421875 27.050781-8.726563 7.382812-4.480468 14.453125-8.753906 28.300781-8.855468zm0 0" fill="#dd4b3c"/><path d="m418.957031 65.535156c.394531 0 .738281-.039062 1.121094-.046875-.367187-1.945312-.558594-3.945312-.558594-5.992187 0-.703125.152344-1.367188.191407-2.0625-2.417969.046875-4.992188-.050782-7.953126-.425782-.0625.832032-.246093 1.632813-.246093 2.488282 0 1.929687.238281 3.800781.566406 5.640625 2.457031.269531 4.742187.398437 6.878906.398437zm0 0" fill="#e9573f"/><path d="m452.007812 80h-8c-2.210937 0-4-1.792969-4-4s1.789063-4 4-4h8c2.207032 0 4 1.792969 4 4s-1.785156 4-4 4zm0 0" fill="#dd4b3c"/><path d="m56.007812 500c0 6.628906-5.375 12-12 12-6.628906 0-12-5.371094-12-12s5.371094-12 12-12c6.625 0 12 5.371094 12 12zm0 0" fill="#ac92ec"/></svg>