<svg height="512pt" viewBox="0 -16 512.032 512" width="512pt" xmlns="http://www.w3.org/2000/svg"><path d="m483.800781 368.015625h-32c8.832031 0 16-7.167969 16-16s-7.167969-16-16-16h-32c8.832031 0 16-7.167969 16-16s-7.167969-16-16-16h-48c8.832031 0 16-7.167969 16-16s-7.167969-16-16-16h88c8.832031 0 16-7.167969 16-16s-7.167969-16-16-16h-40c8.832031 0 16-7.167969 16-16s-7.167969-16-16-16h-16c8.832031 0 16-7.167969 16-16s-7.167969-16-16-16h80c8.832031 0 16-7.167969 16-16s-7.167969-16-16-16h-32c8.832031 0 16-7.167969 16-16s-7.167969-16-16-16h-32c8.832031 0 16-7.167969 16-16s-7.167969-16-16-16h-24c8.832031 0 16-7.167969 16-16s-7.167969-16-16-16h-240c-8.839843 0-16 7.167969-16 16s7.160157 16 16 16h-56c-8.839843 0-16 7.167969-16 16s7.160157 16 16 16h-16c-8.839843 0-16 7.167969-16 16s7.160157 16 16 16h48c-8.839843 0-16 7.167969-16 16s7.160157 16 16 16h-88c-8.839843 0-16 7.167969-16 16s7.160157 16 16 16h40c-8.839843 0-16 7.167969-16 16s7.160157 16 16 16h-40c-8.839843 0-16 7.167969-16 16s7.160157 16 16 16h-16c-8.839843 0-16 7.167969-16 16s7.160157 16 16 16h40c-8.839843 0-16 7.167969-16 16s7.160157 16 16 16h-16c-8.839843 0-16 7.167969-16 16s7.160157 16 16 16h80c-8.839843 0-16 7.167969-16 16s7.160157 16 16 16h-32c-8.839843 0-16 7.167969-16 16s7.160157 16 16 16h272c8.832031 0 16-7.167969 16-16s-7.167969-16-16-16h112c8.832031 0 16-7.167969 16-16s-7.175781-16-16-16zm0 0" fill="#656d78"/><path d="m403.800781 240.015625c0 81.738281-66.261719 148-148 148s-148-66.261719-148-148 66.261719-148 148-148 148 66.261719 148 148zm0 0" fill="#e9573f"/><path d="m123.785156 240.015625c0-76.328125 57.800782-139.121094 132-147.105469-2.21875-.238281-4.472656-.414062-6.707031-.558594-78.589844 3.535157-141.277344 68.191407-141.277344 147.664063s62.6875 144.128906 141.277344 147.664063c2.234375-.152344 4.488281-.320313 6.707031-.558594-74.210937-7.984375-132-70.777344-132-147.105469zm0 0" fill="#fc6e51"/><path d="m483.800781 28.015625c0 13.253906-10.746093 24-24 24-13.253906 0-24-10.746094-24-24s10.746094-24 24-24c13.253907 0 24 10.746094 24 24zm0 0" fill="#f6bb42"/><path d="m443.800781 28.015625c0-11.878906 8.65625-21.6875 20-23.589844-1.3125-.21875-2.625-.410156-4-.410156-13.25 0-24 10.753906-24 24 0 13.25 10.75 24 24 24 1.375 0 2.6875-.183594 4-.40625-11.34375-1.90625-20-11.714844-20-23.59375zm0 0" fill="#ffce54"/><path d="m480.457031 55.3125c-9.753906 0-25.578125-15.242188-29.144531-18.816406-4.25-4.25-25.046875-25.855469-16.96875-33.9375 1.558594-1.558594 4.097656-1.558594 5.65625 0 1.390625 1.386718 1.527344 3.539062.472656 5.097656.144532 2.566406 4.96875 11.664062 16.503906 23.183594 11.511719 11.519531 20.609376 16.351562 23.183594 16.503906 1.542969-1.070312 3.703125-.929688 5.097656.472656 1.558594 1.558594 1.558594 4.09375 0 5.65625-1.304687 1.289063-2.945312 1.839844-4.800781 1.839844zm0 0" fill="#ffce54"/><path d="m427.800781 440.015625c-1.3125 0-2.609375-.648437-3.375-1.832031-1.1875-1.855469-.65625-4.335938 1.199219-5.527344 31.214844-20.089844 35.933594-45.390625 35.984375-45.640625.375-2.167969 2.390625-3.648437 4.605469-3.261719 2.167968.375 3.640625 2.421875 3.28125 4.589844-.199219 1.167969-5.167969 28.921875-39.542969 51.046875-.671875.425781-1.425781.625-2.152344.625zm0 0" fill="#967adc"/><path d="m123.800781 232.015625c-2.113281 0-3.871093-1.640625-4-3.777344-.128906-2.199219 1.558594-4.09375 3.765625-4.214843 66.609375-3.824219 88.800782-20.574219 110.265625-36.792969 23.984375-18.101563 46.625-35.214844 121.96875-35.214844 2.199219 0 4 1.792969 4 4s-1.800781 4-4 4c-72.65625 0-94.265625 16.320313-117.160156 33.601563-22.410156 16.925781-45.59375 34.429687-114.625 38.390624-.078125.007813-.160156.007813-.214844.007813zm0 0" fill="#dd4b3c"/><path d="m147.800781 176.015625c-1.046875 0-2.097656-.40625-2.871093-1.207031-1.53125-1.585938-1.503907-4.121094.078124-5.65625 18.640626-18.105469 38.753907-22.9375 62.03125-28.535156 21.25-5.121094 45.34375-10.90625 74.753907-28.050782 1.886719-1.132812 4.34375-.476562 5.472656 1.441406 1.109375 1.902344.46875 4.359376-1.441406 5.472657-30.425781 17.734375-55.128907 23.679687-76.921875 28.917969-23.046875 5.539062-41.230469 9.921874-58.308594 26.496093-.792969.746094-1.792969 1.121094-2.792969 1.121094zm0 0" fill="#dd4b3c"/><path d="m145.296875 288.71875c-4.578125 0-9.21875-.222656-13.921875-.726562-2.199219-.222657-3.800781-2.191407-3.558594-4.398438.238282-2.210938 2.09375-3.824219 4.40625-3.554688 33.511719 3.546876 63.855469-7.335937 98.921875-19.925781 42.457031-15.234375 90.558594-32.488281 156.917969-28.089843 2.203125.152343 3.875 2.054687 3.722656 4.257812-.144531 2.207031-2.050781 3.917969-4.25 3.726562-64.734375-4.382812-111.984375 12.65625-153.6875 27.632813-31.207031 11.207031-58.71875 21.078125-88.550781 21.078125zm0 0" fill="#dd4b3c"/><g fill="#e6e9ed"><path d="m196.03125 480.015625c-2.199219 0-4.03125-1.792969-4.03125-4s1.753906-4 3.953125-4h.078125c2.199219 0 4 1.792969 4 4s-1.800781 4-4 4zm0 0"/><path d="m20.03125 360.015625c-2.199219 0-4.03125-1.792969-4.03125-4s1.753906-4 3.953125-4h.078125c2.199219 0 4 1.792969 4 4s-1.800781 4-4 4zm0 0"/><path d="m116.03125 424.015625c-2.199219 0-4.03125-1.792969-4.03125-4s1.753906-4 3.953125-4h.078125c2.199219 0 4 1.792969 4 4s-1.800781 4-4 4zm0 0"/><path d="m372.03125 424.015625c-2.199219 0-4.03125-1.792969-4.03125-4s1.753906-4 3.953125-4h.078125c2.199219 0 4 1.792969 4 4s-1.800781 4-4 4zm0 0"/><path d="m500.03125 296.015625c-2.199219 0-4.03125-1.792969-4.03125-4s1.753906-4 3.953125-4h.078125c2.199219 0 4 1.792969 4 4s-1.800781 4-4 4zm0 0"/><path d="m452.03125 208.015625c-2.199219 0-4.03125-1.792969-4.03125-4s1.753906-4 3.953125-4h.078125c2.199219 0 4 1.792969 4 4s-1.800781 4-4 4zm0 0"/><path d="m508.03125 128.015625c-2.199219 0-4.03125-1.792969-4.03125-4s1.753906-4 3.953125-4h.078125c2.199219 0 4 1.792969 4 4s-1.800781 4-4 4zm0 0"/><path d="m52.03125 280.015625c-2.199219 0-4.03125-1.792969-4.03125-4s1.753906-4 3.953125-4h.078125c2.199219 0 4 1.792969 4 4s-1.800781 4-4 4zm0 0"/><path d="m260.03125 32.015625c-2.199219 0-4.03125-1.792969-4.03125-4s1.753906-4 3.953125-4h.078125c2.199219 0 4 1.792969 4 4s-1.800781 4-4 4zm0 0"/><path d="m4.03125 168.015625c-2.199219 0-4.03125-1.792969-4.03125-4s1.753906-4 3.953125-4h.078125c2.199219 0 4 1.792969 4 4s-1.800781 4-4 4zm0 0"/><path d="m28.03125 96.015625c-2.199219 0-4.03125-1.792969-4.03125-4s1.753906-4 3.953125-4h.078125c2.199219 0 4 1.792969 4 4s-1.800781 4-4 4zm0 0"/><path d="m35.816406 464.015625c-2.214844 0-4-1.792969-4-4v-32c0-2.207031 1.785156-4 4-4 2.199219 0 4 1.792969 4 4v32c0 2.207031-1.800781 4-4 4zm0 0"/><path d="m43.816406 448.015625h-16c-2.214844 0-4-1.792969-4-4s1.785156-4 4-4h16c2.199219 0 4 1.792969 4 4s-1.800781 4-4 4zm0 0"/><path d="m99.816406 40.015625c-2.214844 0-4-1.792969-4-4v-32c0-2.207031 1.785156-4 4-4 2.199219 0 4 1.792969 4 4v32c0 2.207031-1.800781 4-4 4zm0 0"/><path d="m107.816406 24.015625h-16c-2.214844 0-4-1.792969-4-4s1.785156-4 4-4h16c2.199219 0 4 1.792969 4 4s-1.800781 4-4 4zm0 0"/></g><path d="m301.953125 300.648438c-.808594-.511719-19.890625-12.632813-34.152344-12.632813-14.265625 0-33.359375 12.121094-34.160156 12.632813-1.160156.734374-1.839844 2-1.839844 3.367187s.6875 2.632813 1.839844 3.367187c.800781.511719 19.886719 12.632813 34.160156 12.632813 14.269531 0 33.34375-12.121094 34.160157-12.632813 1.144531-.734374 1.839843-2 1.839843-3.367187s-.703125-2.632813-1.847656-3.367187zm0 0" fill="#dd4b3c"/><path d="m253.96875 353.769531c-9.167969 0-18.113281-.539062-26.96875-1.082031-15.855469-.96875-30.855469-1.871094-46.640625.382812-2.160156.25-4.214844-1.199218-4.527344-3.398437-.3125-2.183594 1.214844-4.207031 3.40625-4.519531 16.578125-2.367188 32.671875-1.390625 48.25-.449219 38.160157 2.304687 77.640625 4.710937 133.28125-39.816406 1.75-1.367188 4.246094-1.085938 5.621094.625 1.378906 1.726562 1.113281 4.242187-.621094 5.625-45.097656 36.070312-79.914062 42.632812-111.800781 42.632812zm0 0" fill="#dd4b3c"/><path d="m479.800781 380.015625c0 6.628906-5.375 12-12 12-6.628906 0-12-5.371094-12-12s5.371094-12 12-12c6.625 0 12 5.371094 12 12zm0 0" fill="#ac92ec"/></svg>