<svg height="507pt" viewBox="0 -2 507.3825 507" width="507pt" xmlns="http://www.w3.org/2000/svg"><path d="m483.425781 380.160156h-32c8.832031 0 16-7.171875 16-16 0-8.832031-7.167969-16-16-16h-32c8.832031 0 16-7.171875 16-16 0-8.832031-7.167969-16-16-16h-48c8.832031 0 16-7.171875 16-16 0-8.832031-7.167969-16-16-16h88c8.832031 0 16-7.171875 16-16 0-8.832031-7.167969-16-16-16h-40c8.832031 0 16-7.171875 16-16 0-8.832031-7.167969-16-16-16h-16c8.832031 0 16-7.171875 16-16 0-8.832031-7.167969-16-16-16h80c8.832031 0 16-7.171875 16-16 0-8.832031-7.167969-16-16-16h-32c8.832031 0 16-7.171875 16-16 0-8.832031-7.167969-16-16-16h-32c8.832031 0 16-7.171875 16-16 0-8.832031-7.167969-16-16-16h-24c8.832031 0 16-7.171875 16-16 0-8.832031-7.167969-16-16-16h-240c-8.839843 0-16 7.167969-16 16 0 8.828125 7.160157 16 16 16h-56c-8.839843 0-16 7.167969-16 16 0 8.828125 7.160157 16 16 16h-16c-8.839843 0-16 7.167969-16 16 0 8.828125 7.160157 16 16 16h48c-8.839843 0-16 7.167969-16 16 0 8.828125 7.160157 16 16 16h-88c-8.839843 0-16 7.167969-16 16 0 8.828125 7.160157 16 16 16h40c-8.839843 0-16 7.167969-16 16 0 8.828125 7.160157 16 16 16h-40c-8.839843 0-16 7.167969-16 16 0 8.828125 7.160157 16 16 16h-16c-8.839843 0-16 7.167969-16 16 0 8.828125 7.160157 16 16 16h40c-8.839843 0-16 7.167969-16 16 0 8.828125 7.160157 16 16 16h-16c-8.839843 0-16 7.167969-16 16 0 8.828125 7.160157 16 16 16h80c-8.839843 0-16 7.167969-16 16 0 8.828125 7.160157 16 16 16h-32c-8.839843 0-16 7.167969-16 16 0 8.828125 7.160157 16 16 16h272c8.832031 0 16-7.171875 16-16 0-8.832031-7.167969-16-16-16h112c8.832031 0 16-7.171875 16-16 0-8.832031-7.179687-16-16-16zm0 0" fill="#656d78"/><path d="m403.40625 252.160156c0 81.734375-66.261719 148-148 148s-148-66.265625-148-148c0-81.738281 66.261719-148 148-148s148 66.261719 148 148zm0 0" fill="#ffce54"/><path d="m403.40625 252.160156c0 81.734375-66.261719 148-148 148s-148-66.265625-148-148c0-81.738281 66.261719-148 148-148s148 66.261719 148 148zm0 0" fill="#f6bb42"/><path d="m123.425781 252.160156c0-79.472656 62.6875-144.128906 141.292969-147.664062-3.078125-.203125-6.167969-.335938-9.3125-.335938-81.734375 0-148 66.261719-148 148 0 81.734375 66.265625 148 148 148 3.144531 0 6.234375-.136718 9.3125-.339844-78.605469-3.535156-141.292969-68.191406-141.292969-147.660156zm0 0" fill="#ffce54"/><path d="m378.769531 323.285156c-23.753906-26.136718-50-53.847656-78.066406-82.246094-5.542969-5.769531-11.199219-11.425781-16.96875-17.191406-34.390625-34.402344-68.046875-66.464844-99.390625-94.976562-93.953125-85.257813-167.542969-138.832032-179.3125-127.066406-10.984375 10.976562 36.425781 77.496093 112 162.464843l11.59375 11.59375c4.015625-6.730469 8.542969-12.953125 13.511719-18.832031l-.449219-.34375-10.230469-10.234375c-28.234375-32.871094-59.96875-63.015625-56.394531-66.582031 7.066406-7.074219 102.328125 68.839844 193.113281 159.519531 5.65625 5.65625 11.265625 11.375 16.921875 17.03125 83.933594 85.425781 157.261719 169.480469 150.636719 176.097656-3.558594 3.558594-41.40625-27.945312-73.832031-55.722656l-11.308594-11.3125c-5.875 4.96875-12.097656 9.503906-18.832031 13.515625l11.589843 11.589844c84.976563 75.585937 151.449219 122.929687 162.417969 111.960937 11.757813-11.769531-41.753906-85.296875-127-179.265625zm0 0" fill="#e6e9ed"/><path d="m483.800781 48.191406c0 13.253906-10.746093 24-24 24-13.253906 0-24-10.746094-24-24 0-13.257812 10.746094-24 24-24 13.253907 0 24 10.742188 24 24zm0 0" fill="#3bafda"/><path d="m443.800781 48.191406c0-11.890625 8.65625-21.6875 20-23.601562-1.3125-.214844-2.640625-.398438-4-.398438-13.25 0-24 10.734375-24 24 0 13.246094 10.75 24 24 24 1.359375 0 2.6875-.183594 4-.410156-11.34375-1.910156-20-11.71875-20-23.589844zm0 0" fill="#4fc1e9"/><g fill="#e6e9ed"><path d="m492.03125 228.191406c-2.199219 0-4.03125-1.792968-4.03125-4 0-2.210937 1.753906-4 3.953125-4h.078125c2.199219 0 4 1.789063 4 4 0 2.207032-1.800781 4-4 4zm0 0"/><path d="m204.03125 44.191406c-2.199219 0-4.03125-1.792968-4.03125-4 0-2.210937 1.753906-4 3.953125-4h.078125c2.199219 0 4 1.789063 4 4 0 2.207032-1.800781 4-4 4zm0 0"/><path d="m4.03125 140.191406c-2.199219 0-4.03125-1.792968-4.03125-4 0-2.210937 1.753906-4 3.953125-4h.078125c2.199219 0 4 1.789063 4 4 0 2.207032-1.800781 4-4 4zm0 0"/><path d="m316.03125 36.191406c-2.199219 0-4.03125-1.792968-4.03125-4 0-2.210937 1.753906-4 3.953125-4h.078125c2.199219 0 4 1.789063 4 4 0 2.207032-1.800781 4-4 4zm0 0"/><path d="m428.03125 156.191406c-2.199219 0-4.03125-1.792968-4.03125-4 0-2.210937 1.753906-4 3.953125-4h.078125c2.199219 0 4 1.789063 4 4 0 2.207032-1.800781 4-4 4zm0 0"/><path d="m324.03125 500.191406c-2.199219 0-4.03125-1.792968-4.03125-4 0-2.210937 1.753906-4 3.953125-4h.078125c2.199219 0 4 1.789063 4 4 0 2.207032-1.800781 4-4 4zm0 0"/><path d="m196.03125 468.191406c-2.199219 0-4.03125-1.792968-4.03125-4 0-2.210937 1.753906-4 3.953125-4h.078125c2.199219 0 4 1.789063 4 4 0 2.207032-1.800781 4-4 4zm0 0"/><path d="m12.03125 348.191406c-2.199219 0-4.03125-1.792968-4.03125-4 0-2.210937 1.753906-4 3.953125-4h.078125c2.199219 0 4 1.789063 4 4 0 2.207032-1.800781 4-4 4zm0 0"/><path d="m76.03125 396.191406c-2.199219 0-4.03125-1.792968-4.03125-4 0-2.210937 1.753906-4 3.953125-4h.078125c2.199219 0 4 1.789063 4 4 0 2.207032-1.800781 4-4 4zm0 0"/><path d="m75.800781 500.191406c-2.214843 0-4-1.792968-4-4v-32c0-2.210937 1.785157-4 4-4 2.199219 0 4 1.789063 4 4v32c0 2.207032-1.800781 4-4 4zm0 0"/><path d="m83.800781 484.191406h-16c-2.214843 0-4-1.792968-4-4 0-2.210937 1.785157-4 4-4h16c2.199219 0 4 1.789063 4 4 0 2.207032-1.800781 4-4 4zm0 0"/><path d="m35.800781 268.191406c-2.214843 0-4-1.792968-4-4v-32c0-2.210937 1.785157-4 4-4 2.199219 0 4 1.789063 4 4v32c0 2.207032-1.800781 4-4 4zm0 0"/><path d="m43.800781 252.191406-16-.007812c-2.214843 0-4-1.792969-4-4 0-2.210938 1.785157-4 4-4l16 .007812c2.199219 0 4 1.789063 4 4 0 2.207032-1.800781 4-4 4zm0 0"/><path d="m467.800781 340.191406c-2.214843 0-4-1.792968-4-4v-32c0-2.210937 1.785157-4 4-4 2.199219 0 4 1.789063 4 4v32c0 2.207032-1.800781 4-4 4zm0 0"/><path d="m475.800781 324.191406h-16c-2.214843 0-4-1.792968-4-4 0-2.210937 1.785157-4 4-4h16c2.199219 0 4 1.789063 4 4 0 2.207032-1.800781 4-4 4zm0 0"/></g><path d="m459.785156 84.175781c-1.199218 0-3.015625-.371093-4.769531-2.121093-5.328125-5.3125-7.214844-21.558594-7.214844-33.863282 0-6.007812.574219-35.984375 12-35.984375 2.199219 0 4 1.792969 4 4 0 1.960938-1.425781 3.589844-3.28125 3.933594-1.703125 1.914063-4.71875 11.753906-4.71875 28.050781 0 16.285156 3 26.125 4.71875 28.046875 1.855469.335938 3.265625 1.960938 3.28125 3.921875 0 2.214844-1.847656 4.078125-4.015625 4.015625zm0 0" fill="#4fc1e9"/></svg>