<svg height="512pt" viewBox="0 0 512.256 512" width="512pt" xmlns="http://www.w3.org/2000/svg"><path d="m476 52.128906c0 17.671875-14.328125 32-32 32s-32-14.328125-32-32c0-17.675781 14.328125-32 32-32s32 14.324219 32 32zm0 0" fill="#4a89dc"/><path d="m420 52.128906c0-16.304687 12.230469-29.609375 28-31.601562-1.328125-.167969-2.625-.398438-4-.398438-17.671875 0-32 14.328125-32 32s14.328125 32 32 32c1.375 0 2.671875-.242187 4-.410156-15.761719-1.984375-28-15.292969-28-31.589844zm0 0" fill="#5d9cec"/><path d="m484 383.96875h-32c8.832031 0 16-7.167969 16-16s-7.167969-16-16-16h-32c8.832031 0 16-7.167969 16-16s-7.167969-16-16-16h-48c8.832031 0 16-7.167969 16-16s-7.167969-16-16-16h88c8.832031 0 16-7.167969 16-16s-7.167969-16-16-16h-40c8.832031 0 16-7.167969 16-16s-7.167969-16-16-16h-16c8.832031 0 16-7.167969 16-16s-7.167969-16-16-16h80c8.832031 0 16-7.167969 16-16s-7.167969-16-16-16h-32c8.832031 0 16-7.167969 16-16s-7.167969-16-16-16h-32c8.832031 0 16-7.167969 16-16s-7.167969-16-16-16h-24c8.832031 0 16-7.167969 16-16s-7.167969-16-16-16h-240.015625c-8.832031 0-16 7.167969-16 16s7.167969 16 16 16h-56c-8.832031 0-16 7.167969-16 16s7.167969 16 16 16h-16c-8.832031 0-16 7.167969-16 16s7.167969 16 16 16h48c-8.832031 0-16 7.167969-16 16s7.167969 16 16 16h-88c-8.832031 0-16 7.167969-16 16s7.167969 16 16 16h40c-8.832031 0-16 7.167969-16 16s7.167969 16 16 16h-40c-8.832031 0-16 7.167969-16 16s7.167969 16 16 16h-16c-8.832031 0-16 7.167969-16 16s7.167969 16 16 16h40c-8.832031 0-16 7.167969-16 16s7.167969 16 16 16h-16c-8.832031 0-16 7.167969-16 16s7.167969 16 16 16h80c-8.832031 0-16 7.167969-16 16s7.167969 16 16 16h-32c-8.832031 0-16 7.167969-16 16s7.167969 16 16 16h272.015625c8.832031 0 16-7.167969 16-16s-7.167969-16-16-16h112c8.832031 0 16-7.167969 16-16s-7.167969-16-16-16zm0 0" fill="#656d78"/><path d="m452 52.128906c0-4.417968-5.371094-8-12-8s-12 3.582032-12 8c0 4.417969 5.371094 8 12 8s12-3.582031 12-8zm0 0" fill="#3b74c4"/><path d="m404 255.96875c0 81.738281-66.261719 148-148 148s-148-66.261719-148-148 66.261719-148 148-148 148 66.261719 148 148zm0 0" fill="#3bafda"/><path d="m124.015625 255.96875c0-79.472656 62.6875-144.128906 141.28125-147.664062-3.082031-.199219-6.167969-.335938-9.296875-.335938-81.734375 0-148 66.261719-148 148 0 81.734375 66.265625 148 148 148 3.128906 0 6.214844-.136719 9.296875-.335938-78.59375-3.535156-141.28125-68.191406-141.28125-147.664062zm0 0" fill="#4fc1e9"/><g fill="#e6e9ed"><path d="m500.257812 288.128906c-2.21875 0-4.050781-1.792968-4.050781-4 0-2.207031 1.753907-4 3.953125-4h.097656c2.199219 0 4 1.792969 4 4 0 2.207032-1.800781 4-4 4zm0 0"/><path d="m116.257812 8.128906c-2.21875 0-4.050781-1.792968-4.050781-4 0-2.207031 1.753907-4 3.953125-4h.097656c2.199219 0 4 1.792969 4 4 0 2.207032-1.800781 4-4 4zm0 0"/><path d="m212.257812 48.128906c-2.21875 0-4.050781-1.792968-4.050781-4 0-2.207031 1.753907-4 3.953125-4h.097656c2.199219 0 4 1.792969 4 4 0 2.207032-1.800781 4-4 4zm0 0"/><path d="m92.257812 112.128906c-2.21875 0-4.050781-1.792968-4.050781-4 0-2.207031 1.753907-4 3.953125-4h.097656c2.199219 0 4 1.792969 4 4 0 2.207032-1.800781 4-4 4zm0 0"/><path d="m508.257812 144.128906c-2.21875 0-4.050781-1.792968-4.050781-4 0-2.207031 1.753907-4 3.953125-4h.097656c2.199219 0 4 1.792969 4 4 0 2.207032-1.800781 4-4 4zm0 0"/><path d="m428.257812 168.128906c-2.21875 0-4.050781-1.792968-4.050781-4 0-2.207031 1.753907-4 3.953125-4h.097656c2.199219 0 4 1.792969 4 4 0 2.207032-1.800781 4-4 4zm0 0"/><path d="m428.257812 368.128906c-2.21875 0-4.050781-1.792968-4.050781-4 0-2.207031 1.753907-4 3.953125-4h.097656c2.199219 0 4 1.792969 4 4 0 2.207032-1.800781 4-4 4zm0 0"/><path d="m108.257812 416.128906c-2.21875 0-4.050781-1.792968-4.050781-4 0-2.207031 1.753907-4 3.953125-4h.097656c2.199219 0 4 1.792969 4 4 0 2.207032-1.800781 4-4 4zm0 0"/><path d="m4.257812 360.128906c-2.21875 0-4.050781-1.792968-4.050781-4 0-2.207031 1.753907-4 3.953125-4h.097656c2.199219 0 4 1.792969 4 4 0 2.207032-1.800781 4-4 4zm0 0"/><path d="m36.257812 256.128906c-2.21875 0-4.050781-1.792968-4.050781-4 0-2.207031 1.753907-4 3.953125-4h.097656c2.199219 0 4 1.792969 4 4 0 2.207032-1.800781 4-4 4zm0 0"/><path d="m324.257812 456.128906c-2.21875 0-4.050781-1.792968-4.050781-4 0-2.207031 1.753907-4 3.953125-4h.097656c2.199219 0 4 1.792969 4 4 0 2.207032-1.800781 4-4 4zm0 0"/><path d="m12 136.128906c-2.199219 0-4-1.792968-4-4v-32c0-2.207031 1.800781-4 4-4 2.214844 0 4 1.792969 4 4v32c0 2.207032-1.777344 4-4 4zm0 0"/><path d="m20 120.128906h-16c-2.199219 0-4-1.792968-4-4 0-2.207031 1.800781-4 4-4h16c2.214844 0 4 1.792969 4 4 0 2.207032-1.777344 4-4 4zm0 0"/><path d="m60 512.128906c-2.199219 0-4-1.792968-4-4v-32c0-2.207031 1.800781-4 4-4 2.214844 0 4 1.792969 4 4v32c0 2.207032-1.777344 4-4 4zm0 0"/><path d="m68 496.128906h-16c-2.199219 0-4-1.792968-4-4 0-2.207031 1.800781-4 4-4h16c2.214844 0 4 1.792969 4 4 0 2.207032-1.777344 4-4 4zm0 0"/></g><path d="m210.0625 503.632812c-.964844 0-1.765625-.160156-2.390625-.28125-4.527344-.878906-18.328125-3.574218-14.816406-80.351562 2.167969-47.488281 10.390625-109.519531 23.128906-174.679688 19.421875-99.382812 58.863281-245.113281 88.328125-239.433593 4.953125.96875 20.015625 3.914062 14.046875 94.242187-.160156 2.199219-1.984375 3.933594-4.261719 3.726563-2.203125-.152344-3.875-2.054688-3.722656-4.253907 4.359375-65.882812-3.0625-84.96875-7.589844-85.859374-13.59375-2.292969-49.953125 84.824218-78.953125 233.113281-12.65625 64.792969-20.816406 126.417969-22.984375 173.511719-2.511718 55.273437 4.375 71.359374 8.359375 72.136718 4.546875 1.089844 18.59375-13.96875 39.359375-76.6875.691406-2.097656 2.953125-3.25 5.066406-2.535156 2.09375.695312 3.230469 2.957031 2.527344 5.054688-24.832031 74.984374-39.472656 82.296874-46.097656 82.296874zm0 0" fill="#4fc1e9"/><path d="m404.929688 479.960938c-1.785157 0-3.410157-1.199219-3.875-3.015626-.542969-2.144531.753906-4.3125 2.890624-4.855468 36.214844-9.226563 46.488282-31.683594 46.589844-31.90625.871094-2.015625 3.234375-2.953125 5.25-2.0625 2.015625.871094 2.949219 3.207031 2.078125 5.230468-.457031 1.074219-11.671875 26.222657-51.953125 36.488282-.324218.082031-.652344.121094-.980468.121094zm0 0" fill="#967adc"/><path d="m428 32.128906h-8.800781c-1.953125 2.421875-3.640625 5.070313-4.832031 8h13.625c2.214843 0 4-1.792968 4-4 0-2.207031-1.769532-4-3.992188-4zm0 0" fill="#3b74c4"/><path d="m427.222656 32.128906h-8.015625c0 .007813 0 .015625-.015625.023438-.902344 1.128906-1.734375 2.3125-2.511718 3.542968-.265626.449219-.503907.921876-.75 1.382813-.554688.992187-1.113282 1.984375-1.554688 3.050781h8.015625c1.210937-2.921875 2.867187-5.585937 4.832031-8zm0 0" fill="#4a89dc"/><path d="m473.632812 64.128906h-13.625c-2.199218 0-4 1.792969-4 4 0 2.207032 1.800782 4 4 4h8.800782c1.945312-2.425781 3.632812-5.074218 4.824218-8zm0 0" fill="#3b74c4"/><path d="m472 436.289062c0 6.625-5.371094 12-12 12s-12-5.375-12-12c0-6.628906 5.371094-12 12-12s12 5.371094 12 12zm0 0" fill="#ac92ec"/></svg>